{"glyphs":{"0":{"ha":501,"x_min":69,"x_max":432,"o":"m 336 125 l 336 739 q 328 774 336 767 q 293 782 319 782 l 208 782 q 173 774 181 782 q 165 739 165 767 l 165 125 q 173 90 165 97 q 208 82 181 82 l 293 82 q 328 90 319 82 q 336 125 336 97 m 432 754 l 432 110 q 322 0 432 0 l 179 0 q 69 110 69 0 l 69 754 q 179 864 69 864 l 322 864 q 432 754 432 864 z "},"1":{"ha":293,"x_min":28,"x_max":217,"o":"m 217 864 l 217 0 l 122 0 l 122 782 l 28 782 l 28 864 l 217 864 z "},"2":{"ha":403,"x_min":35,"x_max":368,"o":"m 129 739 l 129 586 l 35 586 l 35 754 q 144 864 35 864 l 251 864 q 361 754 361 864 l 361 678 q 325 497 361 582 l 135 82 l 368 82 l 368 0 l 36 0 l 36 81 l 233 513 q 265 683 265 588 l 265 739 q 258 774 265 767 q 222 782 250 782 l 172 782 q 137 774 144 782 q 129 739 129 767 z "},"3":{"ha":447,"x_min":42,"x_max":378,"o":"m 136 739 l 136 597 l 42 597 l 42 754 q 151 864 42 864 l 268 864 q 378 754 378 864 l 378 506 q 326 439 378 443 q 378 374 378 431 l 378 110 q 268 0 378 0 l 151 0 q 42 110 42 0 l 42 265 l 136 265 l 136 125 q 144 90 136 97 q 179 82 153 82 l 240 82 q 275 90 267 82 q 283 125 283 97 l 283 353 q 275 388 283 381 q 240 396 267 396 l 139 396 l 139 479 l 240 479 q 275 487 267 479 q 283 522 283 494 l 283 739 q 275 774 283 767 q 240 782 267 782 l 179 782 q 144 774 153 782 q 136 739 136 767 z "},"4":{"ha":451,"x_min":7,"x_max":451,"o":"m 451 258 l 451 176 l 378 176 l 378 0 l 286 0 l 286 176 l 7 176 l 7 250 l 235 864 l 328 864 l 104 258 l 286 258 l 286 422 l 378 422 l 378 258 l 451 258 z "},"5":{"ha":446,"x_min":56,"x_max":394,"o":"m 394 782 l 151 782 l 151 532 l 285 532 q 394 422 394 532 l 394 110 q 285 0 394 0 l 165 0 q 56 110 56 0 l 56 267 l 151 267 l 151 125 q 159 90 151 97 q 194 82 167 82 l 256 82 q 291 90 283 82 q 299 125 299 97 l 299 407 q 291 442 299 433 q 256 450 283 450 l 56 450 l 56 864 l 394 864 l 394 782 z "},"6":{"ha":489,"x_min":69,"x_max":426,"o":"m 165 490 l 317 490 q 426 381 426 490 l 426 110 q 317 0 426 0 l 179 0 q 69 110 69 0 l 69 754 q 179 864 69 864 l 315 864 q 425 754 425 864 l 425 592 l 331 592 l 331 739 q 322 774 331 767 q 288 782 314 782 l 208 782 q 173 774 181 782 q 165 739 165 767 l 165 490 m 331 125 l 331 365 q 322 400 331 392 q 288 408 314 408 l 165 408 l 165 125 q 173 90 165 97 q 208 82 181 82 l 288 82 q 322 90 314 82 q 331 125 331 97 z "},"7":{"ha":356,"x_min":7,"x_max":349,"o":"m 349 864 l 349 800 l 125 0 l 31 0 l 246 782 l 7 782 l 7 864 l 349 864 z "},"8":{"ha":500,"x_min":69,"x_max":431,"o":"m 431 754 l 431 500 q 379 433 431 438 q 431 368 431 425 l 431 110 q 321 0 431 0 l 179 0 q 69 110 69 0 l 69 368 q 121 433 69 425 q 69 500 69 438 l 69 754 q 179 864 69 864 l 321 864 q 431 754 431 864 m 336 125 l 336 350 q 328 385 336 378 q 293 393 319 393 l 207 393 q 172 385 181 393 q 164 350 164 378 l 164 125 q 172 90 164 97 q 207 82 181 82 l 293 82 q 328 90 319 82 q 336 125 336 97 m 336 519 l 336 739 q 328 774 336 767 q 293 782 319 782 l 207 782 q 172 774 181 782 q 164 739 164 767 l 164 519 q 172 484 164 492 q 207 476 181 476 l 293 476 q 328 484 319 476 q 336 519 336 492 z "},"9":{"ha":482,"x_min":56,"x_max":413,"o":"m 165 864 l 303 864 q 413 754 413 864 l 413 110 q 303 0 413 0 l 167 0 q 57 110 57 0 l 57 272 l 151 272 l 151 125 q 159 90 151 97 q 194 82 167 82 l 274 82 q 308 90 300 82 q 317 125 317 97 l 317 360 l 165 360 q 56 469 56 360 l 56 754 q 165 864 56 864 m 194 442 l 317 442 l 317 739 q 308 774 317 767 q 274 782 300 782 l 194 782 q 159 774 167 782 q 151 739 151 767 l 151 485 q 159 450 151 458 q 194 442 167 442 z "},"\u0000":{"ha":0,"x_min":0,"x_max":0,"o":""},"\r":{"ha":0,"x_min":0,"x_max":0,"o":""}," ":{"ha":181,"x_min":0,"x_max":0,"o":""},"!":{"ha":257,"x_min":69,"x_max":188,"o":"m 71 0 l 71 156 l 185 156 l 185 0 l 71 0 m 69 864 l 188 864 l 169 272 l 88 272 l 69 864 z "},"\"":{"ha":353,"x_min":49,"x_max":304,"o":"m 215 864 l 304 864 l 304 569 l 215 569 l 215 864 m 49 864 l 138 864 l 138 569 l 49 569 l 49 864 z "},"#":{"ha":622,"x_min":42,"x_max":581,"o":"m 581 553 l 500 553 l 460 311 l 539 311 l 539 231 l 446 231 l 408 0 l 321 0 l 358 231 l 196 231 l 158 0 l 71 0 l 108 231 l 42 231 l 42 311 l 122 311 l 163 553 l 83 553 l 83 633 l 176 633 l 214 864 l 301 864 l 264 633 l 426 633 l 464 864 l 551 864 l 514 633 l 581 633 l 581 553 m 372 311 l 413 553 l 250 553 l 210 311 l 372 311 z "},"$":{"ha":454,"x_min":56,"x_max":399,"o":"m 194 486 l 289 486 q 399 376 399 486 l 399 110 q 289 0 399 0 l 272 0 l 272 -104 l 182 -104 l 182 0 l 168 0 q 58 110 58 0 l 58 243 l 154 243 l 154 125 q 162 90 154 97 q 197 82 169 82 l 260 82 q 294 90 286 82 q 303 125 303 97 l 303 361 q 294 397 303 389 q 260 404 286 404 l 165 404 q 56 514 56 404 l 56 754 q 165 864 56 864 l 182 864 l 182 968 l 272 968 l 272 864 l 288 864 q 397 754 397 864 l 397 621 l 301 621 l 301 739 q 294 774 301 767 q 258 782 286 782 l 194 782 q 159 774 167 782 q 151 739 151 767 l 151 529 q 159 494 151 503 q 194 486 167 486 z "},"%":{"ha":796,"x_min":42,"x_max":754,"o":"m 544 864 l 629 864 l 250 0 l 167 0 l 544 864 m 676 111 l 676 342 q 669 376 676 368 q 638 383 663 383 l 606 383 q 574 376 581 383 q 567 342 567 368 l 567 111 q 574 77 567 85 q 606 69 581 69 l 638 69 q 669 77 663 69 q 676 111 676 85 m 229 522 l 229 753 q 222 787 229 779 q 190 794 215 794 l 158 794 q 126 787 133 794 q 119 753 119 779 l 119 522 q 126 488 119 496 q 158 481 133 481 l 190 481 q 222 488 215 481 q 229 522 229 496 m 754 354 l 754 99 q 661 0 754 0 l 582 0 q 489 99 489 0 l 489 354 q 582 453 489 453 l 661 453 q 754 354 754 453 m 307 765 l 307 510 q 214 411 307 411 l 135 411 q 42 510 42 411 l 42 765 q 135 864 42 864 l 214 864 q 307 765 307 864 z "},"&":{"ha":581,"x_min":56,"x_max":660,"o":"m 432 0 l 165 0 q 56 110 56 0 l 56 271 q 72 336 56 310 q 128 390 88 363 l 175 426 q 128 489 143 468 q 99 545 114 510 q 83 611 83 581 l 83 754 q 193 864 83 864 l 321 864 q 431 754 431 864 l 431 617 q 408 506 431 547 q 335 432 385 464 l 301 408 l 464 201 l 464 311 l 542 311 l 542 101 l 660 -49 l 556 -49 l 503 18 q 432 0 476 0 m 178 739 l 178 603 q 244 481 178 558 l 257 490 q 318 547 300 521 q 336 617 336 574 l 336 739 q 328 774 336 767 q 293 782 319 782 l 221 782 q 186 774 194 782 q 178 739 178 767 m 193 82 l 421 82 q 449 85 435 82 l 231 357 l 193 331 q 159 297 168 314 q 150 246 150 281 l 150 125 q 158 90 150 97 q 193 82 167 82 z "},"'":{"ha":193,"x_min":49,"x_max":144,"o":"m 49 864 l 144 864 l 144 569 l 49 569 l 49 864 z "},"(":{"ha":340,"x_min":68,"x_max":376,"o":"m 68 475 q 354 1099 68 1099 l 376 1099 l 376 1019 l 357 1018 q 205 868 249 1010 q 161 476 161 726 l 161 375 q 205 -17 161 125 q 357 -167 249 -158 l 376 -168 l 376 -247 l 354 -247 q 68 376 68 -247 l 68 475 z "},")":{"ha":340,"x_min":-40,"x_max":268,"o":"m 268 376 q -18 -247 268 -247 l -40 -247 l -40 -168 l -21 -167 q 131 -17 88 -158 q 175 375 175 125 l 175 476 q 131 868 175 726 q -21 1018 88 1010 l -40 1019 l -40 1099 l -18 1099 q 268 475 268 1099 l 268 376 z "},"*":{"ha":419,"x_min":21,"x_max":399,"o":"m 167 807 l 167 864 l 253 864 l 253 807 q 246 729 253 761 q 371 776 283 749 l 399 694 q 268 661 303 665 q 319 601 296 636 l 353 556 l 283 504 q 210 618 222 592 q 169 550 193 582 l 136 504 l 65 556 q 151 660 126 636 q 21 696 110 667 l 47 778 l 101 760 q 174 728 133 750 q 167 807 167 763 z "},"+":{"ha":528,"x_min":35,"x_max":493,"o":"m 493 474 l 493 390 l 313 390 l 313 182 l 215 182 l 215 390 l 35 390 l 35 474 l 215 474 l 215 682 l 313 682 l 313 474 l 493 474 z "},",":{"ha":197,"x_min":42,"x_max":156,"o":"m 42 156 l 156 156 l 156 75 l 79 -190 l 42 -190 l 42 156 z "},"-":{"ha":426,"x_min":76,"x_max":349,"o":"m 76 365 l 76 446 l 349 446 l 349 365 l 76 365 z "},".":{"ha":197,"x_min":42,"x_max":156,"o":"m 42 0 l 42 156 l 156 156 l 156 0 l 42 0 z "},"/":{"ha":533,"x_min":11,"x_max":472,"o":"m 378 971 l 472 971 l 106 -189 l 11 -189 l 378 971 z "},":":{"ha":197,"x_min":42,"x_max":156,"o":"m 42 518 l 42 674 l 156 674 l 156 518 l 42 518 m 42 0 l 42 156 l 156 156 l 156 0 l 42 0 z "},";":{"ha":197,"x_min":42,"x_max":156,"o":"m 42 518 l 42 674 l 156 674 l 156 518 l 42 518 m 42 156 l 156 156 l 156 75 l 79 -190 l 42 -190 l 42 156 z "},"<":{"ha":542,"x_min":42,"x_max":500,"o":"m 500 554 l 129 432 l 500 310 l 500 218 l 42 378 l 42 486 l 500 646 l 500 554 z "},"=":{"ha":542,"x_min":42,"x_max":500,"o":"m 42 269 l 42 356 l 500 356 l 500 269 l 42 269 m 42 508 l 42 594 l 500 594 l 500 508 l 42 508 z "},">":{"ha":542,"x_min":42,"x_max":500,"o":"m 413 432 l 42 554 l 42 646 l 500 486 l 500 378 l 42 218 l 42 310 l 413 432 z "},"?":{"ha":428,"x_min":28,"x_max":365,"o":"m 138 864 l 256 864 q 365 757 365 864 l 365 474 q 256 365 365 365 l 231 365 l 226 272 l 147 272 l 139 447 l 231 447 q 263 456 256 447 q 269 492 269 465 l 269 738 q 263 774 269 764 q 231 783 256 783 l 164 783 q 131 774 138 783 q 124 738 124 764 l 124 638 l 28 638 l 28 757 q 138 864 28 864 m 129 0 l 129 156 l 243 156 l 243 0 l 129 0 z "},"@":{"ha":904,"x_min":118,"x_max":840,"o":"m 414 468 l 414 238 q 422 203 414 211 q 457 194 431 194 l 499 194 q 535 206 524 194 q 546 244 546 217 l 546 461 q 535 500 546 489 q 499 511 524 511 l 457 511 q 422 503 431 511 q 414 468 414 494 m 318 483 q 428 593 318 593 l 469 593 q 546 546 531 593 l 546 593 l 640 593 l 640 194 l 703 194 q 738 203 731 194 q 746 238 746 211 l 746 654 q 738 690 746 682 q 703 699 729 699 l 257 699 q 222 690 231 699 q 214 654 214 682 l 214 43 q 222 8 214 17 q 257 0 231 0 l 642 0 l 642 -85 l 228 -85 q 118 25 118 -85 l 118 674 q 228 783 118 783 l 731 783 q 840 674 840 783 l 840 222 q 731 113 840 113 l 556 113 l 556 181 q 469 113 549 113 l 428 113 q 318 222 318 113 l 318 483 z "},"A":{"ha":476,"x_min":21,"x_max":456,"o":"m 360 0 l 324 219 l 149 219 l 117 0 l 21 0 l 156 864 l 307 864 l 456 0 l 360 0 m 160 301 l 311 301 l 231 797 l 160 301 z "},"B":{"ha":529,"x_min":76,"x_max":460,"o":"m 364 525 l 364 739 q 356 774 364 767 q 321 782 347 782 l 172 782 l 172 482 l 321 482 q 356 490 347 482 q 364 525 364 497 m 364 125 l 364 357 q 356 392 364 383 q 321 400 347 400 l 172 400 l 172 82 l 321 82 q 356 90 347 82 q 364 125 364 97 m 76 864 l 350 864 q 460 754 460 864 l 460 506 q 408 438 460 442 q 460 374 460 429 l 460 110 q 350 0 460 0 l 76 0 l 76 864 z "},"C":{"ha":479,"x_min":69,"x_max":424,"o":"m 424 608 l 328 608 l 328 739 q 319 774 328 767 q 285 782 311 782 l 208 782 q 173 774 181 782 q 165 739 165 767 l 165 124 q 173 89 165 97 q 208 81 181 81 l 285 81 q 319 89 311 81 q 328 124 328 97 l 328 254 l 424 254 l 424 108 q 314 -1 424 -1 l 179 -1 q 69 108 69 -1 l 69 754 q 179 864 69 864 l 314 864 q 424 754 424 864 l 424 608 z "},"D":{"ha":529,"x_min":76,"x_max":460,"o":"m 76 864 l 350 864 q 460 754 460 864 l 460 110 q 350 0 460 0 l 76 0 l 76 864 m 364 125 l 364 739 q 356 774 364 767 q 321 782 347 782 l 172 782 l 172 82 l 321 82 q 356 90 347 82 q 364 125 364 97 z "},"E":{"ha":438,"x_min":76,"x_max":410,"o":"m 172 82 l 410 82 l 410 0 l 76 0 l 76 864 l 400 864 l 400 782 l 172 782 l 172 490 l 358 490 l 358 408 l 172 408 l 172 82 z "},"F":{"ha":421,"x_min":76,"x_max":414,"o":"m 414 782 l 172 782 l 172 476 l 358 476 l 358 394 l 172 394 l 172 0 l 76 0 l 76 864 l 414 864 l 414 782 z "},"G":{"ha":486,"x_min":69,"x_max":424,"o":"m 424 622 l 328 622 l 328 739 q 319 774 328 767 q 285 782 311 782 l 208 782 q 173 774 181 782 q 165 739 165 767 l 165 124 q 173 89 165 97 q 208 81 181 81 l 285 81 q 319 89 311 81 q 328 124 328 97 l 328 353 l 258 353 l 258 435 l 424 435 l 424 108 q 314 -1 424 -1 l 179 -1 q 69 108 69 -1 l 69 754 q 179 864 69 864 l 314 864 q 424 754 424 864 l 424 622 z "},"H":{"ha":531,"x_min":76,"x_max":454,"o":"m 358 864 l 454 864 l 454 0 l 358 0 l 358 390 l 172 390 l 172 0 l 76 0 l 76 864 l 172 864 l 172 472 l 358 472 l 358 864 z "},"I":{"ha":275,"x_min":90,"x_max":185,"o":"m 90 864 l 185 864 l 185 0 l 90 0 l 90 864 z "},"J":{"ha":418,"x_min":21,"x_max":346,"o":"m 21 267 l 117 267 l 117 125 q 125 90 117 97 q 160 82 133 82 l 207 82 q 242 90 233 82 q 250 125 250 97 l 250 864 l 346 864 l 346 110 q 236 0 346 0 l 131 0 q 21 110 21 0 l 21 267 z "},"K":{"ha":479,"x_min":76,"x_max":465,"o":"m 465 864 l 279 428 l 463 0 l 360 0 l 181 428 l 363 864 l 465 864 m 76 0 l 76 864 l 171 864 l 171 0 l 76 0 z "},"L":{"ha":376,"x_min":76,"x_max":369,"o":"m 171 82 l 369 82 l 369 0 l 76 0 l 76 864 l 171 864 l 171 82 z "},"M":{"ha":660,"x_min":76,"x_max":583,"o":"m 158 0 l 76 0 l 76 864 l 181 864 l 329 308 l 479 864 l 583 864 l 583 0 l 501 0 l 501 654 l 381 188 l 279 188 l 158 654 l 158 0 z "},"N":{"ha":524,"x_min":76,"x_max":447,"o":"m 360 864 l 447 864 l 447 0 l 343 0 l 164 669 l 164 0 l 76 0 l 76 864 l 188 864 l 360 218 l 360 864 z "},"O":{"ha":500,"x_min":69,"x_max":431,"o":"m 179 864 l 321 864 q 431 754 431 864 l 431 110 q 321 0 431 0 l 179 0 q 69 110 69 0 l 69 754 q 179 864 69 864 m 336 125 l 336 739 q 328 774 336 767 q 293 782 319 782 l 207 782 q 172 774 181 782 q 164 739 164 767 l 164 125 q 172 90 164 97 q 207 82 181 82 l 293 82 q 328 90 319 82 q 336 125 336 97 z "},"P":{"ha":479,"x_min":76,"x_max":438,"o":"m 76 864 l 328 864 q 438 754 438 864 l 438 457 q 328 347 438 347 l 171 347 l 171 0 l 76 0 l 76 864 m 343 472 l 343 739 q 335 774 343 767 q 300 782 328 782 l 171 782 l 171 429 l 300 429 q 335 437 328 429 q 343 472 343 444 z "},"Q":{"ha":500,"x_min":69,"x_max":435,"o":"m 179 0 q 69 110 69 0 l 69 754 q 179 864 69 864 l 321 864 q 431 754 431 864 l 431 110 q 344 1 431 11 l 435 -135 l 340 -135 l 253 0 l 179 0 m 164 739 l 164 125 q 172 90 164 97 q 207 82 181 82 l 293 82 q 328 90 319 82 q 336 125 336 97 l 336 739 q 328 774 336 767 q 293 782 319 782 l 207 782 q 172 774 181 782 q 164 739 164 767 z "},"R":{"ha":506,"x_min":76,"x_max":482,"o":"m 171 361 l 171 0 l 76 0 l 76 864 l 328 864 q 438 754 438 864 l 438 471 q 351 363 438 372 l 482 0 l 379 0 l 253 361 l 171 361 m 171 782 l 171 443 l 300 443 q 335 451 328 443 q 343 486 343 458 l 343 739 q 335 774 343 767 q 300 782 328 782 l 171 782 z "},"S":{"ha":454,"x_min":56,"x_max":399,"o":"m 303 125 l 303 361 q 294 397 303 389 q 260 404 286 404 l 165 404 q 56 514 56 404 l 56 754 q 165 864 56 864 l 288 864 q 397 754 397 864 l 397 621 l 301 621 l 301 739 q 294 774 301 767 q 258 782 286 782 l 194 782 q 159 774 167 782 q 151 739 151 767 l 151 529 q 159 494 151 503 q 194 486 167 486 l 289 486 q 399 376 399 486 l 399 110 q 289 0 399 0 l 168 0 q 58 110 58 0 l 58 243 l 154 243 l 154 125 q 162 90 154 97 q 197 82 169 82 l 260 82 q 294 90 286 82 q 303 125 303 97 z "},"T":{"ha":386,"x_min":7,"x_max":379,"o":"m 379 864 l 379 782 l 240 782 l 240 0 l 146 0 l 146 782 l 7 782 l 7 864 l 379 864 z "},"U":{"ha":506,"x_min":72,"x_max":433,"o":"m 339 864 l 433 864 l 433 110 q 324 0 433 0 l 182 0 q 72 110 72 0 l 72 864 l 167 864 l 167 125 q 175 90 167 97 q 210 82 183 82 l 296 82 q 331 90 322 82 q 339 125 339 97 l 339 864 z "},"V":{"ha":443,"x_min":7,"x_max":436,"o":"m 340 864 l 436 864 l 297 0 l 146 0 l 7 864 l 103 864 l 221 67 l 340 864 z "},"W":{"ha":763,"x_min":14,"x_max":749,"o":"m 653 864 l 749 864 l 622 0 l 478 0 l 381 685 l 285 0 l 140 0 l 14 864 l 110 864 l 214 67 l 324 864 l 438 864 l 547 67 l 653 864 z "},"X":{"ha":464,"x_min":7,"x_max":457,"o":"m 282 442 l 457 0 l 354 0 l 232 351 l 110 0 l 7 0 l 182 442 l 21 864 l 124 864 l 232 528 l 340 864 l 443 864 l 282 442 z "},"Y":{"ha":443,"x_min":7,"x_max":436,"o":"m 272 0 l 178 0 l 178 264 l 7 864 l 103 864 l 225 357 l 340 864 l 436 864 l 272 264 l 272 0 z "},"Z":{"ha":379,"x_min":7,"x_max":372,"o":"m 372 865 l 372 783 l 101 82 l 365 82 l 365 0 l 7 0 l 7 82 l 278 783 l 21 783 l 21 865 l 372 865 z "},"[":{"ha":429,"x_min":88,"x_max":324,"o":"m 324 1003 l 183 1003 l 183 -150 l 324 -150 l 324 -232 l 88 -232 l 88 1085 l 324 1085 l 324 1003 z "},"\\":{"ha":535,"x_min":61,"x_max":524,"o":"m 61 971 l 157 971 l 524 -189 l 428 -189 l 61 971 z "},"]":{"ha":429,"x_min":74,"x_max":310,"o":"m 310 1085 l 310 -232 l 74 -232 l 74 -150 l 214 -150 l 214 1003 l 74 1003 l 74 1085 l 310 1085 z "},"^":{"ha":615,"x_min":63,"x_max":553,"o":"m 250 932 l 365 932 l 553 454 l 453 454 l 307 839 l 163 454 l 63 454 l 250 932 z "},"_":{"ha":658,"x_min":0,"x_max":658,"o":"m 0 -143 l 0 -61 l 658 -61 l 658 -143 l 0 -143 z "},"`":{"ha":556,"x_min":168,"x_max":390,"o":"m 282 893 l 390 717 l 304 717 l 168 893 l 282 893 z "},"a":{"ha":456,"x_min":56,"x_max":393,"o":"m 297 674 l 393 674 l 393 0 l 297 0 l 297 46 q 221 0 282 0 l 165 0 q 56 110 56 0 l 56 564 q 165 674 56 674 l 221 674 q 297 628 282 674 l 297 674 m 194 82 l 250 82 q 286 93 275 82 q 297 132 297 104 l 297 542 q 286 581 297 569 q 250 592 275 592 l 194 592 q 159 583 167 592 q 151 549 151 575 l 151 125 q 159 90 151 97 q 194 82 167 82 z "},"b":{"ha":456,"x_min":63,"x_max":400,"o":"m 235 675 l 290 675 q 400 565 400 675 l 400 110 q 290 0 400 0 l 235 0 q 158 46 174 0 l 158 0 l 63 0 l 63 929 l 158 929 l 158 629 q 235 675 174 675 m 304 125 l 304 550 q 297 585 304 578 q 261 593 289 593 l 206 593 q 169 582 181 593 q 158 543 158 571 l 158 132 q 169 93 158 104 q 206 82 181 82 l 261 82 q 297 90 289 82 q 304 125 304 97 z "},"c":{"ha":451,"x_min":56,"x_max":403,"o":"m 403 474 l 307 474 l 307 549 q 299 583 307 575 q 264 592 292 592 l 194 592 q 159 583 167 592 q 151 549 151 575 l 151 125 q 159 90 151 97 q 194 82 167 82 l 264 82 q 299 90 292 82 q 307 125 307 97 l 307 200 l 403 200 l 403 110 q 293 0 403 0 l 165 0 q 56 110 56 0 l 56 564 q 165 674 56 674 l 293 674 q 403 564 403 674 l 403 474 z "},"d":{"ha":456,"x_min":56,"x_max":393,"o":"m 297 929 l 393 929 l 393 0 l 297 0 l 297 46 q 221 0 282 0 l 165 0 q 56 110 56 0 l 56 565 q 165 675 56 675 l 221 675 q 297 629 282 675 l 297 929 m 194 82 l 250 82 q 286 93 275 82 q 297 132 297 104 l 297 543 q 286 582 297 571 q 250 593 275 593 l 194 593 q 159 585 167 593 q 151 550 151 578 l 151 125 q 159 90 151 97 q 194 82 167 82 z "},"e":{"ha":458,"x_min":63,"x_max":410,"o":"m 172 674 l 300 674 q 410 564 410 674 l 410 304 l 158 304 l 158 125 q 167 90 158 97 q 201 82 175 82 l 267 82 q 302 90 294 82 q 310 125 310 97 l 310 186 l 406 186 l 406 110 q 296 0 406 0 l 172 0 q 63 110 63 0 l 63 564 q 172 674 63 674 m 158 386 l 314 386 l 314 549 q 306 583 314 575 q 271 592 297 592 l 201 592 q 167 583 175 592 q 158 549 158 575 l 158 386 z "},"f":{"ha":274,"x_min":7,"x_max":267,"o":"m 267 840 l 213 840 q 178 833 186 840 q 169 797 169 825 l 169 674 l 267 674 l 267 592 l 169 592 l 169 0 l 74 0 l 74 592 l 7 592 l 7 674 l 74 674 l 74 819 q 183 929 74 929 l 267 929 l 267 840 z "},"g":{"ha":456,"x_min":56,"x_max":393,"o":"m 297 674 l 393 674 l 393 -86 q 283 -196 393 -196 l 76 -196 l 76 -114 l 254 -114 q 289 -106 281 -114 q 297 -71 297 -97 l 297 46 q 221 0 282 0 l 165 0 q 56 110 56 0 l 56 564 q 165 674 56 674 l 221 674 q 297 628 282 674 l 297 674 m 194 82 l 250 82 q 286 93 275 82 q 297 132 297 104 l 297 542 q 286 581 297 569 q 250 592 275 592 l 194 592 q 159 583 167 592 q 151 549 151 575 l 151 125 q 159 90 151 97 q 194 82 167 82 z "},"h":{"ha":463,"x_min":63,"x_max":400,"o":"m 235 674 l 290 674 q 400 564 400 674 l 400 0 l 304 0 l 304 549 q 297 583 304 575 q 261 592 289 592 l 206 592 q 169 581 181 592 q 158 542 158 569 l 158 0 l 63 0 l 63 929 l 158 929 l 158 628 q 235 674 174 674 z "},"i":{"ha":221,"x_min":60,"x_max":161,"o":"m 60 818 l 60 931 l 161 931 l 161 818 l 60 818 m 158 0 l 63 0 l 63 674 l 158 674 l 158 0 z "},"j":{"ha":221,"x_min":0,"x_max":161,"o":"m 60 818 l 60 931 l 161 931 l 161 818 l 60 818 m 63 -71 l 63 674 l 158 674 l 158 -86 q 49 -196 158 -196 l 0 -196 l 0 -114 l 19 -114 q 55 -106 47 -114 q 63 -71 63 -97 z "},"k":{"ha":451,"x_min":63,"x_max":444,"o":"m 444 674 l 288 356 l 444 0 l 342 0 l 189 356 l 342 674 l 444 674 m 63 0 l 63 929 l 158 929 l 158 0 l 63 0 z "},"l":{"ha":221,"x_min":63,"x_max":158,"o":"m 158 0 l 63 0 l 63 929 l 158 929 l 158 0 z "},"m":{"ha":697,"x_min":63,"x_max":642,"o":"m 476 674 l 532 674 q 642 564 642 674 l 642 0 l 546 0 l 546 549 q 538 583 546 575 q 503 592 531 592 l 447 592 q 411 581 422 592 q 400 542 400 569 l 400 0 l 304 0 l 304 549 q 297 583 304 575 q 261 592 289 592 l 206 592 q 169 581 181 592 q 158 542 158 569 l 158 0 l 63 0 l 63 674 l 158 674 l 158 628 q 235 674 174 674 l 290 674 q 392 618 369 674 q 476 674 406 674 z "},"n":{"ha":463,"x_min":63,"x_max":400,"o":"m 235 674 l 290 674 q 400 564 400 674 l 400 0 l 304 0 l 304 549 q 297 583 304 575 q 261 592 289 592 l 206 592 q 169 581 181 592 q 158 542 158 569 l 158 0 l 63 0 l 63 674 l 158 674 l 158 628 q 235 674 174 674 z "},"o":{"ha":472,"x_min":56,"x_max":417,"o":"m 165 674 l 307 674 q 417 564 417 674 l 417 110 q 307 0 417 0 l 165 0 q 56 110 56 0 l 56 564 q 165 674 56 674 m 322 125 l 322 549 q 314 583 322 575 q 279 592 306 592 l 193 592 q 158 583 167 592 q 150 549 150 575 l 150 125 q 158 90 150 97 q 193 82 167 82 l 279 82 q 314 90 306 82 q 322 125 322 97 z "},"p":{"ha":456,"x_min":63,"x_max":400,"o":"m 235 674 l 290 674 q 400 564 400 674 l 400 110 q 290 0 400 0 l 235 0 q 158 46 174 0 l 158 -196 l 63 -196 l 63 674 l 158 674 l 158 628 q 235 674 174 674 m 304 125 l 304 549 q 297 583 304 575 q 261 592 289 592 l 206 592 q 169 581 181 592 q 158 542 158 569 l 158 132 q 169 93 158 104 q 206 82 181 82 l 261 82 q 297 90 289 82 q 304 125 304 97 z "},"q":{"ha":456,"x_min":56,"x_max":393,"o":"m 297 674 l 393 674 l 393 -196 l 297 -196 l 297 46 q 221 0 282 0 l 165 0 q 56 110 56 0 l 56 564 q 165 674 56 674 l 221 674 q 297 628 282 674 l 297 674 m 194 82 l 250 82 q 286 93 275 82 q 297 132 297 104 l 297 542 q 286 581 297 569 q 250 592 275 592 l 194 592 q 159 583 167 592 q 151 549 151 575 l 151 125 q 159 90 151 97 q 194 82 167 82 z "},"r":{"ha":294,"x_min":63,"x_max":288,"o":"m 258 674 l 288 674 l 288 590 l 246 590 q 158 486 158 590 l 158 0 l 63 0 l 63 674 l 158 674 l 158 596 q 195 651 169 628 q 258 674 221 674 z "},"s":{"ha":413,"x_min":49,"x_max":364,"o":"m 269 124 l 269 251 q 261 286 269 278 q 226 294 253 294 l 158 294 q 49 404 49 294 l 49 564 q 158 674 49 674 l 253 674 q 363 564 363 674 l 363 496 l 268 496 l 268 550 q 260 585 268 578 q 225 593 253 593 l 186 593 q 151 585 158 593 q 143 550 143 578 l 143 418 q 151 383 143 392 q 186 375 158 375 l 254 375 q 364 265 364 375 l 364 110 q 254 0 364 0 l 161 0 q 51 110 51 0 l 51 178 l 146 178 l 146 124 q 153 89 146 97 q 189 81 161 81 l 226 81 q 261 89 253 81 q 269 124 269 97 z "},"t":{"ha":274,"x_min":7,"x_max":260,"o":"m 260 592 l 164 592 l 164 132 q 172 97 164 106 q 207 89 181 89 l 260 89 l 260 0 l 178 0 q 68 110 68 0 l 68 592 l 7 592 l 7 674 l 68 674 l 68 783 l 164 783 l 164 674 l 260 674 l 260 592 z "},"u":{"ha":463,"x_min":63,"x_max":400,"o":"m 304 674 l 400 674 l 400 0 l 304 0 l 304 46 q 228 0 289 0 l 172 0 q 63 110 63 0 l 63 674 l 158 674 l 158 125 q 167 90 158 97 q 201 82 175 82 l 257 82 q 293 93 282 82 q 304 132 304 104 l 304 674 z "},"v":{"ha":388,"x_min":7,"x_max":381,"o":"m 103 674 l 193 67 l 285 674 l 381 674 l 269 0 l 118 0 l 7 674 l 103 674 z "},"w":{"ha":704,"x_min":7,"x_max":697,"o":"m 606 674 l 697 674 l 578 0 l 432 0 l 351 540 l 272 0 l 126 0 l 7 674 l 99 674 l 199 67 l 286 674 l 418 674 l 504 67 l 606 674 z "},"x":{"ha":436,"x_min":7,"x_max":429,"o":"m 261 344 l 429 0 l 326 0 l 218 243 l 110 0 l 7 0 l 175 344 l 21 674 l 124 674 l 219 444 l 313 674 l 415 674 l 261 344 z "},"y":{"ha":429,"x_min":14,"x_max":415,"o":"m 149 -196 l 74 -196 l 74 -114 l 119 -114 q 189 -71 179 -114 l 206 0 l 143 0 l 14 674 l 110 674 l 218 67 l 319 674 l 415 674 l 281 -86 q 149 -196 260 -196 z "},"z":{"ha":369,"x_min":21,"x_max":349,"o":"m 349 674 l 349 592 l 117 82 l 349 82 l 349 0 l 21 0 l 21 82 l 253 592 l 35 592 l 35 674 l 349 674 z "},"{":{"ha":376,"x_min":7,"x_max":367,"o":"m 250 957 l 250 594 q 146 428 250 440 q 250 263 250 414 l 250 -103 q 260 -138 250 -128 q 297 -149 271 -149 l 367 -149 l 367 -231 l 251 -231 q 176 -203 196 -231 q 156 -122 156 -176 l 156 226 q 126 349 156 310 q 33 388 97 388 l 7 388 l 7 468 l 33 468 q 126 507 97 468 q 156 631 156 546 l 156 976 q 176 1058 156 1031 q 251 1085 197 1085 l 367 1085 l 367 1003 l 297 1003 q 260 992 271 1003 q 250 957 250 982 z "},"|":{"ha":249,"x_min":76,"x_max":172,"o":"m 76 999 l 172 999 l 172 -136 l 76 -136 l 76 999 z "},"}":{"ha":376,"x_min":8,"x_max":368,"o":"m 125 594 l 125 957 q 115 992 125 982 q 78 1003 104 1003 l 8 1003 l 8 1085 l 124 1085 q 199 1058 178 1085 q 219 976 219 1031 l 219 631 q 249 507 219 546 q 342 468 278 468 l 368 468 l 368 388 l 342 388 q 249 349 278 388 q 219 226 219 310 l 219 -122 q 199 -203 219 -176 q 124 -231 179 -231 l 8 -231 l 8 -149 l 78 -149 q 115 -138 104 -149 q 125 -103 125 -128 l 125 263 q 229 428 125 414 q 125 594 125 440 z "},"~":{"ha":656,"x_min":72,"x_max":586,"o":"m 442 300 q 363 318 397 300 q 308 357 328 336 q 203 414 258 414 q 169 402 178 414 q 161 367 161 390 l 161 301 l 72 301 l 72 385 q 179 490 72 490 l 219 490 q 289 472 257 490 q 340 433 321 454 q 392 394 360 413 q 453 376 424 376 q 490 388 483 376 q 497 425 497 399 l 497 489 l 586 489 l 586 406 q 478 300 586 300 l 442 300 z "}," ":{"ha":181,"x_min":0,"x_max":0,"o":""},"¡":{"ha":257,"x_min":69,"x_max":188,"o":"m 188 -190 l 69 -190 l 88 401 l 169 401 l 188 -190 m 71 518 l 71 674 l 185 674 l 185 518 l 71 518 z "},"¢":{"ha":451,"x_min":56,"x_max":403,"o":"m 403 474 l 307 474 l 307 549 q 299 583 307 575 q 264 592 292 592 l 194 592 q 159 583 167 592 q 151 549 151 575 l 151 125 q 159 90 151 97 q 194 82 167 82 l 264 82 q 299 90 292 82 q 307 125 307 97 l 307 200 l 403 200 l 403 110 q 293 0 403 0 l 279 0 l 279 -104 l 189 -104 l 189 0 l 165 0 q 56 110 56 0 l 56 564 q 165 674 56 674 l 189 674 l 189 779 l 279 779 l 279 674 l 293 674 q 403 564 403 674 l 403 474 z "},"£":{"ha":493,"x_min":49,"x_max":458,"o":"m 458 82 l 458 0 l 49 0 l 49 82 q 101 115 85 82 q 117 218 117 147 l 117 379 l 49 379 l 49 461 l 117 461 l 117 754 q 226 864 117 864 l 343 864 q 453 754 453 864 l 453 628 l 358 628 l 358 739 q 350 774 358 767 q 315 782 342 782 l 256 782 q 220 774 228 782 q 213 739 213 767 l 213 461 l 389 461 l 389 379 l 213 379 l 213 197 q 176 82 213 104 l 458 82 z "},"¤":{"ha":631,"x_min":90,"x_max":560,"o":"m 511 565 l 511 264 q 503 213 511 233 l 560 157 l 496 93 l 432 157 q 401 154 413 154 l 260 154 q 221 158 238 154 l 154 93 l 90 157 l 156 221 q 150 264 150 238 l 150 565 q 156 610 150 593 l 90 675 l 154 739 l 222 671 q 260 675 239 675 l 401 675 q 429 674 421 675 l 496 739 l 560 675 l 503 618 q 511 565 511 597 m 288 236 l 374 236 q 408 244 400 236 q 417 279 417 253 l 417 550 q 408 585 417 578 q 374 593 400 593 l 288 593 q 253 585 261 593 q 244 550 244 578 l 244 279 q 253 244 244 253 q 288 236 261 236 z "},"¥":{"ha":478,"x_min":21,"x_max":457,"o":"m 454 472 l 454 390 l 322 390 l 296 299 l 454 299 l 454 221 l 286 221 l 286 0 l 192 0 l 192 221 l 24 221 l 24 299 l 182 299 l 156 390 l 24 390 l 24 472 l 132 472 l 21 864 l 115 864 l 239 382 l 363 864 l 457 864 l 346 472 l 454 472 z "},"¦":{"ha":249,"x_min":76,"x_max":172,"o":"m 172 519 l 76 519 l 76 999 l 172 999 l 172 519 m 76 343 l 172 343 l 172 -136 l 76 -136 l 76 343 z "},"§":{"ha":538,"x_min":69,"x_max":468,"o":"m 264 631 l 358 631 q 468 521 468 631 l 468 406 q 401 285 468 301 q 413 226 413 260 l 413 67 q 303 -43 413 -43 l 181 -43 q 71 67 71 -43 l 71 135 l 167 135 l 167 82 q 175 47 167 56 q 210 39 183 39 l 274 39 q 308 47 300 39 q 317 82 317 56 l 317 211 q 308 247 317 239 q 274 254 300 254 l 179 254 q 69 364 69 254 l 69 479 q 136 600 69 583 q 125 658 125 625 l 125 818 q 235 928 125 928 l 357 928 q 467 818 467 928 l 467 750 l 371 750 l 371 803 q 363 838 371 831 q 328 846 356 846 l 264 846 q 228 838 236 846 q 221 803 221 831 l 221 674 q 228 639 221 647 q 264 631 236 631 m 208 336 l 329 336 q 364 344 356 336 q 372 379 372 353 l 372 506 q 364 541 372 533 q 329 549 356 549 l 208 549 q 173 541 181 549 q 165 506 165 533 l 165 379 q 173 344 165 353 q 208 336 181 336 z "},"¨":{"ha":556,"x_min":94,"x_max":461,"o":"m 339 751 l 339 868 l 461 868 l 461 751 l 339 751 m 94 751 l 94 868 l 217 868 l 217 751 l 94 751 z "},"©":{"ha":947,"x_min":68,"x_max":904,"o":"m 564 333 l 564 367 l 660 367 l 660 318 q 550 208 660 208 l 422 208 q 313 318 313 208 l 313 564 q 422 674 313 674 l 550 674 q 660 564 660 674 l 660 515 l 564 515 l 564 549 q 556 583 564 575 q 521 592 547 592 l 451 592 q 417 583 425 592 q 408 549 408 575 l 408 333 q 417 298 408 306 q 451 290 425 290 l 521 290 q 556 298 547 290 q 564 333 564 306 m 357 83 l 615 83 q 811 375 811 83 l 811 476 q 615 783 811 783 l 357 783 q 161 476 161 783 l 161 375 q 357 83 161 83 m 904 475 l 904 376 q 835 92 904 183 q 618 0 767 0 l 354 0 q 137 92 206 0 q 68 376 68 183 l 68 475 q 138 767 68 671 q 354 864 207 864 l 618 864 q 835 767 765 864 q 904 475 904 671 z "},"ª":{"ha":328,"x_min":35,"x_max":286,"o":"m 218 864 l 286 864 l 286 389 l 218 389 l 218 422 q 164 389 207 389 l 113 389 q 35 467 35 389 l 35 786 q 113 864 35 864 l 164 864 q 218 831 207 864 l 218 864 m 133 449 l 185 449 q 210 456 203 449 q 218 483 218 464 l 218 769 q 185 806 218 806 l 133 806 q 108 800 114 806 q 101 775 101 794 l 101 479 q 108 454 101 460 q 133 449 114 449 z "},"«":{"ha":676,"x_min":60,"x_max":613,"o":"m 506 147 l 338 364 l 506 581 l 613 581 l 440 363 l 613 147 l 506 147 m 228 147 l 60 364 l 228 581 l 335 581 l 163 363 l 335 147 l 228 147 z "},"¬":{"ha":600,"x_min":42,"x_max":544,"o":"m 544 549 l 544 246 l 463 246 l 463 454 l 42 454 l 42 549 l 544 549 z "},"­":{"ha":426,"x_min":76,"x_max":349,"o":"m 76 365 l 76 446 l 349 446 l 349 365 l 76 365 z "},"®":{"ha":551,"x_min":49,"x_max":503,"o":"m 300 732 l 300 815 q 292 825 300 825 l 254 825 l 254 724 l 292 724 q 300 732 300 724 m 211 861 l 300 861 q 343 819 343 861 l 343 728 q 314 686 343 692 l 358 565 l 314 565 l 271 685 l 254 685 l 254 565 l 211 565 l 211 861 m 206 522 l 347 522 q 453 679 453 522 l 453 735 q 347 903 453 903 l 206 903 q 100 735 100 903 l 100 679 q 206 522 100 522 m 503 735 l 503 681 q 465 526 503 576 q 347 476 428 476 l 204 476 q 86 526 124 476 q 49 681 49 576 l 49 735 q 204 946 49 946 l 347 946 q 503 735 503 946 z "},"¯":{"ha":556,"x_min":114,"x_max":442,"o":"m 114 764 l 114 844 l 442 844 l 442 764 l 114 764 z "},"°":{"ha":494,"x_min":81,"x_max":406,"o":"m 317 610 l 317 744 q 308 778 317 771 q 274 786 300 786 l 213 786 q 178 778 186 786 q 169 744 169 771 l 169 610 q 178 576 169 583 q 213 568 186 568 l 274 568 q 308 576 300 568 q 317 610 317 583 m 406 757 l 406 597 q 299 490 406 490 l 188 490 q 81 597 81 490 l 81 757 q 188 864 81 864 l 299 864 q 406 757 406 864 z "},"±":{"ha":542,"x_min":42,"x_max":500,"o":"m 319 568 l 500 568 l 500 485 l 319 485 l 319 374 l 222 374 l 222 485 l 42 485 l 42 568 l 222 568 l 222 679 l 319 679 l 319 568 m 42 249 l 42 332 l 500 332 l 500 249 l 42 249 z "},"²":{"ha":249,"x_min":19,"x_max":231,"o":"m 85 782 l 85 711 l 19 711 l 19 804 q 79 864 19 864 l 167 864 q 226 804 226 864 l 226 761 q 204 654 226 697 l 94 451 l 231 451 l 231 389 l 19 389 l 19 450 l 139 669 q 160 765 160 708 l 160 782 q 155 801 160 797 q 136 806 150 806 l 108 806 q 90 801 94 806 q 85 782 85 797 z "},"³":{"ha":272,"x_min":22,"x_max":236,"o":"m 89 782 l 89 718 l 22 718 l 22 804 q 83 864 22 864 l 175 864 q 236 804 236 864 l 236 667 q 207 631 236 633 q 236 594 236 626 l 236 449 q 175 389 236 389 l 83 389 q 22 449 22 389 l 22 535 l 89 535 l 89 472 q 93 452 89 457 q 113 447 97 447 l 146 447 q 165 452 161 447 q 169 472 169 457 l 169 576 q 165 596 169 592 q 146 600 161 600 l 104 600 l 104 660 l 146 660 q 165 665 161 660 q 169 683 169 669 l 169 782 q 165 801 169 797 q 146 806 161 806 l 113 806 q 93 801 97 806 q 89 782 89 797 z "},"´":{"ha":556,"x_min":164,"x_max":386,"o":"m 164 717 l 272 893 l 386 893 l 250 717 l 164 717 z "},"µ":{"ha":471,"x_min":56,"x_max":393,"o":"m 297 674 l 393 674 l 393 0 l 297 0 l 297 46 q 221 0 282 0 l 151 0 l 151 -196 l 56 -196 l 56 674 l 151 674 l 151 125 q 159 90 151 97 q 194 82 167 82 l 250 82 q 286 93 275 82 q 297 132 297 104 l 297 674 z "},"¶":{"ha":681,"x_min":76,"x_max":590,"o":"m 496 864 l 590 864 l 590 -196 l 496 -196 l 496 864 m 382 864 l 382 -196 l 288 -196 l 288 319 l 186 319 q 76 429 76 319 l 76 754 q 186 864 76 864 l 382 864 z "},"·":{"ha":281,"x_min":42,"x_max":156,"o":"m 42 360 l 42 515 l 156 515 l 156 360 l 42 360 z "},"¸":{"ha":556,"x_min":189,"x_max":379,"o":"m 289 -101 l 289 -71 l 379 -71 l 379 -110 q 347 -202 379 -171 q 256 -233 314 -233 l 189 -233 l 189 -153 l 240 -153 q 278 -141 267 -153 q 289 -101 289 -129 z "},"¹":{"ha":175,"x_min":15,"x_max":133,"o":"m 133 864 l 133 389 l 67 389 l 67 806 l 15 806 l 15 864 l 133 864 z "},"º":{"ha":314,"x_min":36,"x_max":278,"o":"m 114 864 l 200 864 q 278 786 278 864 l 278 467 q 200 389 278 389 l 114 389 q 36 467 36 389 l 36 786 q 114 864 36 864 m 211 478 l 211 775 q 205 800 211 794 q 179 806 199 806 l 133 806 q 108 800 114 806 q 103 775 103 794 l 103 478 q 108 453 103 458 q 133 447 114 447 l 179 447 q 205 453 199 447 q 211 478 211 458 z "},"»":{"ha":676,"x_min":60,"x_max":613,"o":"m 613 364 l 444 147 l 338 147 l 510 363 l 338 581 l 444 581 l 613 364 m 335 364 l 167 147 l 60 147 l 232 363 l 60 581 l 167 581 l 335 364 z "},"¿":{"ha":428,"x_min":28,"x_max":365,"o":"m 269 36 l 365 36 l 365 -83 q 256 -190 365 -190 l 138 -190 q 28 -83 28 -190 l 28 200 q 138 308 28 308 l 163 308 l 167 401 l 246 401 l 254 226 l 163 226 q 131 217 138 226 q 124 182 124 208 l 124 -64 q 131 -100 124 -90 q 163 -110 138 -110 l 229 -110 q 263 -100 256 -110 q 269 -64 269 -90 l 269 36 m 264 674 l 264 518 l 150 518 l 150 674 l 264 674 z "},"À":{"ha":476,"x_min":21,"x_max":456,"o":"m 360 0 l 324 219 l 149 219 l 117 0 l 21 0 l 156 864 l 307 864 l 456 0 l 360 0 m 160 301 l 311 301 l 231 797 l 160 301 m 265 907 l 179 907 l 43 1083 l 157 1083 l 265 907 z "},"Á":{"ha":476,"x_min":21,"x_max":456,"o":"m 360 0 l 324 219 l 149 219 l 117 0 l 21 0 l 156 864 l 307 864 l 456 0 l 360 0 m 160 301 l 311 301 l 231 797 l 160 301 m 410 1083 l 274 907 l 188 907 l 296 1083 l 410 1083 z "},"Â":{"ha":476,"x_min":21,"x_max":456,"o":"m 360 0 l 324 219 l 149 219 l 117 0 l 21 0 l 156 864 l 307 864 l 456 0 l 360 0 m 160 301 l 311 301 l 231 797 l 160 301 m 231 1024 l 158 907 l 53 907 l 171 1083 l 292 1083 l 410 907 l 304 907 l 231 1024 z "},"Ã":{"ha":476,"x_min":21,"x_max":456,"o":"m 360 0 l 324 219 l 149 219 l 117 0 l 21 0 l 156 864 l 307 864 l 456 0 l 360 0 m 160 301 l 311 301 l 231 797 l 160 301 m 143 922 l 143 907 l 57 907 l 57 926 q 80 1005 57 978 q 157 1032 103 1032 l 165 1032 q 238 1008 197 1032 q 292 983 278 983 q 313 990 307 983 q 318 1018 318 997 l 318 1032 l 404 1032 l 404 1013 q 383 934 404 961 q 306 907 361 907 l 299 907 q 223 931 265 907 q 167 956 181 956 q 143 922 143 956 z "},"Ä":{"ha":476,"x_min":21,"x_max":456,"o":"m 360 0 l 324 219 l 149 219 l 117 0 l 21 0 l 156 864 l 307 864 l 456 0 l 360 0 m 160 301 l 311 301 l 231 797 l 160 301 m 169 1024 l 169 907 l 47 907 l 47 1024 l 169 1024 m 414 1024 l 414 907 l 292 907 l 292 1024 l 414 1024 z "},"Å":{"ha":476,"x_min":21,"x_max":456,"o":"m 360 0 l 324 219 l 149 219 l 117 0 l 21 0 l 156 864 l 307 864 l 456 0 l 360 0 m 160 301 l 311 301 l 231 797 l 160 301 m 272 907 l 189 907 q 99 997 99 907 l 99 1021 q 189 1111 99 1111 l 272 1111 q 363 1021 363 1111 l 363 997 q 272 907 363 907 m 169 1013 l 169 1006 q 176 975 169 982 q 208 968 183 968 l 253 968 q 285 975 278 968 q 292 1006 292 982 l 292 1013 q 285 1043 292 1036 q 253 1050 278 1050 l 208 1050 q 176 1043 183 1050 q 169 1013 169 1036 z "},"Æ":{"ha":733,"x_min":19,"x_max":700,"o":"m 463 82 l 700 82 l 700 0 l 367 0 l 367 219 l 193 219 l 115 0 l 19 0 l 333 864 l 690 864 l 690 782 l 463 782 l 463 490 l 649 490 l 649 408 l 463 408 l 463 82 m 367 301 l 367 707 l 222 301 l 367 301 z "},"Ç":{"ha":479,"x_min":69,"x_max":424,"o":"m 424 608 l 328 608 l 328 739 q 319 774 328 767 q 285 782 311 782 l 208 782 q 173 774 181 782 q 165 739 165 767 l 165 124 q 173 89 165 97 q 208 81 181 81 l 285 81 q 319 89 311 81 q 328 124 328 97 l 328 254 l 424 254 l 424 108 q 314 -1 424 -1 l 179 -1 q 69 108 69 -1 l 69 754 q 179 864 69 864 l 314 864 q 424 754 424 864 l 424 608 m 207 -101 l 207 -71 l 297 -71 l 297 -110 q 265 -202 297 -171 q 174 -233 232 -233 l 107 -233 l 107 -153 l 158 -153 q 196 -141 185 -153 q 207 -101 207 -129 z "},"È":{"ha":438,"x_min":58,"x_max":410,"o":"m 172 82 l 410 82 l 410 0 l 76 0 l 76 864 l 400 864 l 400 782 l 172 782 l 172 490 l 358 490 l 358 408 l 172 408 l 172 82 m 281 907 l 194 907 l 58 1083 l 172 1083 l 281 907 z "},"É":{"ha":438,"x_min":76,"x_max":411,"o":"m 172 408 l 172 82 l 410 82 l 410 0 l 76 0 l 76 864 l 400 864 l 400 782 l 172 782 l 172 490 l 358 490 l 358 408 l 172 408 m 411 1083 l 275 907 l 189 907 l 297 1083 l 411 1083 z "},"Ê":{"ha":438,"x_min":61,"x_max":418,"o":"m 172 408 l 172 82 l 410 82 l 410 0 l 76 0 l 76 864 l 400 864 l 400 782 l 172 782 l 172 490 l 358 490 l 358 408 l 172 408 m 239 1024 l 167 907 l 61 907 l 179 1083 l 300 1083 l 418 907 l 313 907 l 239 1024 z "},"Ë":{"ha":438,"x_min":51,"x_max":418,"o":"m 296 1024 l 418 1024 l 418 907 l 296 907 l 296 1024 m 172 408 l 172 82 l 410 82 l 410 0 l 76 0 l 76 864 l 400 864 l 400 782 l 172 782 l 172 490 l 358 490 l 358 408 l 172 408 m 174 1024 l 174 907 l 51 907 l 51 1024 l 174 1024 z "},"Ì":{"ha":275,"x_min":-42,"x_max":185,"o":"m 72 1083 l 181 907 l 94 907 l -42 1083 l 72 1083 m 90 864 l 185 864 l 185 0 l 90 0 l 90 864 z "},"Í":{"ha":275,"x_min":90,"x_max":322,"o":"m 100 907 l 208 1083 l 322 1083 l 186 907 l 100 907 m 90 864 l 185 864 l 185 0 l 90 0 l 90 864 z "},"Î":{"ha":275,"x_min":-39,"x_max":318,"o":"m -39 907 l 79 1083 l 200 1083 l 318 907 l 213 907 l 139 1024 l 67 907 l -39 907 m 90 864 l 185 864 l 185 0 l 90 0 l 90 864 z "},"Ï":{"ha":275,"x_min":-49,"x_max":318,"o":"m 90 864 l 185 864 l 185 0 l 90 0 l 90 864 m 196 907 l 196 1024 l 318 1024 l 318 907 l 196 907 m -49 907 l -49 1024 l 74 1024 l 74 907 l -49 907 z "},"Ð":{"ha":529,"x_min":7,"x_max":460,"o":"m 76 864 l 350 864 q 460 754 460 864 l 460 110 q 350 0 460 0 l 76 0 l 76 393 l 7 393 l 7 475 l 76 475 l 76 864 m 364 125 l 364 739 q 356 774 364 767 q 321 782 347 782 l 172 782 l 172 475 l 283 475 l 283 393 l 172 393 l 172 82 l 321 82 q 356 90 347 82 q 364 125 364 97 z "},"Ñ":{"ha":524,"x_min":76,"x_max":447,"o":"m 329 907 q 253 931 296 907 q 197 956 211 956 q 174 922 174 956 l 174 907 l 88 907 l 88 926 q 110 1005 88 978 q 188 1032 133 1032 l 196 1032 q 268 1008 228 1032 q 323 983 308 983 q 343 990 338 983 q 349 1018 349 997 l 349 1032 l 435 1032 l 435 1013 q 413 934 435 961 q 336 907 392 907 l 329 907 m 360 864 l 447 864 l 447 0 l 343 0 l 164 669 l 164 0 l 76 0 l 76 864 l 188 864 l 360 218 l 360 864 z "},"Ò":{"ha":500,"x_min":56,"x_max":431,"o":"m 179 864 l 321 864 q 431 754 431 864 l 431 110 q 321 0 431 0 l 179 0 q 69 110 69 0 l 69 754 q 179 864 69 864 m 336 125 l 336 739 q 328 774 336 767 q 293 782 319 782 l 207 782 q 172 774 181 782 q 164 739 164 767 l 164 125 q 172 90 164 97 q 207 82 181 82 l 293 82 q 328 90 319 82 q 336 125 336 97 m 278 907 l 192 907 l 56 1083 l 169 1083 l 278 907 z "},"Ó":{"ha":500,"x_min":69,"x_max":431,"o":"m 179 864 l 321 864 q 431 754 431 864 l 431 110 q 321 0 431 0 l 179 0 q 69 110 69 0 l 69 754 q 179 864 69 864 m 336 125 l 336 739 q 328 774 336 767 q 293 782 319 782 l 207 782 q 172 774 181 782 q 164 739 164 767 l 164 125 q 172 90 164 97 q 207 82 181 82 l 293 82 q 328 90 319 82 q 336 125 336 97 m 417 1083 l 281 907 l 194 907 l 303 1083 l 417 1083 z "},"Ô":{"ha":500,"x_min":69,"x_max":431,"o":"m 179 864 l 321 864 q 431 754 431 864 l 431 110 q 321 0 431 0 l 179 0 q 69 110 69 0 l 69 754 q 179 864 69 864 m 336 125 l 336 739 q 328 774 336 767 q 293 782 319 782 l 207 782 q 172 774 181 782 q 164 739 164 767 l 164 125 q 172 90 164 97 q 207 82 181 82 l 293 82 q 328 90 319 82 q 336 125 336 97 m 249 1024 l 176 907 l 71 907 l 189 1083 l 310 1083 l 428 907 l 322 907 l 249 1024 z "},"Õ":{"ha":500,"x_min":69,"x_max":431,"o":"m 179 864 l 321 864 q 431 754 431 864 l 431 110 q 321 0 431 0 l 179 0 q 69 110 69 0 l 69 754 q 179 864 69 864 m 336 125 l 336 739 q 328 774 336 767 q 293 782 319 782 l 207 782 q 172 774 181 782 q 164 739 164 767 l 164 125 q 172 90 164 97 q 207 82 181 82 l 293 82 q 328 90 319 82 q 336 125 336 97 m 161 922 l 161 907 l 75 907 l 75 926 q 98 1005 75 978 q 175 1032 121 1032 l 183 1032 q 256 1008 215 1032 q 310 983 296 983 q 331 990 325 983 q 336 1018 336 997 l 336 1032 l 422 1032 l 422 1013 q 401 934 422 961 q 324 907 379 907 l 317 907 q 241 931 283 907 q 185 956 199 956 q 161 922 161 956 z "},"Ö":{"ha":500,"x_min":67,"x_max":433,"o":"m 311 1024 l 433 1024 l 433 907 l 311 907 l 311 1024 m 179 864 l 321 864 q 431 754 431 864 l 431 110 q 321 0 431 0 l 179 0 q 69 110 69 0 l 69 754 q 179 864 69 864 m 336 125 l 336 739 q 328 774 336 767 q 293 782 319 782 l 207 782 q 172 774 181 782 q 164 739 164 767 l 164 125 q 172 90 164 97 q 207 82 181 82 l 293 82 q 328 90 319 82 q 336 125 336 97 m 189 1024 l 189 907 l 67 907 l 67 1024 l 189 1024 z "},"×":{"ha":486,"x_min":35,"x_max":451,"o":"m 451 578 l 306 432 l 451 286 l 389 224 l 243 369 l 97 224 l 35 286 l 181 432 l 35 578 l 97 640 l 243 494 l 389 640 l 451 578 z "},"Ø":{"ha":514,"x_min":76,"x_max":438,"o":"m 438 754 l 438 110 q 328 0 438 0 l 186 0 q 153 3 172 0 l 143 -28 l 76 -28 l 97 35 q 76 110 76 61 l 76 754 q 186 864 76 864 l 328 864 q 361 861 342 864 l 371 892 l 438 892 l 417 829 q 438 754 438 803 m 169 743 l 169 263 l 335 779 q 300 786 326 786 l 213 786 q 178 778 186 786 q 169 743 169 769 m 344 121 l 344 601 l 179 85 q 213 78 186 78 l 300 78 q 336 85 328 78 q 344 121 344 93 z "},"Ù":{"ha":506,"x_min":72,"x_max":433,"o":"m 339 864 l 433 864 l 433 110 q 324 0 433 0 l 182 0 q 72 110 72 0 l 72 864 l 167 864 l 167 125 q 175 90 167 97 q 210 82 183 82 l 296 82 q 331 90 322 82 q 339 125 339 97 l 339 864 m 296 907 l 210 907 l 74 1083 l 188 1083 l 296 907 z "},"Ú":{"ha":506,"x_min":72,"x_max":433,"o":"m 339 864 l 433 864 l 433 110 q 324 0 433 0 l 182 0 q 72 110 72 0 l 72 864 l 167 864 l 167 125 q 175 90 167 97 q 210 82 183 82 l 296 82 q 331 90 322 82 q 339 125 339 97 l 339 864 m 431 1083 l 294 907 l 208 907 l 317 1083 l 431 1083 z "},"Û":{"ha":506,"x_min":72,"x_max":433,"o":"m 339 864 l 433 864 l 433 110 q 324 0 433 0 l 182 0 q 72 110 72 0 l 72 864 l 167 864 l 167 125 q 175 90 167 97 q 210 82 183 82 l 296 82 q 331 90 322 82 q 339 125 339 97 l 339 864 m 251 1024 l 179 907 l 74 907 l 192 1083 l 313 1083 l 431 907 l 325 907 l 251 1024 z "},"Ü":{"ha":506,"x_min":69,"x_max":436,"o":"m 314 1024 l 436 1024 l 436 907 l 314 907 l 314 1024 m 339 125 l 339 864 l 433 864 l 433 110 q 324 0 433 0 l 182 0 q 72 110 72 0 l 72 864 l 167 864 l 167 125 q 175 90 167 97 q 210 82 183 82 l 296 82 q 331 90 322 82 q 339 125 339 97 m 192 1024 l 192 907 l 69 907 l 69 1024 l 192 1024 z "},"Ý":{"ha":443,"x_min":7,"x_max":436,"o":"m 272 0 l 178 0 l 178 264 l 7 864 l 103 864 l 225 357 l 340 864 l 436 864 l 272 264 l 272 0 m 404 1083 l 268 907 l 182 907 l 290 1083 l 404 1083 z "},"Þ":{"ha":479,"x_min":76,"x_max":438,"o":"m 171 690 l 328 690 q 438 581 438 690 l 438 283 q 328 174 438 174 l 171 174 l 171 0 l 76 0 l 76 864 l 171 864 l 171 690 m 343 299 l 343 565 q 335 600 343 592 q 300 608 328 608 l 171 608 l 171 256 l 300 256 q 335 264 328 256 q 343 299 343 272 z "},"ß":{"ha":589,"x_min":63,"x_max":540,"o":"m 256 206 l 349 206 l 349 124 q 356 89 349 97 q 392 81 364 81 l 404 81 q 439 89 431 81 q 447 124 447 97 l 447 251 q 439 286 447 278 q 404 294 431 294 l 363 294 q 253 404 253 294 l 253 494 q 357 604 253 604 q 403 610 393 604 q 413 639 413 617 l 413 688 q 404 724 413 715 q 369 732 396 732 l 201 732 q 166 723 175 732 q 157 688 157 714 l 157 0 l 63 0 l 63 708 q 172 818 63 818 l 394 818 q 504 708 504 818 l 504 614 q 479 547 504 571 q 410 524 454 524 l 389 524 q 353 515 361 524 q 344 481 344 507 l 344 418 q 353 383 344 392 q 389 375 361 375 l 431 375 q 540 265 540 375 l 540 110 q 431 0 540 0 l 365 0 q 256 110 256 0 l 256 206 z "},"à":{"ha":456,"x_min":56,"x_max":393,"o":"m 297 674 l 393 674 l 393 0 l 297 0 l 297 46 q 221 0 282 0 l 165 0 q 56 110 56 0 l 56 564 q 165 674 56 674 l 221 674 q 297 628 282 674 l 297 674 m 194 82 l 250 82 q 286 93 275 82 q 297 132 297 104 l 297 542 q 286 581 297 569 q 250 592 275 592 l 194 592 q 159 583 167 592 q 151 549 151 575 l 151 125 q 159 90 151 97 q 194 82 167 82 m 307 717 l 221 717 l 85 893 l 199 893 l 307 717 z "},"á":{"ha":456,"x_min":56,"x_max":414,"o":"m 297 674 l 393 674 l 393 0 l 297 0 l 297 46 q 221 0 282 0 l 165 0 q 56 110 56 0 l 56 564 q 165 674 56 674 l 221 674 q 297 628 282 674 l 297 674 m 194 82 l 250 82 q 286 93 275 82 q 297 132 297 104 l 297 542 q 286 581 297 569 q 250 592 275 592 l 194 592 q 159 583 167 592 q 151 549 151 575 l 151 125 q 159 90 151 97 q 194 82 167 82 m 414 893 l 278 717 l 192 717 l 300 893 l 414 893 z "},"â":{"ha":456,"x_min":53,"x_max":410,"o":"m 297 674 l 393 674 l 393 0 l 297 0 l 297 46 q 221 0 282 0 l 165 0 q 56 110 56 0 l 56 564 q 165 674 56 674 l 221 674 q 297 628 282 674 l 297 674 m 194 82 l 250 82 q 286 93 275 82 q 297 132 297 104 l 297 542 q 286 581 297 569 q 250 592 275 592 l 194 592 q 159 583 167 592 q 151 549 151 575 l 151 125 q 159 90 151 97 q 194 82 167 82 m 231 833 l 158 717 l 53 717 l 171 893 l 292 893 l 410 717 l 304 717 l 231 833 z "},"ã":{"ha":456,"x_min":47,"x_max":394,"o":"m 308 867 l 394 867 l 394 847 q 373 769 394 796 q 296 742 351 742 l 289 742 q 213 766 256 742 q 157 790 171 790 q 133 757 133 790 l 133 742 l 47 742 l 47 761 q 70 840 47 813 q 147 867 93 867 l 156 867 q 228 842 188 867 q 283 818 268 818 q 303 825 297 818 q 308 853 308 832 l 308 867 m 297 674 l 393 674 l 393 0 l 297 0 l 297 46 q 221 0 282 0 l 165 0 q 56 110 56 0 l 56 564 q 165 674 56 674 l 221 674 q 297 628 282 674 l 297 674 m 194 82 l 250 82 q 286 93 275 82 q 297 132 297 104 l 297 542 q 286 581 297 569 q 250 592 275 592 l 194 592 q 159 583 167 592 q 151 549 151 575 l 151 125 q 159 90 151 97 q 194 82 167 82 z "},"ä":{"ha":456,"x_min":39,"x_max":406,"o":"m 283 868 l 406 868 l 406 751 l 283 751 l 283 868 m 297 674 l 393 674 l 393 0 l 297 0 l 297 46 q 221 0 282 0 l 165 0 q 56 110 56 0 l 56 564 q 165 674 56 674 l 221 674 q 297 628 282 674 l 297 674 m 194 82 l 250 82 q 286 93 275 82 q 297 132 297 104 l 297 542 q 286 581 297 569 q 250 592 275 592 l 194 592 q 159 583 167 592 q 151 549 151 575 l 151 125 q 159 90 151 97 q 194 82 167 82 m 161 868 l 161 751 l 39 751 l 39 868 l 161 868 z "},"å":{"ha":456,"x_min":56,"x_max":393,"o":"m 297 674 l 393 674 l 393 0 l 297 0 l 297 46 q 221 0 282 0 l 165 0 q 56 110 56 0 l 56 564 q 165 674 56 674 l 221 674 q 297 628 282 674 l 297 674 m 194 82 l 250 82 q 286 93 275 82 q 297 132 297 104 l 297 542 q 286 581 297 569 q 250 592 275 592 l 194 592 q 159 583 167 592 q 151 549 151 575 l 151 125 q 159 90 151 97 q 194 82 167 82 m 275 732 l 192 732 q 101 822 101 732 l 101 846 q 192 936 101 936 l 275 936 q 365 846 365 936 l 365 822 q 275 732 365 732 m 172 838 l 172 831 q 179 800 172 807 q 211 793 186 793 l 256 793 q 288 800 281 793 q 294 831 294 807 l 294 838 q 288 868 294 861 q 256 875 281 875 l 211 875 q 179 868 186 875 q 172 838 172 861 z "},"æ":{"ha":707,"x_min":63,"x_max":651,"o":"m 400 304 l 400 125 q 408 90 400 97 q 443 82 417 82 l 508 82 q 544 90 536 82 q 551 125 551 97 l 551 186 l 647 186 l 647 110 q 538 0 647 0 l 426 0 q 377 16 399 0 q 350 53 356 32 q 323 16 344 32 q 271 0 301 0 l 172 0 q 63 110 63 0 l 63 278 l 304 376 l 304 550 q 257 592 300 592 l 201 592 q 167 583 175 592 q 158 549 158 575 l 158 433 l 63 433 l 63 564 q 172 674 63 674 l 271 674 q 323 658 301 674 q 350 621 344 642 q 377 658 356 642 q 426 674 399 674 l 542 674 q 651 564 651 674 l 651 304 l 400 304 m 513 592 l 443 592 q 408 583 417 592 q 400 549 400 575 l 400 386 l 556 386 l 556 549 q 547 583 556 575 q 513 592 539 592 m 201 82 l 257 82 q 292 91 281 82 q 304 124 303 100 l 304 289 l 158 231 l 158 125 q 167 90 158 97 q 201 82 175 82 z "},"ç":{"ha":451,"x_min":56,"x_max":403,"o":"m 403 474 l 307 474 l 307 549 q 299 583 307 575 q 264 592 292 592 l 194 592 q 159 583 167 592 q 151 549 151 575 l 151 125 q 159 90 151 97 q 194 82 167 82 l 264 82 q 299 90 292 82 q 307 125 307 97 l 307 200 l 403 200 l 403 110 q 293 0 403 0 l 165 0 q 56 110 56 0 l 56 564 q 165 674 56 674 l 293 674 q 403 564 403 674 l 403 474 m 189 -101 l 189 -71 l 279 -71 l 279 -110 q 247 -202 279 -171 q 156 -233 214 -233 l 89 -233 l 89 -153 l 140 -153 q 178 -141 167 -153 q 189 -101 189 -129 z "},"è":{"ha":458,"x_min":51,"x_max":410,"o":"m 172 674 l 300 674 q 410 564 410 674 l 410 304 l 158 304 l 158 125 q 167 90 158 97 q 201 82 175 82 l 267 82 q 302 90 294 82 q 310 125 310 97 l 310 186 l 406 186 l 406 110 q 296 0 406 0 l 172 0 q 63 110 63 0 l 63 564 q 172 674 63 674 m 158 386 l 314 386 l 314 549 q 306 583 314 575 q 271 592 297 592 l 201 592 q 167 583 175 592 q 158 549 158 575 l 158 386 m 274 717 l 188 717 l 51 893 l 165 893 l 274 717 z "},"é":{"ha":458,"x_min":63,"x_max":414,"o":"m 172 674 l 300 674 q 410 564 410 674 l 410 304 l 158 304 l 158 125 q 167 90 158 97 q 201 82 175 82 l 267 82 q 302 90 294 82 q 310 125 310 97 l 310 186 l 406 186 l 406 110 q 296 0 406 0 l 172 0 q 63 110 63 0 l 63 564 q 172 674 63 674 m 158 386 l 314 386 l 314 549 q 306 583 314 575 q 271 592 297 592 l 201 592 q 167 583 175 592 q 158 549 158 575 l 158 386 m 414 893 l 278 717 l 192 717 l 300 893 l 414 893 z "},"ê":{"ha":456,"x_min":60,"x_max":417,"o":"m 172 674 l 300 674 q 410 564 410 674 l 410 304 l 158 304 l 158 125 q 167 90 158 97 q 201 82 175 82 l 267 82 q 302 90 294 82 q 310 125 310 97 l 310 186 l 406 186 l 406 110 q 296 0 406 0 l 172 0 q 63 110 63 0 l 63 564 q 172 674 63 674 m 158 386 l 314 386 l 314 549 q 306 583 314 575 q 271 592 297 592 l 201 592 q 167 583 175 592 q 158 549 158 575 l 158 386 m 238 833 l 165 717 l 60 717 l 178 893 l 299 893 l 417 717 l 311 717 l 238 833 z "},"ë":{"ha":456,"x_min":44,"x_max":411,"o":"m 289 868 l 411 868 l 411 751 l 289 751 l 289 868 m 172 674 l 300 674 q 410 564 410 674 l 410 304 l 158 304 l 158 125 q 167 90 158 97 q 201 82 175 82 l 267 82 q 302 90 294 82 q 310 125 310 97 l 310 186 l 406 186 l 406 110 q 296 0 406 0 l 172 0 q 63 110 63 0 l 63 564 q 172 674 63 674 m 158 386 l 314 386 l 314 549 q 306 583 314 575 q 271 592 297 592 l 201 592 q 167 583 175 592 q 158 549 158 575 l 158 386 m 167 868 l 167 751 l 44 751 l 44 868 l 167 868 z "},"ì":{"ha":221,"x_min":-69,"x_max":158,"o":"m 44 893 l 153 717 l 67 717 l -69 893 l 44 893 m 158 0 l 63 0 l 63 674 l 158 674 l 158 0 z "},"í":{"ha":221,"x_min":63,"x_max":285,"o":"m 63 717 l 171 893 l 285 893 l 149 717 l 63 717 m 158 0 l 63 0 l 63 674 l 158 674 l 158 0 z "},"î":{"ha":221,"x_min":-67,"x_max":290,"o":"m -67 717 l 51 893 l 172 893 l 290 717 l 185 717 l 111 833 l 39 717 l -67 717 m 158 0 l 63 0 l 63 674 l 158 674 l 158 0 z "},"ï":{"ha":221,"x_min":-72,"x_max":294,"o":"m 172 751 l 172 868 l 294 868 l 294 751 l 172 751 m -72 751 l -72 868 l 50 868 l 50 751 l -72 751 m 158 0 l 63 0 l 63 674 l 158 674 l 158 0 z "},"ð":{"ha":482,"x_min":56,"x_max":413,"o":"m 413 429 l 413 110 q 303 0 413 0 l 165 0 q 56 110 56 0 l 56 464 q 165 574 56 574 l 294 574 q 224 724 268 658 l 96 675 l 96 742 l 186 776 q 99 864 147 825 l 231 864 q 278 811 257 838 l 401 858 l 401 792 l 315 758 q 413 429 413 608 m 317 125 l 317 414 q 311 492 317 458 l 194 492 q 159 483 167 492 q 151 449 151 475 l 151 125 q 159 90 151 97 q 194 82 167 82 l 274 82 q 308 90 300 82 q 317 125 317 97 z "},"ñ":{"ha":463,"x_min":47,"x_max":400,"o":"m 235 674 l 290 674 q 400 564 400 674 l 400 0 l 304 0 l 304 549 q 297 583 304 575 q 261 592 289 592 l 206 592 q 169 581 181 592 q 158 542 158 569 l 158 0 l 63 0 l 63 674 l 158 674 l 158 628 q 235 674 174 674 m 133 757 l 133 742 l 47 742 l 47 761 q 70 840 47 813 q 147 867 93 867 l 156 867 q 228 842 188 867 q 283 818 268 818 q 303 825 297 818 q 308 853 308 832 l 308 867 l 394 867 l 394 847 q 373 769 394 796 q 296 742 351 742 l 289 742 q 213 766 256 742 q 157 790 171 790 q 133 757 133 790 z "},"ò":{"ha":472,"x_min":53,"x_max":417,"o":"m 165 674 l 307 674 q 417 564 417 674 l 417 110 q 307 0 417 0 l 165 0 q 56 110 56 0 l 56 564 q 165 674 56 674 m 322 125 l 322 549 q 314 583 322 575 q 279 592 306 592 l 193 592 q 158 583 167 592 q 150 549 150 575 l 150 125 q 158 90 150 97 q 193 82 167 82 l 279 82 q 314 90 306 82 q 322 125 322 97 m 275 717 l 189 717 l 53 893 l 167 893 l 275 717 z "},"ó":{"ha":472,"x_min":56,"x_max":417,"o":"m 165 674 l 307 674 q 417 564 417 674 l 417 110 q 307 0 417 0 l 165 0 q 56 110 56 0 l 56 564 q 165 674 56 674 m 322 125 l 322 549 q 314 583 322 575 q 279 592 306 592 l 193 592 q 158 583 167 592 q 150 549 150 575 l 150 125 q 158 90 150 97 q 193 82 167 82 l 279 82 q 314 90 306 82 q 322 125 322 97 m 408 893 l 272 717 l 186 717 l 294 893 l 408 893 z "},"ô":{"ha":472,"x_min":54,"x_max":417,"o":"m 165 674 l 307 674 q 417 564 417 674 l 417 110 q 307 0 417 0 l 165 0 q 56 110 56 0 l 56 564 q 165 674 56 674 m 322 125 l 322 549 q 314 583 322 575 q 279 592 306 592 l 193 592 q 158 583 167 592 q 150 549 150 575 l 150 125 q 158 90 150 97 q 193 82 167 82 l 279 82 q 314 90 306 82 q 322 125 322 97 m 232 833 l 160 717 l 54 717 l 172 893 l 293 893 l 411 717 l 306 717 l 232 833 z "},"õ":{"ha":472,"x_min":53,"x_max":417,"o":"m 165 674 l 307 674 q 417 564 417 674 l 417 110 q 307 0 417 0 l 165 0 q 56 110 56 0 l 56 564 q 165 674 56 674 m 322 125 l 322 549 q 314 583 322 575 q 279 592 306 592 l 193 592 q 158 583 167 592 q 150 549 150 575 l 150 125 q 158 90 150 97 q 193 82 167 82 l 279 82 q 314 90 306 82 q 322 125 322 97 m 139 757 l 139 742 l 53 742 l 53 761 q 76 840 53 813 q 153 867 99 867 l 161 867 q 233 842 193 867 q 288 818 274 818 q 308 825 303 818 q 314 853 314 832 l 314 867 l 400 867 l 400 847 q 378 769 400 796 q 301 742 357 742 l 294 742 q 219 766 261 742 q 163 790 176 790 q 139 757 139 790 z "},"ö":{"ha":472,"x_min":51,"x_max":418,"o":"m 296 868 l 418 868 l 418 751 l 296 751 l 296 868 m 165 674 l 307 674 q 417 564 417 674 l 417 110 q 307 0 417 0 l 165 0 q 56 110 56 0 l 56 564 q 165 674 56 674 m 322 125 l 322 549 q 314 583 322 575 q 279 592 306 592 l 193 592 q 158 583 167 592 q 150 549 150 575 l 150 125 q 158 90 150 97 q 193 82 167 82 l 279 82 q 314 90 306 82 q 322 125 322 97 m 174 868 l 174 751 l 51 751 l 51 868 l 174 868 z "},"÷":{"ha":528,"x_min":35,"x_max":493,"o":"m 215 293 l 313 293 l 313 182 l 215 182 l 215 293 m 215 682 l 313 682 l 313 571 l 215 571 l 215 682 m 35 390 l 35 474 l 493 474 l 493 390 l 35 390 z "},"ø":{"ha":486,"x_min":63,"x_max":424,"o":"m 424 564 l 424 110 q 314 0 424 0 l 172 0 q 142 3 161 0 l 129 -28 l 63 -28 l 86 31 q 63 110 63 58 l 63 564 q 172 674 63 674 l 314 674 q 344 671 325 674 l 357 701 l 424 701 l 400 643 q 424 564 424 615 m 154 556 l 154 199 l 315 597 q 288 600 301 600 l 199 600 q 163 592 171 600 q 154 556 154 583 m 332 118 l 332 475 l 171 76 q 199 74 185 74 l 288 74 q 324 82 315 74 q 332 118 332 90 z "},"ù":{"ha":463,"x_min":56,"x_max":400,"o":"m 304 674 l 400 674 l 400 0 l 304 0 l 304 46 q 228 0 289 0 l 172 0 q 63 110 63 0 l 63 674 l 158 674 l 158 125 q 167 90 158 97 q 201 82 175 82 l 257 82 q 293 93 282 82 q 304 132 304 104 l 304 674 m 278 717 l 192 717 l 56 893 l 169 893 l 278 717 z "},"ú":{"ha":463,"x_min":63,"x_max":413,"o":"m 304 674 l 400 674 l 400 0 l 304 0 l 304 46 q 228 0 289 0 l 172 0 q 63 110 63 0 l 63 674 l 158 674 l 158 125 q 167 90 158 97 q 201 82 175 82 l 257 82 q 293 93 282 82 q 304 132 304 104 l 304 674 m 413 893 l 276 717 l 190 717 l 299 893 l 413 893 z "},"û":{"ha":456,"x_min":46,"x_max":403,"o":"m 304 674 l 400 674 l 400 0 l 304 0 l 304 46 q 228 0 289 0 l 172 0 q 63 110 63 0 l 63 674 l 158 674 l 158 125 q 167 90 158 97 q 201 82 175 82 l 257 82 q 293 93 282 82 q 304 132 304 104 l 304 674 m 224 833 l 151 717 l 46 717 l 164 893 l 285 893 l 403 717 l 297 717 l 224 833 z "},"ü":{"ha":456,"x_min":40,"x_max":407,"o":"m 285 868 l 407 868 l 407 751 l 285 751 l 285 868 m 304 674 l 400 674 l 400 0 l 304 0 l 304 46 q 228 0 289 0 l 172 0 q 63 110 63 0 l 63 674 l 158 674 l 158 125 q 167 90 158 97 q 201 82 175 82 l 257 82 q 293 93 282 82 q 304 132 304 104 l 304 674 m 163 868 l 163 751 l 40 751 l 40 868 l 163 868 z "},"ý":{"ha":429,"x_min":14,"x_max":415,"o":"m 178 717 l 286 893 l 400 893 l 264 717 l 178 717 m 149 -196 l 74 -196 l 74 -114 l 119 -114 q 189 -71 179 -114 l 206 0 l 143 0 l 14 674 l 110 674 l 218 67 l 319 674 l 415 674 l 281 -86 q 149 -196 260 -196 z "},"þ":{"ha":456,"x_min":63,"x_max":400,"o":"m 235 674 l 290 674 q 400 564 400 674 l 400 110 q 290 0 400 0 l 235 0 q 158 46 174 0 l 158 -196 l 63 -196 l 63 929 l 158 929 l 158 628 q 235 674 174 674 m 304 125 l 304 549 q 297 583 304 575 q 261 592 289 592 l 206 592 q 169 581 181 592 q 158 542 158 569 l 158 132 q 169 93 158 104 q 206 82 181 82 l 261 82 q 297 90 289 82 q 304 125 304 97 z "},"ÿ":{"ha":429,"x_min":14,"x_max":415,"o":"m 149 -196 l 74 -196 l 74 -114 l 119 -114 q 189 -71 179 -114 l 206 0 l 143 0 l 14 674 l 110 674 l 218 67 l 319 674 l 415 674 l 281 -86 q 149 -196 260 -196 m 274 751 l 274 868 l 396 868 l 396 751 l 274 751 m 29 751 l 29 868 l 151 868 l 151 751 l 29 751 z "},"Ā":{"ha":476,"x_min":21,"x_max":456,"o":"m 360 0 l 324 219 l 149 219 l 117 0 l 21 0 l 156 864 l 307 864 l 456 0 l 360 0 m 160 301 l 311 301 l 231 797 l 160 301 m 394 988 l 394 907 l 67 907 l 67 988 l 394 988 z "},"ā":{"ha":456,"x_min":56,"x_max":393,"o":"m 297 674 l 393 674 l 393 0 l 297 0 l 297 46 q 221 0 282 0 l 165 0 q 56 110 56 0 l 56 564 q 165 674 56 674 l 221 674 q 297 628 282 674 l 297 674 m 194 82 l 250 82 q 286 93 275 82 q 297 132 297 104 l 297 542 q 286 581 297 569 q 250 592 275 592 l 194 592 q 159 583 167 592 q 151 549 151 575 l 151 125 q 159 90 151 97 q 194 82 167 82 m 386 844 l 386 764 l 58 764 l 58 844 l 386 844 z "},"Ă":{"ha":476,"x_min":21,"x_max":456,"o":"m 360 0 l 324 219 l 149 219 l 117 0 l 21 0 l 156 864 l 307 864 l 456 0 l 360 0 m 160 301 l 311 301 l 231 797 l 160 301 m 301 907 l 160 907 q 50 1017 50 907 l 50 1083 l 142 1083 l 142 1028 q 150 992 142 1000 q 185 985 158 985 l 276 985 q 311 992 303 985 q 319 1028 319 1000 l 319 1083 l 411 1083 l 411 1017 q 301 907 411 907 z "},"ă":{"ha":456,"x_min":44,"x_max":406,"o":"m 314 893 l 406 893 l 406 826 q 296 717 406 717 l 154 717 q 44 826 44 717 l 44 893 l 136 893 l 136 838 q 144 803 136 811 q 179 794 153 794 l 271 794 q 306 803 297 794 q 314 838 314 811 l 314 893 m 297 674 l 393 674 l 393 0 l 297 0 l 297 46 q 221 0 282 0 l 165 0 q 56 110 56 0 l 56 564 q 165 674 56 674 l 221 674 q 297 628 282 674 l 297 674 m 194 82 l 250 82 q 286 93 275 82 q 297 132 297 104 l 297 542 q 286 581 297 569 q 250 592 275 592 l 194 592 q 159 583 167 592 q 151 549 151 575 l 151 125 q 159 90 151 97 q 194 82 167 82 z "},"Ą":{"ha":476,"x_min":21,"x_max":479,"o":"m 371 -219 l 479 -219 l 479 -294 l 351 -294 q 242 -185 242 -294 l 242 -144 q 351 -35 242 -35 l 363 -35 l 363 0 l 360 0 l 324 219 l 149 219 l 117 0 l 21 0 l 156 864 l 307 864 l 453 14 l 454 14 l 454 8 l 456 0 l 454 0 l 454 -108 l 371 -108 q 335 -116 343 -108 q 326 -150 326 -124 l 326 -178 q 335 -212 326 -204 q 371 -219 343 -219 m 160 301 l 311 301 l 231 797 l 160 301 z "},"ą":{"ha":456,"x_min":56,"x_max":418,"o":"m 310 -219 l 418 -219 l 418 -294 l 290 -294 q 181 -185 181 -294 l 181 -144 q 290 -35 181 -35 l 301 -35 l 301 0 l 297 0 l 297 46 q 221 0 282 0 l 165 0 q 56 110 56 0 l 56 564 q 165 674 56 674 l 221 674 q 297 628 282 674 l 297 674 l 393 674 l 393 -108 l 310 -108 q 274 -116 282 -108 q 265 -150 265 -124 l 265 -178 q 274 -212 265 -204 q 310 -219 282 -219 m 194 82 l 250 82 q 286 93 275 82 q 297 132 297 104 l 297 542 q 286 581 297 569 q 250 592 275 592 l 194 592 q 159 583 167 592 q 151 549 151 575 l 151 125 q 159 90 151 97 q 194 82 167 82 z "},"Ć":{"ha":479,"x_min":69,"x_max":425,"o":"m 179 864 l 314 864 q 424 754 424 864 l 424 608 l 328 608 l 328 739 q 319 774 328 767 q 285 782 311 782 l 208 782 q 173 774 181 782 q 165 739 165 767 l 165 124 q 173 89 165 97 q 208 81 181 81 l 285 81 q 319 89 311 81 q 328 124 328 97 l 328 254 l 424 254 l 424 108 q 314 -1 424 -1 l 179 -1 q 69 108 69 -1 l 69 754 q 179 864 69 864 m 425 1083 l 289 907 l 203 907 l 311 1083 l 425 1083 z "},"ć":{"ha":451,"x_min":56,"x_max":404,"o":"m 165 674 l 293 674 q 403 564 403 674 l 403 474 l 307 474 l 307 549 q 299 583 307 575 q 264 592 292 592 l 194 592 q 159 583 167 592 q 151 549 151 575 l 151 125 q 159 90 151 97 q 194 82 167 82 l 264 82 q 299 90 292 82 q 307 125 307 97 l 307 200 l 403 200 l 403 110 q 293 0 403 0 l 165 0 q 56 110 56 0 l 56 564 q 165 674 56 674 m 404 893 l 268 717 l 182 717 l 290 893 l 404 893 z "},"Č":{"ha":479,"x_min":69,"x_max":426,"o":"m 179 864 l 314 864 q 424 754 424 864 l 424 608 l 328 608 l 328 739 q 319 774 328 767 q 285 782 311 782 l 208 782 q 173 774 181 782 q 165 739 165 767 l 165 124 q 173 89 165 97 q 208 81 181 81 l 285 81 q 319 89 311 81 q 328 124 328 97 l 328 254 l 424 254 l 424 108 q 314 -1 424 -1 l 179 -1 q 69 108 69 -1 l 69 754 q 179 864 69 864 m 308 907 l 188 907 l 69 1083 l 175 1083 l 247 967 l 321 1083 l 426 1083 l 308 907 z "},"č":{"ha":451,"x_min":53,"x_max":410,"o":"m 165 674 l 293 674 q 403 564 403 674 l 403 474 l 307 474 l 307 549 q 299 583 307 575 q 264 592 292 592 l 194 592 q 159 583 167 592 q 151 549 151 575 l 151 125 q 159 90 151 97 q 194 82 167 82 l 264 82 q 299 90 292 82 q 307 125 307 97 l 307 200 l 403 200 l 403 110 q 293 0 403 0 l 165 0 q 56 110 56 0 l 56 564 q 165 674 56 674 m 292 717 l 171 717 l 53 893 l 158 893 l 231 776 l 304 893 l 410 893 l 292 717 z "},"Ď":{"ha":529,"x_min":76,"x_max":460,"o":"m 76 864 l 350 864 q 460 754 460 864 l 460 110 q 350 0 460 0 l 76 0 l 76 864 m 364 125 l 364 739 q 356 774 364 767 q 321 782 347 782 l 172 782 l 172 82 l 321 82 q 356 90 347 82 q 364 125 364 97 m 321 907 l 200 907 l 82 1083 l 188 1083 l 260 967 l 333 1083 l 439 1083 l 321 907 z "},"ď":{"ha":492,"x_min":56,"x_max":542,"o":"m 456 929 l 542 929 l 542 875 l 493 707 l 456 707 l 456 929 m 297 929 l 393 929 l 393 0 l 297 0 l 297 46 q 221 0 282 0 l 165 0 q 56 110 56 0 l 56 565 q 165 675 56 675 l 221 675 q 297 629 282 675 l 297 929 m 194 82 l 250 82 q 286 93 275 82 q 297 132 297 104 l 297 543 q 286 582 297 571 q 250 593 275 593 l 194 593 q 159 585 167 593 q 151 550 151 578 l 151 125 q 159 90 151 97 q 194 82 167 82 z "},"Đ":{"ha":529,"x_min":7,"x_max":460,"o":"m 76 864 l 350 864 q 460 754 460 864 l 460 110 q 350 0 460 0 l 76 0 l 76 393 l 7 393 l 7 475 l 76 475 l 76 864 m 364 125 l 364 739 q 356 774 364 767 q 321 782 347 782 l 172 782 l 172 475 l 283 475 l 283 393 l 172 393 l 172 82 l 321 82 q 356 90 347 82 q 364 125 364 97 z "},"đ":{"ha":463,"x_min":63,"x_max":463,"o":"m 463 838 l 463 756 l 400 756 l 400 0 l 304 0 l 304 46 q 228 0 289 0 l 172 0 q 63 110 63 0 l 63 564 q 172 674 63 674 l 228 674 q 304 628 289 674 l 304 756 l 186 756 l 186 838 l 304 838 l 304 929 l 400 929 l 400 838 l 463 838 m 201 82 l 257 82 q 293 93 282 82 q 304 132 304 104 l 304 542 q 293 581 304 569 q 257 592 282 592 l 201 592 q 167 583 175 592 q 158 549 158 575 l 158 125 q 167 90 158 97 q 201 82 175 82 z "},"Ē":{"ha":438,"x_min":74,"x_max":410,"o":"m 172 82 l 410 82 l 410 0 l 76 0 l 76 864 l 400 864 l 400 782 l 172 782 l 172 490 l 358 490 l 358 408 l 172 408 l 172 82 m 401 1011 l 401 931 l 74 931 l 74 1011 l 401 1011 z "},"ē":{"ha":458,"x_min":63,"x_max":410,"o":"m 172 674 l 300 674 q 410 564 410 674 l 410 304 l 158 304 l 158 125 q 167 90 158 97 q 201 82 175 82 l 267 82 q 302 90 294 82 q 310 125 310 97 l 310 186 l 406 186 l 406 110 q 296 0 406 0 l 172 0 q 63 110 63 0 l 63 564 q 172 674 63 674 m 158 386 l 314 386 l 314 549 q 306 583 314 575 q 271 592 297 592 l 201 592 q 167 583 175 592 q 158 549 158 575 l 158 386 m 393 844 l 393 764 l 65 764 l 65 844 l 393 844 z "},"Ė":{"ha":438,"x_min":76,"x_max":410,"o":"m 172 82 l 410 82 l 410 0 l 76 0 l 76 864 l 400 864 l 400 782 l 172 782 l 172 490 l 358 490 l 358 408 l 172 408 l 172 82 m 314 1026 l 314 907 l 186 907 l 186 1026 l 314 1026 z "},"ė":{"ha":458,"x_min":63,"x_max":410,"o":"m 172 674 l 300 674 q 410 564 410 674 l 410 304 l 158 304 l 158 125 q 167 90 158 97 q 201 82 175 82 l 267 82 q 302 90 294 82 q 310 125 310 97 l 310 186 l 406 186 l 406 110 q 296 0 406 0 l 172 0 q 63 110 63 0 l 63 564 q 172 674 63 674 m 158 386 l 314 386 l 314 549 q 306 583 314 575 q 271 592 297 592 l 201 592 q 167 583 175 592 q 158 549 158 575 l 158 386 m 306 864 l 306 744 l 178 744 l 178 864 l 306 864 z "},"Ę":{"ha":438,"x_min":76,"x_max":435,"o":"m 326 -219 l 435 -219 l 435 -294 l 307 -294 q 197 -185 197 -294 l 197 -144 q 307 -35 197 -35 l 318 -35 l 318 0 l 76 0 l 76 864 l 400 864 l 400 782 l 172 782 l 172 490 l 358 490 l 358 408 l 172 408 l 172 82 l 410 82 l 410 -108 l 326 -108 q 290 -116 299 -108 q 282 -150 282 -124 l 282 -178 q 290 -212 282 -204 q 326 -219 299 -219 z "},"ę":{"ha":458,"x_min":63,"x_max":410,"o":"m 172 674 l 300 674 q 410 564 410 674 l 410 304 l 158 304 l 158 125 q 167 90 158 97 q 201 82 175 82 l 267 82 q 302 90 294 82 q 310 125 310 97 l 310 186 l 406 186 l 406 110 q 296 0 406 0 l 288 0 l 288 -108 l 204 -108 q 168 -116 176 -108 q 160 -150 160 -124 l 160 -178 q 168 -212 160 -204 q 204 -219 176 -219 l 313 -219 l 313 -294 l 185 -294 q 75 -185 75 -294 l 75 -144 q 185 -35 75 -35 l 196 -35 l 196 0 l 172 0 q 63 110 63 0 l 63 564 q 172 674 63 674 m 158 386 l 314 386 l 314 549 q 306 583 314 575 q 271 592 297 592 l 201 592 q 167 583 175 592 q 158 549 158 575 l 158 386 z "},"Ě":{"ha":438,"x_min":57,"x_max":414,"o":"m 172 408 l 172 82 l 410 82 l 410 0 l 76 0 l 76 864 l 400 864 l 400 782 l 172 782 l 172 490 l 358 490 l 358 408 l 172 408 m 296 907 l 175 907 l 57 1083 l 163 1083 l 235 967 l 308 1083 l 414 1083 l 296 907 z "},"ě":{"ha":458,"x_min":57,"x_max":414,"o":"m 172 674 l 300 674 q 410 564 410 674 l 410 304 l 158 304 l 158 125 q 167 90 158 97 q 201 82 175 82 l 267 82 q 302 90 294 82 q 310 125 310 97 l 310 186 l 406 186 l 406 110 q 296 0 406 0 l 172 0 q 63 110 63 0 l 63 564 q 172 674 63 674 m 158 386 l 314 386 l 314 549 q 306 583 314 575 q 271 592 297 592 l 201 592 q 167 583 175 592 q 158 549 158 575 l 158 386 m 296 717 l 175 717 l 57 893 l 163 893 l 235 776 l 308 893 l 414 893 l 296 717 z "},"Ğ":{"ha":486,"x_min":67,"x_max":428,"o":"m 336 1083 l 428 1083 l 428 1017 q 318 907 428 907 l 176 907 q 67 1017 67 907 l 67 1083 l 158 1083 l 158 1028 q 167 992 158 1000 q 201 985 175 985 l 293 985 q 328 992 319 985 q 336 1028 336 1000 l 336 1083 m 179 864 l 314 864 q 424 754 424 864 l 424 622 l 328 622 l 328 739 q 319 774 328 767 q 285 782 311 782 l 208 782 q 173 774 181 782 q 165 739 165 767 l 165 124 q 173 89 165 97 q 208 81 181 81 l 285 81 q 319 89 311 81 q 328 124 328 97 l 328 353 l 258 353 l 258 435 l 424 435 l 424 108 q 314 -1 424 -1 l 179 -1 q 69 108 69 -1 l 69 754 q 179 864 69 864 z "},"ğ":{"ha":456,"x_min":47,"x_max":408,"o":"m 317 893 l 408 893 l 408 826 q 299 717 408 717 l 157 717 q 47 826 47 717 l 47 893 l 139 893 l 139 838 q 147 803 139 811 q 182 794 156 794 l 274 794 q 308 803 300 794 q 317 838 317 811 l 317 893 m 297 674 l 393 674 l 393 -86 q 283 -196 393 -196 l 76 -196 l 76 -114 l 254 -114 q 289 -106 281 -114 q 297 -71 297 -97 l 297 46 q 221 0 282 0 l 165 0 q 56 110 56 0 l 56 564 q 165 674 56 674 l 221 674 q 297 628 282 674 l 297 674 m 194 82 l 250 82 q 286 93 275 82 q 297 132 297 104 l 297 542 q 286 581 297 569 q 250 592 275 592 l 194 592 q 159 583 167 592 q 151 549 151 575 l 151 125 q 159 90 151 97 q 194 82 167 82 z "},"Ģ":{"ha":486,"x_min":69,"x_max":424,"o":"m 424 622 l 328 622 l 328 739 q 319 774 328 767 q 285 782 311 782 l 208 782 q 173 774 181 782 q 165 739 165 767 l 165 124 q 173 89 165 97 q 208 81 181 81 l 285 81 q 319 89 311 81 q 328 124 328 97 l 328 353 l 258 353 l 258 435 l 424 435 l 424 108 q 314 -1 424 -1 l 179 -1 q 69 108 69 -1 l 69 754 q 179 864 69 864 l 314 864 q 424 754 424 864 l 424 622 m 194 -293 l 194 -71 l 306 -71 l 306 -125 l 232 -293 l 194 -293 z "},"ģ":{"ha":456,"x_min":56,"x_max":393,"o":"m 297 674 l 393 674 l 393 -86 q 283 -196 393 -196 l 76 -196 l 76 -114 l 254 -114 q 289 -106 281 -114 q 297 -71 297 -97 l 297 46 q 221 0 282 0 l 165 0 q 56 110 56 0 l 56 564 q 165 674 56 674 l 221 674 q 297 628 282 674 l 297 674 m 194 82 l 250 82 q 286 93 275 82 q 297 132 297 104 l 297 542 q 286 581 297 569 q 250 592 275 592 l 194 592 q 159 583 167 592 q 151 549 151 575 l 151 125 q 159 90 151 97 q 194 82 167 82 m 292 939 l 292 717 l 181 717 l 181 771 l 254 939 l 292 939 z "},"Ī":{"ha":275,"x_min":-28,"x_max":300,"o":"m -28 931 l -28 1011 l 300 1011 l 300 931 l -28 931 m 90 864 l 185 864 l 185 0 l 90 0 l 90 864 z "},"ī":{"ha":221,"x_min":-53,"x_max":275,"o":"m -53 764 l -53 844 l 275 844 l 275 764 l -53 764 m 158 0 l 63 0 l 63 674 l 158 674 l 158 0 z "},"Į":{"ha":275,"x_min":-28,"x_max":210,"o":"m 101 -219 l 210 -219 l 210 -294 l 82 -294 q -28 -185 -28 -294 l -28 -144 q 82 -35 -28 -35 l 93 -35 l 93 0 l 90 0 l 90 864 l 185 864 l 185 -108 l 101 -108 q 65 -116 74 -108 q 57 -150 57 -124 l 57 -178 q 65 -212 57 -204 q 101 -219 74 -219 z "},"į":{"ha":221,"x_min":-54,"x_max":183,"o":"m 75 -219 l 183 -219 l 183 -294 l 56 -294 q -54 -185 -54 -294 l -54 -144 q 56 -35 -54 -35 l 67 -35 l 67 0 l 63 0 l 63 674 l 158 674 l 158 -108 l 75 -108 q 39 -116 47 -108 q 31 -150 31 -124 l 31 -178 q 39 -212 31 -204 q 75 -219 47 -219 m 161 931 l 161 818 l 60 818 l 60 931 l 161 931 z "},"İ":{"ha":275,"x_min":72,"x_max":200,"o":"m 72 929 l 72 1049 l 200 1049 l 200 929 l 72 929 m 90 864 l 185 864 l 185 0 l 90 0 l 90 864 z "},"ı":{"ha":221,"x_min":63,"x_max":158,"o":"m 158 0 l 63 0 l 63 674 l 158 674 l 158 0 z "},"Ķ":{"ha":479,"x_min":76,"x_max":465,"o":"m 465 864 l 279 428 l 463 0 l 360 0 l 181 428 l 363 864 l 465 864 m 196 -293 l 196 -71 l 307 -71 l 307 -125 l 233 -293 l 196 -293 m 76 0 l 76 864 l 171 864 l 171 0 l 76 0 z "},"ķ":{"ha":451,"x_min":63,"x_max":444,"o":"m 444 674 l 288 356 l 444 0 l 342 0 l 189 356 l 342 674 l 444 674 m 181 -293 l 181 -71 l 292 -71 l 292 -125 l 218 -293 l 181 -293 m 63 0 l 63 929 l 158 929 l 158 0 l 63 0 z "},"Ĺ":{"ha":376,"x_min":76,"x_max":369,"o":"m 171 82 l 369 82 l 369 0 l 76 0 l 76 864 l 171 864 l 171 82 m 301 1083 l 165 907 l 79 907 l 188 1083 l 301 1083 z "},"ĺ":{"ha":221,"x_min":63,"x_max":289,"o":"m 158 0 l 63 0 l 63 929 l 158 929 l 158 0 m 67 972 l 175 1149 l 289 1149 l 153 972 l 67 972 z "},"Ļ":{"ha":376,"x_min":76,"x_max":369,"o":"m 171 82 l 369 82 l 369 0 l 76 0 l 76 864 l 171 864 l 171 82 m 165 -293 l 165 -71 l 276 -71 l 276 -125 l 203 -293 l 165 -293 z "},"ļ":{"ha":221,"x_min":56,"x_max":167,"o":"m 56 -71 l 167 -71 l 167 -125 l 93 -293 l 56 -293 l 56 -71 m 158 0 l 63 0 l 63 929 l 158 929 l 158 0 z "},"Ľ":{"ha":376,"x_min":-58,"x_max":369,"o":"m 171 82 l 369 82 l 369 0 l 76 0 l 76 864 l 171 864 l 171 82 m 299 1092 l 181 915 l 60 915 l -58 1092 l 47 1092 l 119 975 l 193 1092 l 299 1092 z "},"ľ":{"ha":258,"x_min":63,"x_max":307,"o":"m 158 0 l 63 0 l 63 929 l 158 929 l 158 0 m 221 929 l 307 929 l 307 875 l 258 707 l 221 707 l 221 929 z "},"Ł":{"ha":383,"x_min":-25,"x_max":369,"o":"m 171 82 l 369 82 l 369 0 l 76 0 l 76 357 l -25 310 l -25 392 l 76 439 l 76 864 l 171 864 l 171 482 l 306 544 l 306 463 l 171 400 l 171 82 z "},"ł":{"ha":235,"x_min":-39,"x_max":292,"o":"m 165 0 l 69 0 l 69 429 l -39 379 l -39 461 l 69 511 l 69 929 l 165 929 l 165 556 l 292 614 l 292 532 l 165 474 l 165 0 z "},"Ń":{"ha":524,"x_min":76,"x_max":447,"o":"m 360 864 l 447 864 l 447 0 l 343 0 l 164 669 l 164 0 l 76 0 l 76 864 l 188 864 l 360 218 l 360 864 m 224 907 l 332 1083 l 446 1083 l 310 907 l 224 907 z "},"ń":{"ha":463,"x_min":63,"x_max":411,"o":"m 235 674 l 290 674 q 400 564 400 674 l 400 0 l 304 0 l 304 549 q 297 583 304 575 q 261 592 289 592 l 206 592 q 169 581 181 592 q 158 542 158 569 l 158 0 l 63 0 l 63 674 l 158 674 l 158 628 q 235 674 174 674 m 411 893 l 275 717 l 189 717 l 297 893 l 411 893 z "},"Ņ":{"ha":524,"x_min":76,"x_max":447,"o":"m 193 -71 l 304 -71 l 304 -125 l 231 -293 l 193 -293 l 193 -71 m 360 864 l 447 864 l 447 0 l 343 0 l 164 669 l 164 0 l 76 0 l 76 864 l 188 864 l 360 218 l 360 864 z "},"ņ":{"ha":463,"x_min":63,"x_max":400,"o":"m 235 674 l 290 674 q 400 564 400 674 l 400 0 l 304 0 l 304 549 q 297 583 304 575 q 261 592 289 592 l 206 592 q 169 581 181 592 q 158 542 158 569 l 158 0 l 63 0 l 63 674 l 158 674 l 158 628 q 235 674 174 674 m 169 -293 l 169 -71 l 281 -71 l 281 -125 l 207 -293 l 169 -293 z "},"Ň":{"ha":524,"x_min":76,"x_max":447,"o":"m 360 864 l 447 864 l 447 0 l 343 0 l 164 669 l 164 0 l 76 0 l 76 864 l 188 864 l 360 218 l 360 864 m 207 907 l 89 1083 l 194 1083 l 267 967 l 340 1083 l 446 1083 l 328 907 l 207 907 z "},"ň":{"ha":463,"x_min":44,"x_max":401,"o":"m 235 674 l 290 674 q 400 564 400 674 l 400 0 l 304 0 l 304 549 q 297 583 304 575 q 261 592 289 592 l 206 592 q 169 581 181 592 q 158 542 158 569 l 158 0 l 63 0 l 63 674 l 158 674 l 158 628 q 235 674 174 674 m 283 717 l 163 717 l 44 893 l 150 893 l 222 776 l 296 893 l 401 893 l 283 717 z "},"Ō":{"ha":500,"x_min":69,"x_max":431,"o":"m 179 864 l 321 864 q 431 754 431 864 l 431 110 q 321 0 431 0 l 179 0 q 69 110 69 0 l 69 754 q 179 864 69 864 m 336 125 l 336 739 q 328 774 336 767 q 293 782 319 782 l 207 782 q 172 774 181 782 q 164 739 164 767 l 164 125 q 172 90 164 97 q 207 82 181 82 l 293 82 q 328 90 319 82 q 336 125 336 97 m 414 988 l 414 907 l 86 907 l 86 988 l 414 988 z "},"ō":{"ha":472,"x_min":56,"x_max":417,"o":"m 165 674 l 307 674 q 417 564 417 674 l 417 110 q 307 0 417 0 l 165 0 q 56 110 56 0 l 56 564 q 165 674 56 674 m 322 125 l 322 549 q 314 583 322 575 q 279 592 306 592 l 193 592 q 158 583 167 592 q 150 549 150 575 l 150 125 q 158 90 150 97 q 193 82 167 82 l 279 82 q 314 90 306 82 q 322 125 322 97 m 399 844 l 399 764 l 71 764 l 71 844 l 399 844 z "},"Ő":{"ha":500,"x_min":69,"x_max":492,"o":"m 179 864 l 321 864 q 431 754 431 864 l 431 110 q 321 0 431 0 l 179 0 q 69 110 69 0 l 69 754 q 179 864 69 864 m 336 125 l 336 739 q 328 774 336 767 q 293 782 319 782 l 207 782 q 172 774 181 782 q 164 739 164 767 l 164 125 q 172 90 164 97 q 207 82 181 82 l 293 82 q 328 90 319 82 q 336 125 336 97 m 353 1083 l 217 907 l 142 907 l 250 1083 l 353 1083 m 356 907 l 281 907 l 389 1083 l 492 1083 l 356 907 z "},"ő":{"ha":472,"x_min":56,"x_max":479,"o":"m 165 674 l 307 674 q 417 564 417 674 l 417 110 q 307 0 417 0 l 165 0 q 56 110 56 0 l 56 564 q 165 674 56 674 m 322 125 l 322 549 q 314 583 322 575 q 279 592 306 592 l 193 592 q 158 583 167 592 q 150 549 150 575 l 150 125 q 158 90 150 97 q 193 82 167 82 l 279 82 q 314 90 306 82 q 322 125 322 97 m 340 893 l 204 717 l 129 717 l 238 893 l 340 893 m 343 717 l 268 717 l 376 893 l 479 893 l 343 717 z "},"Œ":{"ha":718,"x_min":69,"x_max":683,"o":"m 446 82 l 683 82 l 683 0 l 364 0 l 364 26 q 286 0 339 0 l 179 0 q 69 110 69 0 l 69 754 q 179 864 69 864 l 285 864 q 364 838 339 864 l 364 864 l 674 864 l 674 782 l 446 782 l 446 490 l 632 490 l 632 408 l 446 408 l 446 82 m 336 125 l 336 739 q 328 774 336 767 q 293 782 319 782 l 207 782 q 172 774 181 782 q 164 739 164 767 l 164 125 q 172 90 164 97 q 207 82 181 82 l 293 82 q 328 90 319 82 q 336 125 336 97 z "},"œ":{"ha":719,"x_min":63,"x_max":651,"o":"m 426 674 l 542 674 q 651 564 651 674 l 651 304 l 400 304 l 400 125 q 408 90 400 97 q 443 82 417 82 l 508 82 q 544 90 536 82 q 551 125 551 97 l 551 186 l 647 186 l 647 110 q 538 0 647 0 l 426 0 q 377 16 399 0 q 350 53 356 32 q 323 16 344 32 q 271 0 301 0 l 172 0 q 63 110 63 0 l 63 564 q 172 674 63 674 l 271 674 q 323 658 301 674 q 350 621 344 642 q 377 658 356 642 q 426 674 399 674 m 257 592 l 201 592 q 167 583 175 592 q 158 549 158 575 l 158 125 q 167 90 158 97 q 201 82 175 82 l 257 82 q 292 91 281 82 q 304 124 303 100 l 304 550 q 257 592 300 592 m 400 386 l 556 386 l 556 549 q 547 583 556 575 q 513 592 539 592 l 443 592 q 408 583 417 592 q 400 549 400 575 l 400 386 z "},"Ŕ":{"ha":506,"x_min":76,"x_max":482,"o":"m 171 361 l 171 0 l 76 0 l 76 864 l 328 864 q 438 754 438 864 l 438 471 q 351 363 438 372 l 482 0 l 379 0 l 253 361 l 171 361 m 171 782 l 171 443 l 300 443 q 335 451 328 443 q 343 486 343 458 l 343 739 q 335 774 343 767 q 300 782 328 782 l 171 782 m 426 1083 l 290 907 l 204 907 l 313 1083 l 426 1083 z "},"ŕ":{"ha":294,"x_min":63,"x_max":360,"o":"m 158 674 l 158 596 q 195 651 169 628 q 258 674 221 674 l 288 674 l 288 590 l 246 590 q 158 486 158 590 l 158 0 l 63 0 l 63 674 l 158 674 m 360 893 l 224 717 l 138 717 l 246 893 l 360 893 z "},"Ŗ":{"ha":506,"x_min":76,"x_max":482,"o":"m 171 361 l 171 0 l 76 0 l 76 864 l 328 864 q 438 754 438 864 l 438 471 q 351 363 438 372 l 482 0 l 379 0 l 253 361 l 171 361 m 171 782 l 171 443 l 300 443 q 335 451 328 443 q 343 486 343 458 l 343 739 q 335 774 343 767 q 300 782 328 782 l 171 782 m 206 -293 l 206 -71 l 317 -71 l 317 -125 l 243 -293 l 206 -293 z "},"ŗ":{"ha":294,"x_min":58,"x_max":288,"o":"m 258 674 l 288 674 l 288 590 l 246 590 q 158 486 158 590 l 158 0 l 63 0 l 63 674 l 158 674 l 158 596 q 195 651 169 628 q 258 674 221 674 m 58 -293 l 58 -71 l 169 -71 l 169 -125 l 96 -293 l 58 -293 z "},"Ř":{"ha":506,"x_min":72,"x_max":482,"o":"m 171 361 l 171 0 l 76 0 l 76 864 l 328 864 q 438 754 438 864 l 438 471 q 351 363 438 372 l 482 0 l 379 0 l 253 361 l 171 361 m 171 782 l 171 443 l 300 443 q 335 451 328 443 q 343 486 343 458 l 343 739 q 335 774 343 767 q 300 782 328 782 l 171 782 m 311 907 l 190 907 l 72 1083 l 178 1083 l 250 967 l 324 1083 l 429 1083 l 311 907 z "},"ř":{"ha":294,"x_min":-3,"x_max":354,"o":"m 158 674 l 158 596 q 195 651 169 628 q 258 674 221 674 l 288 674 l 288 590 l 246 590 q 158 486 158 590 l 158 0 l 63 0 l 63 674 l 158 674 m 236 717 l 115 717 l -3 893 l 103 893 l 175 776 l 249 893 l 354 893 l 236 717 z "},"Ś":{"ha":454,"x_min":56,"x_max":400,"o":"m 303 125 l 303 361 q 294 397 303 389 q 260 404 286 404 l 165 404 q 56 514 56 404 l 56 754 q 165 864 56 864 l 288 864 q 397 754 397 864 l 397 621 l 301 621 l 301 739 q 294 774 301 767 q 258 782 286 782 l 194 782 q 159 774 167 782 q 151 739 151 767 l 151 529 q 159 494 151 503 q 194 486 167 486 l 289 486 q 399 376 399 486 l 399 110 q 289 0 399 0 l 168 0 q 58 110 58 0 l 58 243 l 154 243 l 154 125 q 162 90 154 97 q 197 82 169 82 l 260 82 q 294 90 286 82 q 303 125 303 97 m 178 907 l 286 1083 l 400 1083 l 264 907 l 178 907 z "},"ś":{"ha":413,"x_min":49,"x_max":396,"o":"m 269 124 l 269 251 q 261 286 269 278 q 226 294 253 294 l 158 294 q 49 404 49 294 l 49 564 q 158 674 49 674 l 253 674 q 363 564 363 674 l 363 496 l 268 496 l 268 550 q 260 585 268 578 q 225 593 253 593 l 186 593 q 151 585 158 593 q 143 550 143 578 l 143 418 q 151 383 143 392 q 186 375 158 375 l 254 375 q 364 265 364 375 l 364 110 q 254 0 364 0 l 161 0 q 51 110 51 0 l 51 178 l 146 178 l 146 124 q 153 89 146 97 q 189 81 161 81 l 226 81 q 261 89 253 81 q 269 124 269 97 m 174 717 l 282 893 l 396 893 l 260 717 l 174 717 z "},"Ş":{"ha":454,"x_min":56,"x_max":399,"o":"m 176 -71 l 288 -71 l 288 -125 l 214 -293 l 176 -293 l 176 -71 m 303 125 l 303 361 q 294 397 303 389 q 260 404 286 404 l 165 404 q 56 514 56 404 l 56 754 q 165 864 56 864 l 288 864 q 397 754 397 864 l 397 621 l 301 621 l 301 739 q 294 774 301 767 q 258 782 286 782 l 194 782 q 159 774 167 782 q 151 739 151 767 l 151 529 q 159 494 151 503 q 194 486 167 486 l 289 486 q 399 376 399 486 l 399 110 q 289 0 399 0 l 168 0 q 58 110 58 0 l 58 243 l 154 243 l 154 125 q 162 90 154 97 q 197 82 169 82 l 260 82 q 294 90 286 82 q 303 125 303 97 z "},"ş":{"ha":413,"x_min":49,"x_max":364,"o":"m 150 -71 l 261 -71 l 261 -125 l 188 -293 l 150 -293 l 150 -71 m 269 124 l 269 251 q 261 286 269 278 q 226 294 253 294 l 158 294 q 49 404 49 294 l 49 564 q 158 674 49 674 l 253 674 q 363 564 363 674 l 363 496 l 268 496 l 268 550 q 260 585 268 578 q 225 593 253 593 l 186 593 q 151 585 158 593 q 143 550 143 578 l 143 418 q 151 383 143 392 q 186 375 158 375 l 254 375 q 364 265 364 375 l 364 110 q 254 0 364 0 l 161 0 q 51 110 51 0 l 51 178 l 146 178 l 146 124 q 153 89 146 97 q 189 81 161 81 l 226 81 q 261 89 253 81 q 269 124 269 97 z "},"Š":{"ha":454,"x_min":50,"x_max":407,"o":"m 303 125 l 303 361 q 294 397 303 389 q 260 404 286 404 l 165 404 q 56 514 56 404 l 56 754 q 165 864 56 864 l 288 864 q 397 754 397 864 l 397 621 l 301 621 l 301 739 q 294 774 301 767 q 258 782 286 782 l 194 782 q 159 774 167 782 q 151 739 151 767 l 151 529 q 159 494 151 503 q 194 486 167 486 l 289 486 q 399 376 399 486 l 399 110 q 289 0 399 0 l 168 0 q 58 110 58 0 l 58 243 l 154 243 l 154 125 q 162 90 154 97 q 197 82 169 82 l 260 82 q 294 90 286 82 q 303 125 303 97 m 168 907 l 50 1083 l 156 1083 l 228 967 l 301 1083 l 407 1083 l 289 907 l 168 907 z "},"š":{"ha":413,"x_min":25,"x_max":382,"o":"m 269 124 l 269 251 q 261 286 269 278 q 226 294 253 294 l 158 294 q 49 404 49 294 l 49 564 q 158 674 49 674 l 253 674 q 363 564 363 674 l 363 496 l 268 496 l 268 550 q 260 585 268 578 q 225 593 253 593 l 186 593 q 151 585 158 593 q 143 550 143 578 l 143 418 q 151 383 143 392 q 186 375 158 375 l 254 375 q 364 265 364 375 l 364 110 q 254 0 364 0 l 161 0 q 51 110 51 0 l 51 178 l 146 178 l 146 124 q 153 89 146 97 q 189 81 161 81 l 226 81 q 261 89 253 81 q 269 124 269 97 m 143 717 l 25 893 l 131 893 l 203 776 l 276 893 l 382 893 l 264 717 l 143 717 z "},"Ţ":{"ha":386,"x_min":7,"x_max":379,"o":"m 379 864 l 379 782 l 240 782 l 240 0 l 146 0 l 146 782 l 7 782 l 7 864 l 379 864 m 135 -293 l 135 -71 l 246 -71 l 246 -125 l 172 -293 l 135 -293 z "},"ţ":{"ha":386,"x_min":7,"x_max":379,"o":"m 379 864 l 379 782 l 240 782 l 240 0 l 146 0 l 146 782 l 7 782 l 7 864 l 379 864 m 139 -293 l 139 -71 l 250 -71 l 250 -125 l 176 -293 l 139 -293 z "},"Ť":{"ha":386,"x_min":7,"x_max":379,"o":"m 379 864 l 379 782 l 240 782 l 240 0 l 146 0 l 146 782 l 7 782 l 7 864 l 379 864 m 254 907 l 133 907 l 15 1083 l 121 1083 l 193 967 l 267 1083 l 372 1083 l 254 907 z "},"ť":{"ha":274,"x_min":7,"x_max":329,"o":"m 222 907 l 329 907 l 329 853 l 260 713 l 222 713 l 222 907 m 164 783 l 164 674 l 260 674 l 260 592 l 164 592 l 164 132 q 172 97 164 106 q 207 89 181 89 l 260 89 l 260 0 l 178 0 q 68 110 68 0 l 68 592 l 7 592 l 7 674 l 68 674 l 68 783 l 164 783 z "},"Ū":{"ha":506,"x_min":72,"x_max":433,"o":"m 339 864 l 433 864 l 433 110 q 324 0 433 0 l 182 0 q 72 110 72 0 l 72 864 l 167 864 l 167 125 q 175 90 167 97 q 210 82 183 82 l 296 82 q 331 90 322 82 q 339 125 339 97 l 339 864 m 418 988 l 418 907 l 90 907 l 90 988 l 418 988 z "},"ū":{"ha":463,"x_min":63,"x_max":400,"o":"m 304 674 l 400 674 l 400 0 l 304 0 l 304 46 q 228 0 289 0 l 172 0 q 63 110 63 0 l 63 674 l 158 674 l 158 125 q 167 90 158 97 q 201 82 175 82 l 257 82 q 293 93 282 82 q 304 132 304 104 l 304 674 m 393 844 l 393 764 l 65 764 l 65 844 l 393 844 z "},"Ů":{"ha":506,"x_min":72,"x_max":433,"o":"m 339 864 l 433 864 l 433 110 q 324 0 433 0 l 182 0 q 72 110 72 0 l 72 864 l 167 864 l 167 125 q 175 90 167 97 q 210 82 183 82 l 296 82 q 331 90 322 82 q 339 125 339 97 l 339 864 m 293 907 l 210 907 q 119 997 119 907 l 119 1021 q 210 1111 119 1111 l 293 1111 q 383 1021 383 1111 l 383 997 q 293 907 383 907 m 190 1013 l 190 1006 q 197 975 190 982 q 229 968 204 968 l 274 968 q 306 975 299 968 q 313 1006 313 982 l 313 1013 q 306 1043 313 1036 q 274 1050 299 1050 l 229 1050 q 197 1043 204 1050 q 190 1013 190 1036 z "},"ů":{"ha":463,"x_min":63,"x_max":400,"o":"m 304 674 l 400 674 l 400 0 l 304 0 l 304 46 q 228 0 289 0 l 172 0 q 63 110 63 0 l 63 674 l 158 674 l 158 125 q 167 90 158 97 q 201 82 175 82 l 257 82 q 293 93 282 82 q 304 132 304 104 l 304 674 m 274 731 l 190 731 q 100 821 100 731 l 100 844 q 190 935 100 935 l 274 935 q 364 844 364 935 l 364 821 q 274 731 364 731 m 171 836 l 171 829 q 178 799 171 806 q 210 792 185 792 l 254 792 q 286 799 279 792 q 293 829 293 806 l 293 836 q 286 867 293 860 q 254 874 279 874 l 210 874 q 178 867 185 874 q 171 836 171 860 z "},"Ű":{"ha":506,"x_min":72,"x_max":492,"o":"m 339 125 l 339 864 l 433 864 l 433 110 q 324 0 433 0 l 182 0 q 72 110 72 0 l 72 864 l 167 864 l 167 125 q 175 90 167 97 q 210 82 183 82 l 296 82 q 331 90 322 82 q 339 125 339 97 m 353 1083 l 217 907 l 142 907 l 250 1083 l 353 1083 m 356 907 l 281 907 l 389 1083 l 492 1083 l 356 907 z "},"ű":{"ha":463,"x_min":63,"x_max":453,"o":"m 304 674 l 400 674 l 400 0 l 304 0 l 304 46 q 228 0 289 0 l 172 0 q 63 110 63 0 l 63 674 l 158 674 l 158 125 q 167 90 158 97 q 201 82 175 82 l 257 82 q 293 93 282 82 q 304 132 304 104 l 304 674 m 314 893 l 178 717 l 103 717 l 211 893 l 314 893 m 317 717 l 242 717 l 350 893 l 453 893 l 317 717 z "},"Ų":{"ha":506,"x_min":72,"x_max":433,"o":"m 339 864 l 433 864 l 433 110 q 324 0 433 0 l 308 0 l 308 -108 l 225 -108 q 189 -116 197 -108 q 181 -150 181 -124 l 181 -178 q 189 -212 181 -204 q 225 -219 197 -219 l 333 -219 l 333 -294 l 206 -294 q 96 -185 96 -294 l 96 -144 q 206 -35 96 -35 l 217 -35 l 217 0 l 182 0 q 72 110 72 0 l 72 864 l 167 864 l 167 125 q 175 90 167 97 q 210 82 183 82 l 296 82 q 331 90 322 82 q 339 125 339 97 l 339 864 z "},"ų":{"ha":463,"x_min":63,"x_max":425,"o":"m 317 -219 l 425 -219 l 425 -294 l 297 -294 q 188 -185 188 -294 l 188 -144 q 297 -35 188 -35 l 308 -35 l 308 0 l 304 0 l 304 46 q 228 0 289 0 l 172 0 q 63 110 63 0 l 63 674 l 158 674 l 158 125 q 167 90 158 97 q 201 82 175 82 l 257 82 q 293 93 282 82 q 304 132 304 104 l 304 674 l 400 674 l 400 -108 l 317 -108 q 281 -116 289 -108 q 272 -150 272 -124 l 272 -178 q 281 -212 272 -204 q 317 -219 289 -219 z "},"Ÿ":{"ha":443,"x_min":7,"x_max":436,"o":"m 272 0 l 178 0 l 178 264 l 7 864 l 103 864 l 225 357 l 340 864 l 436 864 l 272 264 l 272 0 m 165 1024 l 165 907 l 43 907 l 43 1024 l 165 1024 m 410 1024 l 410 907 l 288 907 l 288 1024 l 410 1024 z "},"Ź":{"ha":379,"x_min":7,"x_max":383,"o":"m 21 783 l 21 865 l 372 865 l 372 783 l 101 82 l 365 82 l 365 0 l 7 0 l 7 82 l 278 783 l 21 783 m 383 1083 l 247 907 l 161 907 l 269 1083 l 383 1083 z "},"ź":{"ha":369,"x_min":21,"x_max":383,"o":"m 35 592 l 35 674 l 349 674 l 349 592 l 117 82 l 349 82 l 349 0 l 21 0 l 21 82 l 253 592 l 35 592 m 383 893 l 247 717 l 161 717 l 269 893 l 383 893 z "},"Ż":{"ha":379,"x_min":7,"x_max":372,"o":"m 372 865 l 372 783 l 101 82 l 365 82 l 365 0 l 7 0 l 7 82 l 278 783 l 21 783 l 21 865 l 372 865 m 264 1026 l 264 907 l 136 907 l 136 1026 l 264 1026 z "},"ż":{"ha":369,"x_min":21,"x_max":349,"o":"m 349 674 l 349 592 l 117 82 l 349 82 l 349 0 l 21 0 l 21 82 l 253 592 l 35 592 l 35 674 l 349 674 m 260 864 l 260 744 l 132 744 l 132 864 l 260 864 z "},"Ž":{"ha":379,"x_min":7,"x_max":372,"o":"m 372 865 l 372 783 l 101 82 l 365 82 l 365 0 l 7 0 l 7 82 l 278 783 l 21 783 l 21 865 l 372 865 m 253 907 l 132 907 l 14 1083 l 119 1083 l 192 967 l 265 1083 l 371 1083 l 253 907 z "},"ž":{"ha":369,"x_min":11,"x_max":368,"o":"m 35 592 l 35 674 l 349 674 l 349 592 l 117 82 l 349 82 l 349 0 l 21 0 l 21 82 l 253 592 l 35 592 m 250 717 l 129 717 l 11 893 l 117 893 l 189 776 l 263 893 l 368 893 l 250 717 z "},"ƒ":{"ha":456,"x_min":-33,"x_max":388,"o":"m 388 840 l 324 840 q 290 833 297 840 q 281 797 283 825 l 265 674 l 388 674 l 388 592 l 254 592 l 169 -86 q 138 -169 163 -143 q 60 -196 113 -196 l -33 -196 l -33 -107 l 31 -107 q 64 -99 57 -107 q 74 -64 71 -92 l 156 592 l 65 592 l 65 674 l 167 674 l 185 819 q 216 903 192 876 q 294 929 240 929 l 388 929 l 388 840 z "},"Ș":{"ha":454,"x_min":56,"x_max":399,"o":"m 175 -71 l 286 -71 l 286 -125 l 213 -293 l 175 -293 l 175 -71 m 303 125 l 303 361 q 294 397 303 389 q 260 404 286 404 l 165 404 q 56 514 56 404 l 56 754 q 165 864 56 864 l 288 864 q 397 754 397 864 l 397 621 l 301 621 l 301 739 q 294 774 301 767 q 258 782 286 782 l 194 782 q 159 774 167 782 q 151 739 151 767 l 151 529 q 159 494 151 503 q 194 486 167 486 l 289 486 q 399 376 399 486 l 399 110 q 289 0 399 0 l 168 0 q 58 110 58 0 l 58 243 l 154 243 l 154 125 q 162 90 154 97 q 197 82 169 82 l 260 82 q 294 90 286 82 q 303 125 303 97 z "},"ș":{"ha":413,"x_min":49,"x_max":364,"o":"m 174 -71 l 285 -71 l 285 -125 l 211 -293 l 174 -293 l 174 -71 m 269 124 l 269 251 q 261 286 269 278 q 226 294 253 294 l 158 294 q 49 404 49 294 l 49 564 q 158 674 49 674 l 253 674 q 363 564 363 674 l 363 496 l 268 496 l 268 550 q 260 585 268 578 q 225 593 253 593 l 186 593 q 151 585 158 593 q 143 550 143 578 l 143 418 q 151 383 143 392 q 186 375 158 375 l 254 375 q 364 265 364 375 l 364 110 q 254 0 364 0 l 161 0 q 51 110 51 0 l 51 178 l 146 178 l 146 124 q 153 89 146 97 q 189 81 161 81 l 226 81 q 261 89 253 81 q 269 124 269 97 z "},"Ț":{"ha":386,"x_min":7,"x_max":379,"o":"m 379 864 l 379 782 l 240 782 l 240 0 l 146 0 l 146 782 l 7 782 l 7 864 l 379 864 m 140 -293 l 140 -71 l 251 -71 l 251 -125 l 178 -293 l 140 -293 z "},"ț":{"ha":274,"x_min":7,"x_max":260,"o":"m 260 592 l 164 592 l 164 132 q 172 97 164 106 q 207 89 181 89 l 260 89 l 260 0 l 178 0 q 68 110 68 0 l 68 592 l 7 592 l 7 674 l 68 674 l 68 783 l 164 783 l 164 674 l 260 674 l 260 592 m 108 -293 l 108 -71 l 219 -71 l 219 -125 l 146 -293 l 108 -293 z "},"ˆ":{"ha":556,"x_min":99,"x_max":456,"o":"m 99 717 l 217 893 l 338 893 l 456 717 l 350 717 l 276 833 l 204 717 l 99 717 z "},"ˇ":{"ha":556,"x_min":99,"x_max":456,"o":"m 217 717 l 99 893 l 204 893 l 276 776 l 350 893 l 456 893 l 338 717 l 217 717 z "},"ˉ":{"ha":556,"x_min":114,"x_max":442,"o":"m 114 764 l 114 844 l 442 844 l 442 764 l 114 764 z "},"˘":{"ha":556,"x_min":97,"x_max":458,"o":"m 367 893 l 458 893 l 458 826 q 349 717 458 717 l 207 717 q 97 826 97 717 l 97 893 l 189 893 l 189 838 q 197 803 189 811 q 232 794 206 794 l 324 794 q 358 803 350 794 q 367 838 367 811 l 367 893 z "},"˙":{"ha":556,"x_min":214,"x_max":342,"o":"m 214 744 l 214 864 l 342 864 l 342 744 l 214 744 z "},"˚":{"ha":556,"x_min":146,"x_max":410,"o":"m 339 801 l 339 808 q 332 839 339 832 q 300 846 325 846 l 256 846 q 224 839 231 846 q 217 808 217 832 l 217 801 q 224 771 217 778 q 256 764 231 764 l 300 764 q 332 771 325 764 q 339 801 339 778 m 410 817 l 410 793 q 319 703 410 703 l 236 703 q 146 793 146 703 l 146 817 q 236 907 146 907 l 319 907 q 410 817 410 907 z "},"˛":{"ha":556,"x_min":157,"x_max":394,"o":"m 286 -219 l 394 -219 l 394 -294 l 267 -294 q 157 -185 157 -294 l 157 -144 q 267 -35 157 -35 l 278 -35 l 278 14 l 369 14 l 369 -108 l 286 -108 q 250 -116 258 -108 q 242 -150 242 -124 l 242 -178 q 250 -212 242 -204 q 286 -219 258 -219 z "},"˜":{"ha":556,"x_min":104,"x_max":451,"o":"m 346 742 q 270 766 313 742 q 214 790 228 790 q 190 757 190 790 l 190 742 l 104 742 l 104 761 q 127 840 104 813 q 204 867 150 867 l 213 867 q 285 842 244 867 q 340 818 325 818 q 360 825 354 818 q 365 853 365 832 l 365 867 l 451 867 l 451 847 q 430 769 451 796 q 353 742 408 742 l 346 742 z "},"˝":{"ha":556,"x_min":103,"x_max":453,"o":"m 103 717 l 211 893 l 314 893 l 178 717 l 103 717 m 242 717 l 350 893 l 453 893 l 317 717 l 242 717 z "},"π":{"ha":556,"x_min":0,"x_max":556,"o":"m 556 674 l 556 592 l 458 592 l 458 0 l 364 0 l 364 592 l 189 592 l 189 110 q 79 0 189 0 l 0 0 l 0 89 l 50 89 q 85 97 78 89 q 93 132 93 106 l 93 674 l 556 674 z "},"ँ":{"ha":0,"x_min":-303,"x_max":56,"o":"m -172 1153 l -78 1153 l -78 1057 l -172 1057 l -172 1153 m -303 1099 l -214 1099 l -214 1043 q -206 1008 -214 1017 q -171 1000 -197 1000 l -76 1000 q -42 1008 -50 1000 q -33 1043 -33 1017 l -33 1099 l 56 1099 l 56 1035 q -54 925 56 925 l -193 925 q -303 1035 -303 925 l -303 1099 z "},"ं":{"ha":0,"x_min":-181,"x_max":-79,"o":"m -181 1129 l -79 1129 l -79 1010 l -181 1010 l -181 1129 z "},"ः":{"ha":213,"x_min":56,"x_max":157,"o":"m 56 693 l 157 693 l 157 574 l 56 574 l 56 693 m 56 207 l 157 207 l 157 88 l 56 88 l 56 207 z "},"अ":{"ha":694,"x_min":42,"x_max":722,"o":"m 722 864 l 722 782 l 618 782 l 618 0 l 524 0 l 524 401 l 376 401 l 376 218 q 267 108 376 108 l 151 108 q 42 218 42 108 l 42 351 l 138 351 l 138 233 q 145 198 138 206 q 181 190 153 190 l 238 190 q 272 198 264 190 q 281 233 281 206 l 281 394 q 271 432 281 422 q 233 442 261 442 l 139 442 l 139 524 l 233 524 q 271 534 261 524 q 281 571 281 544 l 281 739 q 272 774 281 767 q 238 782 264 782 l 181 782 q 145 774 153 782 q 138 739 138 767 l 138 621 l 42 621 l 42 754 q 151 864 42 864 l 267 864 q 376 754 376 864 l 376 550 q 325 485 376 489 l 325 482 l 524 482 l 524 864 l 722 864 z "},"आ":{"ha":944,"x_min":42,"x_max":971,"o":"m 971 864 l 971 782 l 867 782 l 867 0 l 772 0 l 772 782 l 618 782 l 618 0 l 524 0 l 524 401 l 376 401 l 376 218 q 267 108 376 108 l 151 108 q 42 218 42 108 l 42 351 l 138 351 l 138 233 q 145 198 138 206 q 181 190 153 190 l 238 190 q 272 198 264 190 q 281 233 281 206 l 281 394 q 271 432 281 422 q 233 442 261 442 l 139 442 l 139 524 l 233 524 q 271 534 261 524 q 281 571 281 544 l 281 739 q 272 774 281 767 q 238 782 264 782 l 181 782 q 145 774 153 782 q 138 739 138 767 l 138 621 l 42 621 l 42 754 q 151 864 42 864 l 267 864 q 376 754 376 864 l 376 550 q 325 485 376 489 l 325 482 l 524 482 l 524 864 l 971 864 z "},"इ":{"ha":472,"x_min":-28,"x_max":500,"o":"m 394 592 l 188 592 q 153 583 161 592 q 144 549 144 575 l 144 493 q 153 458 144 467 q 188 450 161 450 l 300 450 q 410 340 410 450 l 410 218 q 300 108 410 108 l 163 108 l 163 0 l 67 0 l 67 264 l 163 264 l 163 190 l 271 190 q 306 198 297 190 q 314 233 314 206 l 314 325 q 306 360 314 353 q 271 368 297 368 l 158 368 q 49 478 49 368 l 49 564 q 158 674 49 674 l 299 674 l 299 782 l -28 782 l -28 864 l 500 864 l 500 782 l 394 782 l 394 592 z "},"ई":{"ha":472,"x_min":-28,"x_max":500,"o":"m 394 592 l 188 592 q 153 583 161 592 q 144 549 144 575 l 144 493 q 153 458 144 467 q 188 450 161 450 l 300 450 q 410 340 410 450 l 410 218 q 300 108 410 108 l 163 108 l 163 0 l 67 0 l 67 264 l 163 264 l 163 190 l 271 190 q 306 198 297 190 q 314 233 314 206 l 314 325 q 306 360 314 353 q 271 368 297 368 l 158 368 q 49 478 49 368 l 49 564 q 158 674 49 674 l 299 674 l 299 782 l -28 782 l -28 864 l 299 864 l 299 965 q 408 1074 299 1074 l 485 1074 l 485 992 l 438 992 q 402 984 410 992 q 394 950 394 976 l 394 864 l 500 864 l 500 782 l 394 782 l 394 592 z "},"उ":{"ha":450,"x_min":-28,"x_max":478,"o":"m 478 864 l 478 782 l 363 782 q 374 744 374 771 l 374 564 q 322 499 374 503 l 322 496 q 374 432 374 492 l 374 110 q 264 0 374 0 l 144 0 q 35 110 35 0 l 35 286 l 131 286 l 131 125 q 139 90 131 97 q 174 82 147 82 l 235 82 q 269 90 261 82 q 278 125 278 97 l 278 410 q 269 444 278 436 q 235 453 261 453 l 117 453 l 117 535 l 235 535 q 269 542 261 535 q 278 578 278 550 l 278 738 q 268 775 278 768 q 214 782 258 782 l -28 782 l -28 864 l 478 864 z "},"ऊ":{"ha":633,"x_min":-28,"x_max":661,"o":"m 661 864 l 661 782 l 363 782 q 374 744 374 771 l 374 564 q 322 499 374 503 l 322 496 l 482 496 q 592 386 592 496 l 592 110 q 482 0 592 0 l 422 0 l 422 82 l 453 82 q 488 90 481 82 q 496 125 496 97 l 496 371 q 488 406 496 397 q 453 414 481 414 l 374 414 l 374 110 q 264 0 374 0 l 144 0 q 35 110 35 0 l 35 286 l 131 286 l 131 125 q 139 90 131 97 q 174 82 147 82 l 235 82 q 269 90 261 82 q 278 125 278 97 l 278 410 q 269 444 278 436 q 235 453 261 453 l 117 453 l 117 535 l 235 535 q 269 542 261 535 q 278 578 278 550 l 278 738 q 268 775 278 768 q 214 782 258 782 l -28 782 l -28 864 l 661 864 z "},"ऋ":{"ha":865,"x_min":-28,"x_max":893,"o":"m 440 782 l 440 365 l 553 365 q 536 449 536 385 l 536 565 q 646 674 536 674 l 707 674 q 817 565 817 674 l 817 456 q 806 374 817 399 q 772 342 796 350 l 772 335 q 815 254 815 315 l 815 108 q 706 0 815 0 l 640 0 q 567 30 592 0 q 543 108 543 60 l 543 193 l 638 193 l 638 126 q 644 91 638 100 q 678 82 651 82 l 681 82 q 713 91 706 82 q 719 126 719 100 l 719 244 q 712 275 719 268 q 681 282 704 282 l 440 282 l 440 0 l 346 0 l 346 282 l 314 282 l 113 0 l 6 0 l 249 340 l 164 511 q 122 571 143 554 q 58 588 100 588 l 7 588 l 7 674 l 58 674 q 166 655 133 674 q 228 579 199 636 l 335 365 l 346 365 l 346 782 l -28 782 l -28 864 l 893 864 l 893 782 l 440 782 m 631 547 l 631 410 q 665 365 631 365 l 690 365 q 722 410 722 365 l 722 547 q 715 583 722 574 q 682 592 708 592 l 671 592 q 638 583 644 592 q 631 547 631 574 z "},"ऌ":{"ha":678,"x_min":-28,"x_max":706,"o":"m 611 47 l 544 47 q 509 39 517 47 q 501 4 501 31 l 501 -46 q 509 -81 501 -72 q 544 -89 517 -89 l 668 -89 l 668 -171 l 515 -171 q 406 -61 406 -171 l 406 19 q 511 129 406 129 l 515 129 l 515 592 l 428 592 q 392 583 400 592 q 385 549 385 575 l 385 263 l 289 263 l 289 549 q 281 583 289 575 q 246 592 272 592 l 201 592 q 167 583 175 592 q 158 549 158 575 l 158 129 q 167 94 158 103 q 201 86 175 86 l 286 86 l 286 0 l 172 0 q 63 110 63 0 l 63 564 q 172 674 63 674 l 272 674 q 338 622 333 674 l 340 622 q 404 674 344 674 l 515 674 l 515 782 l -28 782 l -28 864 l 706 864 l 706 782 l 611 782 l 611 47 z "},"ऍ":{"ha":524,"x_min":-28,"x_max":551,"o":"m 551 864 l 551 782 l 461 782 l 461 504 q 351 394 461 394 l 261 394 l 261 476 l 322 476 q 358 484 350 476 q 365 519 365 492 l 365 782 l 172 782 l 172 125 q 181 90 172 97 q 215 82 189 82 l 318 82 q 353 90 344 82 q 361 125 361 97 l 361 272 l 457 272 l 457 110 q 347 0 457 0 l 186 0 q 76 110 76 0 l 76 782 l -28 782 l -28 864 l 551 864 m 336 925 l 197 925 q 88 1035 88 925 l 88 1099 l 176 1099 l 176 1043 q 184 1008 176 1017 q 219 1000 192 1000 l 314 1000 q 349 1008 342 1000 q 357 1043 357 1017 l 357 1099 l 446 1099 l 446 1035 q 336 925 446 925 z "},"ऎ":{"ha":524,"x_min":-28,"x_max":551,"o":"m 551 864 l 551 782 l 461 782 l 461 504 q 351 394 461 394 l 261 394 l 261 476 l 322 476 q 358 484 350 476 q 365 519 365 492 l 365 782 l 172 782 l 172 125 q 181 90 172 97 q 215 82 189 82 l 318 82 q 353 90 344 82 q 361 125 361 97 l 361 272 l 457 272 l 457 110 q 347 0 457 0 l 186 0 q 76 110 76 0 l 76 782 l -28 782 l -28 864 l 365 864 l 365 913 q 358 947 365 939 q 322 956 350 956 l 226 956 q 117 1065 117 956 l 117 1129 l 213 1129 l 213 1081 q 220 1045 213 1053 q 256 1038 228 1038 l 351 1038 q 461 928 461 1038 l 461 864 l 551 864 z "},"ए":{"ha":524,"x_min":-28,"x_max":551,"o":"m 551 864 l 551 782 l 461 782 l 461 504 q 351 394 461 394 l 261 394 l 261 476 l 322 476 q 358 484 350 476 q 365 519 365 492 l 365 782 l 172 782 l 172 125 q 181 90 172 97 q 215 82 189 82 l 318 82 q 353 90 344 82 q 361 125 361 97 l 361 272 l 457 272 l 457 110 q 347 0 457 0 l 186 0 q 76 110 76 0 l 76 782 l -28 782 l -28 864 l 551 864 z "},"ऐ":{"ha":524,"x_min":-28,"x_max":551,"o":"m 551 864 l 551 782 l 461 782 l 461 504 q 351 394 461 394 l 261 394 l 261 476 l 322 476 q 358 484 350 476 q 365 519 365 492 l 365 782 l 172 782 l 172 125 q 181 90 172 97 q 215 82 189 82 l 318 82 q 353 90 344 82 q 361 125 361 97 l 361 272 l 457 272 l 457 110 q 347 0 457 0 l 186 0 q 76 110 76 0 l 76 782 l -28 782 l -28 864 l 346 864 q 240 996 299 914 l 146 1129 l 261 1129 l 447 864 l 551 864 z "},"ऑ":{"ha":944,"x_min":42,"x_max":999,"o":"m 910 1099 l 999 1099 l 999 1035 q 889 925 999 925 l 750 925 q 640 1035 640 925 l 640 1099 l 729 1099 l 729 1043 q 737 1008 729 1017 q 772 1000 744 1000 l 867 1000 q 902 1008 894 1000 q 910 1043 910 1017 l 910 1099 m 971 864 l 971 782 l 867 782 l 867 0 l 772 0 l 772 782 l 618 782 l 618 0 l 524 0 l 524 401 l 376 401 l 376 218 q 267 108 376 108 l 151 108 q 42 218 42 108 l 42 351 l 138 351 l 138 233 q 145 198 138 206 q 181 190 153 190 l 238 190 q 272 198 264 190 q 281 233 281 206 l 281 394 q 271 432 281 422 q 233 442 261 442 l 139 442 l 139 524 l 233 524 q 271 534 261 524 q 281 571 281 544 l 281 739 q 272 774 281 767 q 238 782 264 782 l 181 782 q 145 774 153 782 q 138 739 138 767 l 138 621 l 42 621 l 42 754 q 151 864 42 864 l 267 864 q 376 754 376 864 l 376 550 q 325 485 376 489 l 325 482 l 524 482 l 524 864 l 971 864 z "},"ऒ":{"ha":943,"x_min":42,"x_max":971,"o":"m 971 864 l 971 782 l 867 782 l 867 0 l 772 0 l 772 782 l 618 782 l 618 0 l 524 0 l 524 401 l 376 401 l 376 218 q 267 108 376 108 l 151 108 q 42 218 42 108 l 42 351 l 138 351 l 138 233 q 145 198 138 206 q 181 190 153 190 l 238 190 q 272 198 264 190 q 281 233 281 206 l 281 394 q 271 432 281 422 q 233 442 261 442 l 139 442 l 139 524 l 233 524 q 271 534 261 524 q 281 571 281 544 l 281 739 q 272 774 281 767 q 238 782 264 782 l 181 782 q 145 774 153 782 q 138 739 138 767 l 138 621 l 42 621 l 42 754 q 151 864 42 864 l 267 864 q 376 754 376 864 l 376 550 q 325 485 376 489 l 325 482 l 524 482 l 524 864 l 771 864 l 771 913 q 763 947 771 939 q 728 956 756 956 l 632 956 q 522 1065 522 956 l 522 1129 l 618 1129 l 618 1081 q 626 1045 618 1053 q 661 1038 633 1038 l 757 1038 q 867 928 867 1038 l 867 864 l 971 864 z "},"ओ":{"ha":943,"x_min":42,"x_max":971,"o":"m 971 864 l 971 782 l 867 782 l 867 0 l 772 0 l 772 782 l 618 782 l 618 0 l 524 0 l 524 401 l 376 401 l 376 218 q 267 108 376 108 l 151 108 q 42 218 42 108 l 42 351 l 138 351 l 138 233 q 145 198 138 206 q 181 190 153 190 l 238 190 q 272 198 264 190 q 281 233 281 206 l 281 394 q 271 432 281 422 q 233 442 261 442 l 139 442 l 139 524 l 233 524 q 271 534 261 524 q 281 571 281 544 l 281 739 q 272 774 281 767 q 238 782 264 782 l 181 782 q 145 774 153 782 q 138 739 138 767 l 138 621 l 42 621 l 42 754 q 151 864 42 864 l 267 864 q 376 754 376 864 l 376 550 q 325 485 376 489 l 325 482 l 524 482 l 524 864 l 768 864 q 663 996 721 914 l 568 1129 l 683 1129 l 869 864 l 971 864 z "},"औ":{"ha":944,"x_min":42,"x_max":971,"o":"m 971 864 l 971 782 l 867 782 l 867 0 l 772 0 l 772 782 l 618 782 l 618 0 l 524 0 l 524 401 l 376 401 l 376 218 q 267 108 376 108 l 151 108 q 42 218 42 108 l 42 351 l 138 351 l 138 233 q 145 198 138 206 q 181 190 153 190 l 238 190 q 272 198 264 190 q 281 233 281 206 l 281 394 q 271 432 281 422 q 233 442 261 442 l 139 442 l 139 524 l 233 524 q 271 534 261 524 q 281 571 281 544 l 281 739 q 272 774 281 767 q 238 782 264 782 l 181 782 q 145 774 153 782 q 138 739 138 767 l 138 621 l 42 621 l 42 754 q 151 864 42 864 l 267 864 q 376 754 376 864 l 376 550 q 325 485 376 489 l 325 482 l 524 482 l 524 864 l 754 864 q 660 946 715 894 l 465 1129 l 592 1129 l 650 1065 q 807 864 754 951 l 813 864 q 761 976 785 921 q 697 1129 751 1000 l 800 1129 l 863 864 l 971 864 z "},"क":{"ha":704,"x_min":-28,"x_max":732,"o":"m 732 782 l 400 782 l 400 661 q 444 674 414 674 l 532 674 q 642 564 642 674 l 642 218 q 532 108 642 108 l 456 108 l 456 190 l 503 190 q 538 198 531 190 q 546 233 546 206 l 546 549 q 538 583 546 575 q 503 592 531 592 l 447 592 q 410 582 419 592 q 400 544 400 572 l 400 0 l 304 0 l 304 121 q 260 108 289 108 l 172 108 q 63 218 63 108 l 63 564 q 172 674 63 674 l 249 674 l 249 592 l 201 592 q 167 583 175 592 q 158 549 158 575 l 158 233 q 167 198 158 206 q 201 190 175 190 l 257 190 q 294 201 283 190 q 304 238 304 211 l 304 782 l -28 782 l -28 864 l 732 864 l 732 782 z "},"ख":{"ha":811,"x_min":-28,"x_max":839,"o":"m 839 864 l 839 782 l 735 782 l 735 0 l 644 0 l 644 186 q 593 165 631 165 l 521 165 q 411 275 411 165 l 411 544 q 521 654 411 654 l 603 654 l 603 572 l 544 572 q 509 564 517 572 q 501 529 501 556 l 501 290 q 509 256 501 264 q 544 247 517 247 l 588 247 q 632 259 619 247 q 644 301 644 271 l 644 782 l 339 782 q 350 746 350 771 l 350 451 q 240 342 350 342 l 163 342 l 163 129 q 170 94 163 103 q 206 86 178 86 l 501 86 l 501 0 l 176 0 q 67 110 67 0 l 67 654 l 163 654 l 163 424 l 211 424 q 247 431 239 424 q 254 467 254 439 l 254 739 q 247 774 254 767 q 211 782 239 782 l -28 782 l -28 864 l 839 864 z "},"ग":{"ha":711,"x_min":-28,"x_max":739,"o":"m 739 864 l 739 782 l 635 782 l 635 0 l 539 0 l 539 782 l 394 782 l 394 218 q 285 108 394 108 l 158 108 q 49 218 49 108 l 49 482 q 158 592 49 592 l 299 592 l 299 782 l -28 782 l -28 864 l 739 864 m 188 190 l 256 190 q 291 198 283 190 q 299 233 299 206 l 299 510 l 188 510 q 153 502 161 510 q 144 467 144 494 l 144 233 q 153 198 144 206 q 188 190 161 190 z "},"घ":{"ha":578,"x_min":-28,"x_max":606,"o":"m 606 864 l 606 782 l 501 782 l 501 0 l 406 0 l 406 121 q 361 108 392 108 l 176 108 q 67 218 67 108 l 67 418 q 118 482 67 478 l 118 485 q 67 550 67 489 l 67 739 q 86 782 67 771 l -28 782 l -28 864 l 606 864 m 406 238 l 406 782 l 207 782 q 171 773 179 781 q 163 739 163 765 l 163 569 q 170 534 163 542 q 206 526 178 526 l 300 526 l 300 444 l 206 444 q 170 436 178 444 q 163 401 163 428 l 163 233 q 170 198 163 206 q 206 190 178 190 l 358 190 q 396 201 386 190 q 406 238 406 211 z "},"ङ":{"ha":488,"x_min":-28,"x_max":515,"o":"m -28 864 l 515 864 l 515 782 l 390 782 l 390 592 l 222 592 q 187 583 194 592 q 179 549 179 575 l 179 451 q 187 417 179 425 q 222 408 194 408 l 294 408 q 404 299 404 408 l 404 110 q 294 0 404 0 l 176 0 q 67 110 67 0 l 67 229 l 163 229 l 163 125 q 170 90 163 97 q 206 82 178 82 l 265 82 q 300 90 292 82 q 308 125 308 97 l 308 283 q 300 319 308 311 q 265 326 292 326 l 193 326 q 83 436 83 326 l 83 564 q 193 674 83 674 l 294 674 l 294 782 l -28 782 l -28 864 m 379 428 l 379 547 l 481 547 l 481 428 l 379 428 z "},"च":{"ha":536,"x_min":-28,"x_max":564,"o":"m 564 864 l 564 782 l 460 782 l 460 0 l 364 0 l 364 121 q 319 108 350 108 l 204 108 q 94 218 94 108 l 94 556 q 106 592 94 581 l 7 592 l 7 674 l 290 674 l 290 592 l 235 592 q 199 583 207 590 q 190 549 190 575 l 190 233 q 198 198 190 206 q 233 190 206 190 l 317 190 q 354 201 344 190 q 364 238 364 211 l 364 782 l -28 782 l -28 864 l 564 864 z "},"छ":{"ha":696,"x_min":-28,"x_max":724,"o":"m 724 782 l 531 782 l 531 674 q 629 564 629 668 l 629 110 q 519 0 629 0 l 186 0 q 76 110 76 0 l 76 361 q 128 425 76 421 l 128 428 q 76 493 76 432 l 76 746 q 88 782 76 771 l -28 782 l -28 864 l 724 864 l 724 782 m 442 782 l 242 782 l 257 781 q 185 778 197 783 q 172 739 172 772 l 172 513 q 181 478 172 486 q 215 469 189 469 l 267 469 l 267 388 l 215 388 q 181 380 189 388 q 172 344 172 372 l 172 125 q 181 90 172 97 q 215 82 189 82 l 497 82 q 533 90 525 82 q 540 125 540 97 l 540 549 q 533 583 540 575 q 497 592 525 592 l 469 592 q 434 583 442 592 q 426 549 426 575 l 426 365 q 434 331 426 339 q 469 322 442 322 l 497 322 l 497 240 l 447 240 q 338 350 338 240 l 338 564 q 442 674 338 672 l 442 782 z "},"ज":{"ha":681,"x_min":-28,"x_max":708,"o":"m 708 864 l 708 782 l 604 782 l 604 0 l 508 0 l 508 592 l 388 592 l 388 218 q 278 108 388 108 l 172 108 q 63 218 63 108 l 63 674 l 158 674 l 158 233 q 167 198 158 206 q 201 190 175 190 l 249 190 q 283 198 275 190 q 292 233 292 206 l 292 674 l 508 674 l 508 782 l -28 782 l -28 864 l 708 864 z "},"झ":{"ha":739,"x_min":-28,"x_max":767,"o":"m 767 864 l 767 782 l 663 782 l 663 0 l 567 0 l 567 368 l 415 368 q 417 340 417 360 l 417 218 q 307 108 417 108 l 163 108 l 163 0 l 67 0 l 67 264 l 163 264 l 163 190 l 278 190 q 313 198 306 190 q 321 233 321 206 l 321 325 q 313 360 321 353 q 278 368 306 368 l 174 368 q 64 478 64 368 l 64 564 q 174 674 64 674 l 310 674 l 310 782 l -28 782 l -28 864 l 767 864 m 567 450 l 567 782 l 406 782 l 406 592 l 203 592 q 167 583 175 592 q 160 549 160 575 l 160 493 q 167 458 160 467 q 203 450 175 450 l 567 450 z "},"ञ":{"ha":672,"x_min":-28,"x_max":700,"o":"m 700 864 l 700 782 l 596 782 l 596 0 l 500 0 l 500 381 l 360 381 l 360 218 q 250 108 360 108 l 151 108 q 42 218 42 108 l 42 356 l 138 356 l 138 233 q 145 198 138 206 q 181 190 153 190 l 221 190 q 256 198 247 190 q 264 233 264 206 l 264 549 q 256 583 264 575 q 221 592 247 592 l 101 592 l 101 674 l 250 674 q 360 564 360 674 l 360 463 l 500 463 l 500 782 l -28 782 l -28 864 l 700 864 z "},"ट":{"ha":464,"x_min":-28,"x_max":492,"o":"m 392 592 l 215 592 q 181 583 189 592 q 172 549 172 575 l 172 125 q 181 90 172 97 q 215 82 189 82 l 263 82 q 297 90 289 82 q 306 125 306 97 l 306 269 l 401 269 l 401 110 q 292 0 401 0 l 186 0 q 76 110 76 0 l 76 564 q 186 674 76 674 l 296 674 l 296 782 l -28 782 l -28 864 l 492 864 l 492 782 l 392 782 l 392 592 z "},"ठ":{"ha":511,"x_min":-28,"x_max":539,"o":"m 539 782 l 308 782 l 308 674 l 335 674 q 444 564 444 674 l 444 110 q 335 0 444 0 l 186 0 q 76 110 76 0 l 76 564 q 186 674 76 674 l 213 674 l 213 782 l -28 782 l -28 864 l 539 864 l 539 782 m 349 125 l 349 549 q 341 583 349 575 q 306 592 333 592 l 215 592 q 181 583 189 592 q 172 549 172 575 l 172 125 q 181 90 172 97 q 215 82 189 82 l 306 82 q 341 90 333 82 q 349 125 349 97 z "},"ड":{"ha":488,"x_min":-28,"x_max":515,"o":"m 390 592 l 222 592 q 187 583 194 592 q 179 549 179 575 l 179 451 q 187 417 179 425 q 222 408 194 408 l 294 408 q 404 299 404 408 l 404 110 q 294 0 404 0 l 176 0 q 67 110 67 0 l 67 229 l 163 229 l 163 125 q 170 90 163 97 q 206 82 178 82 l 265 82 q 300 90 292 82 q 308 125 308 97 l 308 283 q 300 319 308 311 q 265 326 292 326 l 193 326 q 83 436 83 326 l 83 564 q 193 674 83 674 l 294 674 l 294 782 l -28 782 l -28 864 l 515 864 l 515 782 l 390 782 l 390 592 z "},"ढ":{"ha":524,"x_min":-28,"x_max":551,"o":"m 392 592 l 215 592 q 181 583 189 592 q 172 549 172 575 l 172 125 q 181 90 172 97 q 215 82 189 82 l 308 82 q 344 90 336 82 q 351 125 351 97 l 351 268 q 344 303 351 294 q 308 311 336 311 l 251 311 l 251 393 l 338 393 q 447 283 447 393 l 447 110 q 338 0 447 0 l 186 0 q 76 110 76 0 l 76 564 q 186 674 76 674 l 296 674 l 296 782 l -28 782 l -28 864 l 551 864 l 551 782 l 392 782 l 392 592 z "},"ण":{"ha":681,"x_min":-28,"x_max":708,"o":"m 708 864 l 708 782 l 604 782 l 604 0 l 508 0 l 508 782 l 388 782 l 388 218 q 278 108 388 108 l 172 108 q 63 218 63 108 l 63 782 l -28 782 l -28 864 l 708 864 m 292 233 l 292 782 l 158 782 l 158 233 q 167 198 158 206 q 201 190 175 190 l 249 190 q 283 198 275 190 q 292 233 292 206 z "},"त":{"ha":518,"x_min":-28,"x_max":546,"o":"m 546 864 l 546 782 l 442 782 l 442 0 l 346 0 l 346 592 l 201 592 q 167 583 175 592 q 158 549 158 575 l 158 129 q 167 94 158 103 q 201 86 175 86 l 249 86 l 249 0 l 172 0 q 63 110 63 0 l 63 564 q 172 674 63 674 l 346 674 l 346 782 l -28 782 l -28 864 l 546 864 z "},"थ":{"ha":597,"x_min":64,"x_max":625,"o":"m 625 864 l 625 782 l 521 782 l 521 0 l 425 0 l 425 121 q 381 108 411 108 l 174 108 q 64 218 64 108 l 64 489 l 196 489 q 231 497 222 489 q 239 532 239 506 l 239 746 q 231 781 239 772 q 196 789 222 789 l 189 789 q 153 781 161 789 q 146 746 146 772 l 146 683 l 74 683 l 74 761 q 179 871 74 871 l 225 871 q 335 761 335 871 l 335 517 q 225 407 335 407 l 160 407 l 160 233 q 167 198 160 206 q 203 190 175 190 l 378 190 q 415 201 406 190 q 425 238 425 211 l 425 864 l 625 864 z "},"द":{"ha":482,"x_min":-28,"x_max":510,"o":"m 406 592 l 215 592 q 181 583 189 592 q 172 549 172 575 l 172 233 q 181 198 172 206 q 215 190 189 190 l 272 190 q 310 201 300 190 q 319 238 319 211 l 319 369 l 415 369 l 415 0 l 319 0 l 319 121 q 275 108 306 108 l 186 108 q 76 218 76 108 l 76 564 q 186 674 76 674 l 310 674 l 310 782 l -28 782 l -28 864 l 510 864 l 510 782 l 406 782 l 406 592 z "},"ध":{"ha":617,"x_min":100,"x_max":644,"o":"m 644 864 l 644 782 l 540 782 l 540 0 l 444 0 l 444 121 q 400 108 431 108 l 210 108 q 100 218 100 108 l 100 410 q 151 474 100 469 l 151 476 q 100 542 100 481 l 100 761 q 210 871 100 871 l 258 871 q 368 761 368 871 l 368 683 l 296 683 l 296 746 q 288 781 296 772 q 253 789 281 789 l 239 789 q 203 781 211 789 q 196 746 196 772 l 196 561 q 203 526 196 533 q 239 518 211 518 l 333 518 l 333 436 l 239 436 q 203 428 211 436 q 196 393 196 419 l 196 233 q 203 198 196 206 q 239 190 211 190 l 397 190 q 435 201 425 190 q 444 238 444 211 l 444 864 l 644 864 z "},"न":{"ha":661,"x_min":-28,"x_max":689,"o":"m 689 864 l 689 782 l 585 782 l 585 0 l 489 0 l 489 592 l 367 592 l 367 218 q 257 108 367 108 l 158 108 q 49 218 49 108 l 49 564 q 158 674 49 674 l 489 674 l 489 782 l -28 782 l -28 864 l 689 864 m 271 233 l 271 592 l 188 592 q 153 583 161 592 q 144 549 144 575 l 144 233 q 153 198 144 206 q 188 190 161 190 l 228 190 q 263 198 256 190 q 271 233 271 206 z "},"ऩ":{"ha":661,"x_min":-28,"x_max":689,"o":"m 689 864 l 689 782 l 585 782 l 585 0 l 489 0 l 489 592 l 367 592 l 367 218 q 257 108 367 108 l 158 108 q 49 218 49 108 l 49 564 q 158 674 49 674 l 489 674 l 489 782 l -28 782 l -28 864 l 689 864 m 271 233 l 271 592 l 188 592 q 153 583 161 592 q 144 549 144 575 l 144 233 q 153 198 144 206 q 188 190 161 190 l 228 190 q 263 198 256 190 q 271 233 271 206 m 271 -135 l 271 -15 l 372 -15 l 372 -135 l 271 -135 z "},"प":{"ha":490,"x_min":-28,"x_max":518,"o":"m 518 864 l 518 782 l 414 782 l 414 0 l 318 0 l 318 121 q 274 108 303 108 l 186 108 q 76 218 76 108 l 76 782 l -28 782 l -28 864 l 518 864 m 318 238 l 318 782 l 172 782 l 172 233 q 181 198 172 206 q 215 190 189 190 l 271 190 q 308 201 297 190 q 318 238 318 211 z "},"फ":{"ha":708,"x_min":-28,"x_max":736,"o":"m 736 782 l 404 782 l 404 661 q 449 674 419 674 l 536 674 q 646 564 646 674 l 646 218 q 536 108 646 108 l 460 108 l 460 190 l 507 190 q 542 198 533 190 q 550 233 550 206 l 550 549 q 542 583 550 575 q 507 592 533 592 l 451 592 q 415 582 425 592 q 404 544 404 572 l 404 0 l 308 0 l 308 121 q 264 108 294 108 l 176 108 q 67 218 67 108 l 67 782 l -28 782 l -28 864 l 736 864 l 736 782 m 308 238 l 308 782 l 163 782 l 163 233 q 170 198 163 206 q 206 190 178 190 l 261 190 q 299 201 289 190 q 308 238 308 211 z "},"ब":{"ha":533,"x_min":-28,"x_max":561,"o":"m 561 864 l 561 782 l 457 782 l 457 0 l 361 0 l 361 121 q 317 108 346 108 l 179 108 q 69 218 69 108 l 69 564 q 179 674 69 674 l 306 674 l 306 592 l 200 592 q 369 264 344 326 q 361 451 361 328 l 361 782 l -28 782 l -28 864 l 561 864 m 208 190 l 314 190 q 344 196 335 190 q 165 549 201 465 l 165 233 q 173 198 165 206 q 208 190 181 190 z "},"भ":{"ha":735,"x_min":63,"x_max":763,"o":"m 763 864 l 763 782 l 658 782 l 658 0 l 563 0 l 563 475 l 406 475 l 406 218 q 296 108 406 108 l 172 108 q 63 218 63 108 l 63 447 q 172 557 63 557 l 310 557 l 310 739 q 302 774 310 767 q 267 782 294 782 l 213 782 q 178 774 186 782 q 169 739 169 767 l 169 661 l 74 661 l 74 754 q 183 864 74 864 l 296 864 q 406 754 406 864 l 406 557 l 563 557 l 563 864 l 763 864 m 310 233 l 310 475 l 201 475 q 167 467 175 475 q 158 432 158 458 l 158 233 q 167 198 158 206 q 201 190 175 190 l 267 190 q 302 198 294 190 q 310 233 310 206 z "},"म":{"ha":721,"x_min":-28,"x_max":749,"o":"m 749 864 l 749 782 l 644 782 l 644 0 l 549 0 l 549 518 l 392 518 l 392 260 q 282 150 392 150 l 158 150 q 49 260 49 150 l 49 490 q 158 600 49 600 l 296 600 l 296 782 l -28 782 l -28 864 l 749 864 m 296 275 l 296 518 l 188 518 q 153 510 161 518 q 144 475 144 503 l 144 275 q 153 240 144 247 q 188 232 161 232 l 253 232 q 288 240 281 232 q 296 275 296 247 m 549 600 l 549 782 l 392 782 l 392 600 l 549 600 z "},"य":{"ha":594,"x_min":-56,"x_max":622,"o":"m 622 864 l 622 782 l 518 782 l 518 0 l 422 0 l 422 121 q 378 108 408 108 l 158 108 q 49 218 49 108 l 49 519 l 160 519 q 194 528 186 519 q 203 563 203 536 l 203 738 q 193 775 203 768 q 139 782 183 782 l -56 782 l -56 864 l 622 864 m 422 238 l 422 782 l 288 782 q 299 744 299 771 l 299 547 q 189 438 299 438 l 144 438 l 144 233 q 153 198 144 206 q 188 190 161 190 l 375 190 q 413 201 403 190 q 422 238 422 211 z "},"र":{"ha":460,"x_min":-28,"x_max":488,"o":"m 488 864 l 488 782 l 393 782 q 404 746 404 771 l 404 506 q 294 396 404 396 l 158 396 l 158 125 q 167 90 158 97 q 201 82 175 82 l 263 82 q 297 90 289 82 q 306 125 306 97 l 306 293 l 401 293 l 401 110 q 292 0 401 0 l 172 0 q 63 110 63 0 l 63 619 l 158 619 l 158 478 l 265 478 q 300 486 292 478 q 308 521 308 494 l 308 739 q 300 774 308 767 q 265 782 292 782 l -28 782 l -28 864 l 488 864 z "},"ऱ":{"ha":460,"x_min":-28,"x_max":488,"o":"m 488 864 l 488 782 l 393 782 q 404 746 404 771 l 404 506 q 294 396 404 396 l 158 396 l 158 125 q 167 90 158 97 q 201 82 175 82 l 263 82 q 297 90 289 82 q 306 125 306 97 l 306 293 l 401 293 l 401 110 q 292 0 401 0 l 172 0 q 63 110 63 0 l 63 619 l 158 619 l 158 478 l 265 478 q 300 486 292 478 q 308 521 308 494 l 308 739 q 300 774 308 767 q 265 782 292 782 l -28 782 l -28 864 l 488 864 m 169 -218 l 169 -99 l 271 -99 l 271 -218 l 169 -218 z "},"ल":{"ha":678,"x_min":-28,"x_max":706,"o":"m 706 864 l 706 782 l 611 782 l 611 0 l 515 0 l 515 592 l 428 592 q 392 583 400 592 q 385 549 385 575 l 385 263 l 289 263 l 289 549 q 281 583 289 575 q 246 592 272 592 l 201 592 q 167 583 175 592 q 158 549 158 575 l 158 129 q 167 94 158 103 q 201 86 175 86 l 286 86 l 286 0 l 172 0 q 63 110 63 0 l 63 564 q 172 674 63 674 l 272 674 q 338 622 333 674 l 340 622 q 404 674 344 674 l 515 674 l 515 782 l -28 782 l -28 864 l 706 864 z "},"ळ":{"ha":726,"x_min":-56,"x_max":782,"o":"m 782 782 l 544 782 l 544 674 l 568 674 q 678 564 678 674 l 678 218 q 568 108 678 108 l 431 108 q 367 160 371 108 l 364 160 q 299 108 360 108 l 158 108 q 49 218 49 108 l 49 564 q 158 674 49 674 l 299 674 q 364 622 360 674 l 367 622 q 431 674 371 674 l 449 674 l 449 782 l -56 782 l -56 864 l 782 864 l 782 782 m 315 233 l 315 549 q 308 583 315 575 q 272 592 300 592 l 188 592 q 153 583 161 592 q 144 549 144 575 l 144 233 q 153 198 144 206 q 188 190 161 190 l 272 190 q 308 198 300 190 q 315 233 315 206 m 582 233 l 582 549 q 574 583 582 575 q 539 592 567 592 l 454 592 q 419 583 428 592 q 411 549 411 575 l 411 233 q 419 198 411 206 q 454 190 428 190 l 539 190 q 574 198 567 190 q 582 233 582 206 z "},"ऴ":{"ha":726,"x_min":-56,"x_max":782,"o":"m 782 782 l 544 782 l 544 674 l 568 674 q 678 564 678 674 l 678 218 q 568 108 678 108 l 431 108 q 367 160 371 108 l 364 160 q 299 108 360 108 l 158 108 q 49 218 49 108 l 49 564 q 158 674 49 674 l 299 674 q 364 622 360 674 l 367 622 q 431 674 371 674 l 449 674 l 449 782 l -56 782 l -56 864 l 782 864 l 782 782 m 315 233 l 315 549 q 308 583 315 575 q 272 592 300 592 l 188 592 q 153 583 161 592 q 144 549 144 575 l 144 233 q 153 198 144 206 q 188 190 161 190 l 272 190 q 308 198 300 190 q 315 233 315 206 m 582 233 l 582 549 q 574 583 582 575 q 539 592 567 592 l 454 592 q 419 583 428 592 q 411 549 411 575 l 411 233 q 419 198 411 206 q 454 190 428 190 l 539 190 q 574 198 567 190 q 582 233 582 206 m 104 -107 l 104 13 l 206 13 l 206 -107 l 104 -107 z "},"व":{"ha":481,"x_min":-28,"x_max":508,"o":"m 508 864 l 508 782 l 404 782 l 404 0 l 308 0 l 308 121 q 264 108 294 108 l 176 108 q 67 218 67 108 l 67 564 q 176 674 67 674 l 253 674 l 253 592 l 206 592 q 170 583 178 592 q 163 549 163 575 l 163 233 q 170 198 163 206 q 206 190 178 190 l 261 190 q 299 201 289 190 q 308 238 308 211 l 308 782 l -28 782 l -28 864 l 508 864 z "},"श":{"ha":689,"x_min":63,"x_max":717,"o":"m 517 864 l 717 864 l 717 782 l 611 782 l 611 0 l 517 0 l 517 864 m 175 865 l 294 865 q 404 756 404 865 l 404 482 q 294 372 404 372 l 158 372 l 158 125 q 167 90 158 97 q 201 82 175 82 l 263 82 q 297 90 289 82 q 306 125 306 97 l 306 269 l 401 269 l 401 110 q 292 0 401 0 l 172 0 q 63 110 63 0 l 63 519 l 158 519 l 158 454 l 265 454 q 300 462 292 454 q 308 497 308 469 l 308 740 q 300 775 308 767 q 265 783 292 783 l 204 783 q 169 775 178 783 q 161 740 161 767 l 161 624 l 65 624 l 65 756 q 175 865 65 865 z "},"ष":{"ha":544,"x_min":-28,"x_max":572,"o":"m 572 864 l 572 782 l 468 782 l 468 0 l 372 0 l 372 121 q 328 108 358 108 l 186 108 q 76 218 76 108 l 76 782 l -28 782 l -28 864 l 572 864 m 215 190 l 325 190 q 368 211 361 190 l 228 507 l 160 658 q 172 490 172 589 l 172 233 q 181 198 172 206 q 215 190 189 190 m 372 508 l 372 782 l 167 782 l 311 481 l 383 313 q 372 508 372 393 z "},"स":{"ha":706,"x_min":-28,"x_max":733,"o":"m 733 864 l 733 782 l 629 782 l 629 0 l 535 0 l 535 396 l 158 396 l 158 125 q 167 90 158 97 q 201 82 175 82 l 263 82 q 297 90 289 82 q 306 125 306 97 l 306 293 l 401 293 l 401 110 q 292 0 401 0 l 172 0 q 63 110 63 0 l 63 619 l 158 619 l 158 478 l 265 478 q 300 486 292 478 q 308 521 308 494 l 308 739 q 300 774 308 767 q 265 782 292 782 l -28 782 l -28 864 l 733 864 m 535 478 l 535 782 l 393 782 q 404 746 404 771 l 404 561 q 388 478 404 497 l 535 478 z "},"ह":{"ha":504,"x_min":-28,"x_max":546,"o":"m 428 592 l 215 592 q 181 583 189 592 q 172 549 172 575 l 172 481 q 181 445 172 453 q 215 438 189 438 l 332 438 q 442 328 442 438 l 442 242 l 346 242 l 346 313 q 338 347 346 339 q 303 356 331 356 l 215 356 q 181 347 189 356 q 172 313 172 339 l 172 125 q 181 90 172 97 q 215 82 189 82 l 442 82 l 442 0 l 186 0 q 76 110 76 0 l 76 329 q 128 393 76 389 l 128 396 q 76 461 76 400 l 76 564 q 186 674 76 674 l 332 674 l 332 782 l -28 782 l -28 864 l 546 864 l 546 782 l 428 782 l 428 592 z "},"़":{"ha":0,"x_min":-174,"x_max":-72,"o":"m -174 -99 l -72 -99 l -72 -218 l -174 -218 l -174 -99 z "},"ऽ":{"ha":476,"x_min":69,"x_max":407,"o":"m 389 782 l 225 782 q 190 774 197 782 q 182 739 182 767 l 182 554 q 190 519 182 528 q 225 511 197 511 l 297 511 q 407 401 407 511 l 407 110 q 297 0 407 0 l 179 0 q 69 110 69 0 l 69 229 l 165 229 l 165 125 q 173 90 165 97 q 208 82 181 82 l 268 82 q 303 90 294 82 q 311 125 311 97 l 311 386 q 303 422 311 414 q 268 429 294 429 l 196 429 q 86 539 86 429 l 86 754 q 196 864 86 864 l 389 864 l 389 782 z "},"ा":{"ha":250,"x_min":-26,"x_max":276,"o":"m 276 864 l 276 782 l 172 782 l 172 0 l 78 0 l 78 782 l -26 782 l -26 864 l 276 864 z "},"ि":{"ha":249,"x_min":-28,"x_max":647,"o":"m 186 1129 l 538 1129 q 647 1019 647 1129 l 647 926 l 551 926 l 551 1004 q 544 1040 551 1032 q 508 1047 538 1047 l 215 1047 q 181 1039 189 1047 q 172 1004 172 1031 l 172 864 l 276 864 l 276 782 l 172 782 l 172 0 l 76 0 l 76 782 l -28 782 l -28 864 l 76 864 l 76 1019 q 186 1129 76 1129 z "},"ी":{"ha":249,"x_min":-172,"x_max":276,"o":"m 276 864 l 276 782 l 172 782 l 172 0 l 76 0 l 76 782 l -28 782 l -28 864 l 76 864 l 76 1004 q 69 1039 76 1031 q 33 1047 61 1047 l -33 1047 q -69 1040 -62 1047 q -76 1004 -76 1032 l -76 926 l -172 926 l -172 1019 q -62 1129 -172 1129 l 63 1129 q 172 1019 172 1129 l 172 864 l 276 864 z "},"ु":{"ha":0,"x_min":-421,"x_max":60,"o":"m -50 1 q 60 -108 60 1 l 60 -189 q -50 -299 60 -299 l -189 -299 q -300 -282 -265 -299 q -369 -204 -335 -265 l -421 -115 l -307 -115 l -271 -175 q -193 -217 -246 -217 l -79 -217 q -44 -208 -53 -217 q -36 -174 -36 -200 l -36 -124 q -44 -89 -36 -97 q -79 -81 -53 -81 l -172 -81 l -172 1 l -50 1 z "},"ू":{"ha":0,"x_min":-289,"x_max":213,"o":"m -82 0 q 17 -17 -14 0 q 83 -90 49 -35 l 213 -297 l 97 -297 l -7 -131 q -76 -82 -37 -82 l -150 -82 q -185 -90 -178 -82 q -193 -125 -193 -97 l -193 -175 q -185 -210 -193 -203 q -150 -218 -178 -218 l -74 -218 l -74 -300 l -179 -300 q -289 -190 -289 -300 l -289 -110 q -179 0 -289 0 l -82 0 z "},"ृ":{"ha":0,"x_min":-282,"x_max":-19,"o":"m -76 0 l -76 -82 l -143 -82 q -178 -90 -169 -82 q -186 -125 -186 -97 l -186 -175 q -178 -210 -186 -203 q -143 -218 -169 -218 l -19 -218 l -19 -300 l -172 -300 q -282 -190 -282 -300 l -282 -110 q -172 0 -282 0 l -76 0 z "},"ॄ":{"ha":0,"x_min":-282,"x_max":-19,"o":"m -282 -110 q -172 0 -282 0 l -76 0 l -76 -82 l -143 -82 q -178 -90 -169 -82 q -186 -125 -186 -97 l -186 -175 q -178 -210 -186 -203 q -143 -218 -169 -218 l -76 -218 l -76 -300 l -143 -300 q -178 -308 -169 -300 q -186 -343 -186 -317 l -186 -393 q -178 -428 -186 -419 q -143 -436 -169 -436 l -19 -436 l -19 -518 l -172 -518 q -282 -408 -282 -518 l -282 -326 q -231 -262 -282 -267 l -231 -260 q -282 -194 -282 -256 l -282 -110 z "},"ॅ":{"ha":0,"x_min":-303,"x_max":56,"o":"m -303 1099 l -214 1099 l -214 1043 q -206 1008 -214 1017 q -171 1000 -197 1000 l -76 1000 q -42 1008 -50 1000 q -33 1043 -33 1017 l -33 1099 l 56 1099 l 56 1035 q -54 925 56 925 l -193 925 q -303 1035 -303 925 l -303 1099 z "},"ॆ":{"ha":0,"x_min":-421,"x_max":-76,"o":"m -421 1129 l -325 1129 l -325 1081 q -317 1045 -325 1053 q -282 1038 -308 1038 l -186 1038 q -76 928 -76 1038 l -76 811 l -172 811 l -172 913 q -181 947 -172 939 q -215 956 -189 956 l -311 956 q -421 1065 -421 956 l -421 1129 z "},"े":{"ha":0,"x_min":-396,"x_max":-82,"o":"m -281 1129 l -82 846 l -178 846 q -301 996 -224 888 l -396 1129 l -281 1129 z "},"ै":{"ha":0,"x_min":-481,"x_max":-81,"o":"m -481 1129 l -354 1129 l -296 1065 q -139 864 -192 951 l -133 864 q -185 976 -161 921 q -249 1129 -194 1000 l -146 1129 l -81 850 l -172 850 q -286 946 -210 874 l -481 1129 z "},"ॉ":{"ha":250,"x_min":-54,"x_max":304,"o":"m 215 1099 l 304 1099 l 304 1035 q 194 925 304 925 l 56 925 q -54 1035 -54 925 l -54 1099 l 35 1099 l 35 1043 q 42 1008 35 1017 q 78 1000 50 1000 l 172 1000 q 208 1008 200 1000 q 215 1043 215 1017 l 215 1099 m -26 782 l -26 864 l 276 864 l 276 782 l 172 782 l 172 0 l 78 0 l 78 782 l -26 782 z "},"ॊ":{"ha":250,"x_min":-172,"x_max":276,"o":"m 276 864 l 276 782 l 172 782 l 172 0 l 78 0 l 78 782 l -26 782 l -26 864 l 76 864 l 76 913 q 69 947 76 939 q 33 956 61 956 l -62 956 q -172 1065 -172 956 l -172 1129 l -76 1129 l -76 1081 q -69 1045 -76 1053 q -33 1038 -61 1038 l 63 1038 q 172 928 172 1038 l 172 864 l 276 864 z "},"ो":{"ha":250,"x_min":-143,"x_max":276,"o":"m 276 864 l 276 782 l 172 782 l 172 0 l 78 0 l 78 782 l -26 782 l -26 864 l 57 864 q -49 996 10 914 l -143 1129 l -28 1129 l 158 864 l 276 864 z "},"ौ":{"ha":250,"x_min":-229,"x_max":276,"o":"m 276 864 l 276 782 l 172 782 l 172 0 l 78 0 l 78 782 l -26 782 l -26 864 l 60 864 q -35 946 21 894 l -229 1129 l -103 1129 l -44 1065 q 113 864 60 951 l 118 864 q 67 976 89 921 q 3 1129 57 1000 l 106 1129 l 168 864 l 276 864 z "},"्":{"ha":0,"x_min":-194,"x_max":50,"o":"m -89 -85 l 50 -265 l -56 -265 l -194 -85 l -89 -85 z "},"ॐ":{"ha":833,"x_min":42,"x_max":768,"o":"m 658 474 q 768 364 768 474 l 768 110 q 658 0 768 0 l 571 0 q 461 110 461 0 l 461 243 l 557 243 l 557 125 q 565 90 557 97 q 600 82 572 82 l 629 82 q 664 90 656 82 q 672 125 672 97 l 672 349 q 664 383 672 375 q 629 392 656 392 l 356 392 q 376 331 376 378 l 376 110 q 267 0 376 0 l 151 0 q 42 110 42 0 l 42 243 l 138 243 l 138 125 q 145 90 138 97 q 181 82 153 82 l 238 82 q 272 90 264 82 q 281 125 281 97 l 281 344 q 271 382 281 372 q 233 392 261 392 l 139 392 l 139 474 l 233 474 q 271 484 261 474 q 281 521 281 494 l 281 739 q 272 774 281 767 q 238 782 264 782 l 181 782 q 145 774 153 782 q 138 739 138 767 l 138 621 l 42 621 l 42 754 q 151 864 42 864 l 267 864 q 376 754 376 864 l 376 674 l 567 674 q 602 681 594 674 q 610 717 610 689 l 610 772 l 699 772 l 699 703 q 589 592 699 592 l 376 592 l 376 535 q 356 474 376 489 l 658 474 m 532 864 l 532 768 l 438 768 l 438 864 l 532 864 z "},"क़":{"ha":704,"x_min":-28,"x_max":732,"o":"m 732 782 l 400 782 l 400 661 q 444 674 414 674 l 532 674 q 642 564 642 674 l 642 218 q 532 108 642 108 l 456 108 l 456 190 l 503 190 q 538 198 531 190 q 546 233 546 206 l 546 549 q 538 583 546 575 q 503 592 531 592 l 447 592 q 410 582 419 592 q 400 544 400 572 l 400 0 l 304 0 l 304 121 q 260 108 289 108 l 172 108 q 63 218 63 108 l 63 564 q 172 674 63 674 l 249 674 l 249 592 l 201 592 q 167 583 175 592 q 158 549 158 575 l 158 233 q 167 198 158 206 q 201 190 175 190 l 257 190 q 294 201 283 190 q 304 238 304 211 l 304 782 l -28 782 l -28 864 l 732 864 l 732 782 m 72 -78 l 72 42 l 174 42 l 174 -78 l 72 -78 z "},"ख़":{"ha":811,"x_min":-28,"x_max":839,"o":"m 839 864 l 839 782 l 735 782 l 735 0 l 644 0 l 644 186 q 593 165 631 165 l 521 165 q 411 275 411 165 l 411 544 q 521 654 411 654 l 603 654 l 603 572 l 544 572 q 509 564 517 572 q 501 529 501 556 l 501 290 q 509 256 501 264 q 544 247 517 247 l 588 247 q 632 259 619 247 q 644 301 644 271 l 644 782 l 339 782 q 350 746 350 771 l 350 451 q 240 342 350 342 l 163 342 l 163 129 q 170 94 163 103 q 206 86 178 86 l 501 86 l 501 0 l 176 0 q 67 110 67 0 l 67 654 l 163 654 l 163 424 l 211 424 q 247 431 239 424 q 254 467 254 439 l 254 739 q 247 774 254 767 q 211 782 239 782 l -28 782 l -28 864 l 839 864 m 175 -206 l 175 -86 l 276 -86 l 276 -206 l 175 -206 z "},"ग़":{"ha":711,"x_min":-28,"x_max":739,"o":"m 739 864 l 739 782 l 635 782 l 635 0 l 539 0 l 539 782 l 394 782 l 394 218 q 285 108 394 108 l 158 108 q 49 218 49 108 l 49 482 q 158 592 49 592 l 299 592 l 299 782 l -28 782 l -28 864 l 739 864 m 188 190 l 256 190 q 291 198 283 190 q 299 233 299 206 l 299 510 l 188 510 q 153 502 161 510 q 144 467 144 494 l 144 233 q 153 198 144 206 q 188 190 161 190 m 165 -121 l 165 -1 l 267 -1 l 267 -121 l 165 -121 z "},"ज़":{"ha":681,"x_min":-28,"x_max":708,"o":"m 708 864 l 708 782 l 604 782 l 604 0 l 508 0 l 508 592 l 388 592 l 388 218 q 278 108 388 108 l 172 108 q 63 218 63 108 l 63 674 l 158 674 l 158 233 q 167 198 158 206 q 201 190 175 190 l 249 190 q 283 198 275 190 q 292 233 292 206 l 292 674 l 508 674 l 508 782 l -28 782 l -28 864 l 708 864 m 168 -119 l 168 0 l 269 0 l 269 -119 l 168 -119 z "},"ड़":{"ha":488,"x_min":-28,"x_max":515,"o":"m 390 592 l 222 592 q 187 583 194 592 q 179 549 179 575 l 179 451 q 187 417 179 425 q 222 408 194 408 l 294 408 q 404 299 404 408 l 404 110 q 294 0 404 0 l 176 0 q 67 110 67 0 l 67 229 l 163 229 l 163 125 q 170 90 163 97 q 206 82 178 82 l 265 82 q 300 90 292 82 q 308 125 308 97 l 308 283 q 300 319 308 311 q 265 326 292 326 l 193 326 q 83 436 83 326 l 83 564 q 193 674 83 674 l 294 674 l 294 782 l -28 782 l -28 864 l 515 864 l 515 782 l 390 782 l 390 592 m 179 -193 l 179 -74 l 281 -74 l 281 -193 l 179 -193 z "},"ढ़":{"ha":524,"x_min":-28,"x_max":551,"o":"m 392 592 l 215 592 q 181 583 189 592 q 172 549 172 575 l 172 125 q 181 90 172 97 q 215 82 189 82 l 308 82 q 344 90 336 82 q 351 125 351 97 l 351 268 q 344 303 351 294 q 308 311 336 311 l 251 311 l 251 393 l 338 393 q 447 283 447 393 l 447 110 q 338 0 447 0 l 186 0 q 76 110 76 0 l 76 564 q 186 674 76 674 l 296 674 l 296 782 l -28 782 l -28 864 l 551 864 l 551 782 l 392 782 l 392 592 m 214 -193 l 214 -74 l 315 -74 l 315 -193 l 214 -193 z "},"फ़":{"ha":708,"x_min":-28,"x_max":736,"o":"m 736 782 l 404 782 l 404 661 q 449 674 419 674 l 536 674 q 646 564 646 674 l 646 218 q 536 108 646 108 l 460 108 l 460 190 l 507 190 q 542 198 533 190 q 550 233 550 206 l 550 549 q 542 583 550 575 q 507 592 533 592 l 451 592 q 415 582 425 592 q 404 544 404 572 l 404 0 l 308 0 l 308 121 q 264 108 294 108 l 176 108 q 67 218 67 108 l 67 782 l -28 782 l -28 864 l 736 864 l 736 782 m 308 238 l 308 782 l 163 782 l 163 233 q 170 198 163 206 q 206 190 178 190 l 261 190 q 299 201 289 190 q 308 238 308 211 m 135 -118 l 135 1 l 236 1 l 236 -118 l 135 -118 z "},"य़":{"ha":594,"x_min":-56,"x_max":622,"o":"m 622 864 l 622 782 l 518 782 l 518 0 l 422 0 l 422 121 q 378 108 408 108 l 158 108 q 49 218 49 108 l 49 519 l 160 519 q 194 528 186 519 q 203 563 203 536 l 203 738 q 193 775 203 768 q 139 782 183 782 l -56 782 l -56 864 l 622 864 m 422 238 l 422 782 l 288 782 q 299 744 299 771 l 299 547 q 189 438 299 438 l 144 438 l 144 233 q 153 198 144 206 q 188 190 161 190 l 375 190 q 413 201 403 190 q 422 238 422 211 m 219 -110 l 219 10 l 321 10 l 321 -110 l 219 -110 z "},"ॠ":{"ha":858,"x_min":-28,"x_max":886,"o":"m 440 782 l 440 365 l 551 365 q 535 449 535 385 l 535 565 q 644 674 535 674 l 707 674 q 817 565 817 674 l 817 390 q 707 282 817 282 l 668 282 q 638 273 646 281 q 631 239 631 265 l 631 189 q 639 153 631 161 q 674 146 647 146 l 733 146 l 733 64 l 674 64 q 639 56 647 64 q 631 21 631 47 l 631 -29 q 639 -64 631 -56 q 674 -72 647 -72 l 790 -72 l 790 -154 l 644 -154 q 535 -44 535 -154 l 535 38 q 586 101 535 97 l 586 104 q 535 169 535 108 l 535 239 q 554 282 535 271 l 440 282 l 440 0 l 346 0 l 346 282 l 314 282 l 113 0 l 6 0 l 249 340 l 164 511 q 122 571 143 554 q 58 588 100 588 l 7 588 l 7 674 l 58 674 q 166 655 133 674 q 228 579 199 636 l 335 365 l 346 365 l 346 782 l -28 782 l -28 864 l 886 864 l 886 782 l 440 782 m 631 547 l 631 410 q 638 374 631 383 q 671 365 644 365 l 682 365 q 715 374 708 365 q 722 410 722 383 l 722 547 q 715 583 722 574 q 682 592 708 592 l 671 592 q 638 583 644 592 q 631 547 631 574 z "},"ॡ":{"ha":678,"x_min":-28,"x_max":706,"o":"m 611 265 l 544 265 q 509 258 517 265 q 501 222 501 250 l 501 172 q 509 137 501 144 q 544 129 517 129 l 611 129 l 611 47 l 544 47 q 509 39 517 47 q 501 4 501 31 l 501 -46 q 509 -81 501 -72 q 544 -89 517 -89 l 668 -89 l 668 -171 l 515 -171 q 406 -61 406 -171 l 406 21 q 457 85 406 81 l 457 88 q 406 153 406 92 l 406 238 q 515 347 406 347 l 515 592 l 428 592 q 392 583 400 592 q 385 549 385 575 l 385 358 l 289 358 l 289 549 q 281 583 289 575 q 246 592 272 592 l 201 592 q 167 583 175 592 q 158 549 158 575 l 158 129 q 167 94 158 103 q 201 86 175 86 l 286 86 l 286 0 l 172 0 q 63 110 63 0 l 63 564 q 172 674 63 674 l 272 674 q 338 622 333 674 l 340 622 q 404 674 344 674 l 515 674 l 515 782 l -28 782 l -28 864 l 706 864 l 706 782 l 611 782 l 611 265 z "},"।":{"ha":450,"x_min":181,"x_max":269,"o":"m 269 907 l 269 -43 l 181 -43 l 181 907 l 269 907 z "},"॥":{"ha":679,"x_min":181,"x_max":499,"o":"m 499 907 l 499 -43 l 410 -43 l 410 907 l 499 907 m 269 907 l 269 -43 l 181 -43 l 181 907 l 269 907 z "},"०":{"ha":501,"x_min":69,"x_max":432,"o":"m 336 125 l 336 739 q 328 774 336 767 q 293 782 319 782 l 208 782 q 173 774 181 782 q 165 739 165 767 l 165 125 q 173 90 165 97 q 208 82 181 82 l 293 82 q 328 90 319 82 q 336 125 336 97 m 432 754 l 432 110 q 322 0 432 0 l 179 0 q 69 110 69 0 l 69 754 q 179 864 69 864 l 322 864 q 432 754 432 864 z "},"१":{"ha":293,"x_min":28,"x_max":217,"o":"m 217 864 l 217 0 l 122 0 l 122 782 l 28 782 l 28 864 l 217 864 z "},"२":{"ha":403,"x_min":35,"x_max":368,"o":"m 129 739 l 129 586 l 35 586 l 35 754 q 144 864 35 864 l 251 864 q 361 754 361 864 l 361 678 q 325 497 361 582 l 135 82 l 368 82 l 368 0 l 36 0 l 36 81 l 233 513 q 265 683 265 588 l 265 739 q 258 774 265 767 q 222 782 250 782 l 172 782 q 137 774 144 782 q 129 739 129 767 z "},"३":{"ha":447,"x_min":42,"x_max":378,"o":"m 136 739 l 136 597 l 42 597 l 42 754 q 151 864 42 864 l 268 864 q 378 754 378 864 l 378 506 q 326 439 378 443 q 378 374 378 431 l 378 110 q 268 0 378 0 l 151 0 q 42 110 42 0 l 42 265 l 136 265 l 136 125 q 144 90 136 97 q 179 82 153 82 l 240 82 q 275 90 267 82 q 283 125 283 97 l 283 353 q 275 388 283 381 q 240 396 267 396 l 139 396 l 139 479 l 240 479 q 275 487 267 479 q 283 522 283 494 l 283 739 q 275 774 283 767 q 240 782 267 782 l 179 782 q 144 774 153 782 q 136 739 136 767 z "},"४":{"ha":451,"x_min":7,"x_max":451,"o":"m 451 258 l 451 176 l 378 176 l 378 0 l 286 0 l 286 176 l 7 176 l 7 250 l 235 864 l 328 864 l 104 258 l 286 258 l 286 422 l 378 422 l 378 258 l 451 258 z "},"५":{"ha":446,"x_min":56,"x_max":394,"o":"m 394 782 l 151 782 l 151 532 l 285 532 q 394 422 394 532 l 394 110 q 285 0 394 0 l 165 0 q 56 110 56 0 l 56 267 l 151 267 l 151 125 q 159 90 151 97 q 194 82 167 82 l 256 82 q 291 90 283 82 q 299 125 299 97 l 299 407 q 291 442 299 433 q 256 450 283 450 l 56 450 l 56 864 l 394 864 l 394 782 z "},"६":{"ha":489,"x_min":69,"x_max":426,"o":"m 165 490 l 317 490 q 426 381 426 490 l 426 110 q 317 0 426 0 l 179 0 q 69 110 69 0 l 69 754 q 179 864 69 864 l 315 864 q 425 754 425 864 l 425 592 l 331 592 l 331 739 q 322 774 331 767 q 288 782 314 782 l 208 782 q 173 774 181 782 q 165 739 165 767 l 165 490 m 331 125 l 331 365 q 322 400 331 392 q 288 408 314 408 l 165 408 l 165 125 q 173 90 165 97 q 208 82 181 82 l 288 82 q 322 90 314 82 q 331 125 331 97 z "},"७":{"ha":356,"x_min":7,"x_max":349,"o":"m 349 864 l 349 800 l 125 0 l 31 0 l 246 782 l 7 782 l 7 864 l 349 864 z "},"८":{"ha":500,"x_min":69,"x_max":431,"o":"m 431 754 l 431 500 q 379 433 431 438 q 431 368 431 425 l 431 110 q 321 0 431 0 l 179 0 q 69 110 69 0 l 69 368 q 121 433 69 425 q 69 500 69 438 l 69 754 q 179 864 69 864 l 321 864 q 431 754 431 864 m 336 125 l 336 350 q 328 385 336 378 q 293 393 319 393 l 207 393 q 172 385 181 393 q 164 350 164 378 l 164 125 q 172 90 164 97 q 207 82 181 82 l 293 82 q 328 90 319 82 q 336 125 336 97 m 336 519 l 336 739 q 328 774 336 767 q 293 782 319 782 l 207 782 q 172 774 181 782 q 164 739 164 767 l 164 519 q 172 484 164 492 q 207 476 181 476 l 293 476 q 328 484 319 476 q 336 519 336 492 z "},"९":{"ha":482,"x_min":56,"x_max":413,"o":"m 165 864 l 303 864 q 413 754 413 864 l 413 110 q 303 0 413 0 l 167 0 q 57 110 57 0 l 57 272 l 151 272 l 151 125 q 159 90 151 97 q 194 82 167 82 l 274 82 q 308 90 300 82 q 317 125 317 97 l 317 360 l 165 360 q 56 469 56 360 l 56 754 q 165 864 56 864 m 194 442 l 317 442 l 317 739 q 308 774 317 767 q 274 782 300 782 l 194 782 q 159 774 167 782 q 151 739 151 767 l 151 485 q 159 450 151 458 q 194 442 167 442 z "},"॰":{"ha":490,"x_min":83,"x_max":407,"o":"m 245 519 q 208 519 245 519 q 171 424 171 519 q 245 328 171 328 q 319 424 319 328 q 245 519 319 519 m 127 295 q 105 318 127 295 q 83 424 83 342 q 127 552 83 506 q 244 599 171 599 q 363 552 318 599 q 407 424 407 506 q 363 295 407 342 q 244 249 318 249 q 127 295 171 249 z "},"ॲ":{"ha":590,"x_min":42,"x_max":756,"o":"m 667 1099 l 756 1099 l 756 1035 q 646 925 756 925 l 507 925 q 397 1035 397 925 l 397 1099 l 486 1099 l 486 1043 q 494 1008 486 1017 q 529 1000 503 1000 l 624 1000 q 658 1008 650 1000 q 667 1043 667 1017 l 667 1099 m 722 864 l 722 782 l 618 782 l 618 0 l 524 0 l 524 401 l 376 401 l 376 218 q 267 108 376 108 l 151 108 q 42 218 42 108 l 42 351 l 138 351 l 138 233 q 145 198 138 206 q 181 190 153 190 l 238 190 q 272 198 264 190 q 281 233 281 206 l 281 394 q 271 432 281 422 q 233 442 261 442 l 139 442 l 139 524 l 233 524 q 271 534 261 524 q 281 571 281 544 l 281 739 q 272 774 281 767 q 238 782 264 782 l 181 782 q 145 774 153 782 q 138 739 138 767 l 138 621 l 42 621 l 42 754 q 151 864 42 864 l 267 864 q 376 754 376 864 l 376 550 q 325 485 376 489 l 325 482 l 524 482 l 524 864 l 722 864 z "},"​":{"ha":0,"x_min":0,"x_max":0,"o":""},"‌":{"ha":0,"x_min":-32,"x_max":33,"o":"m 33 -319 l -32 -319 l -32 1126 l 33 1126 l 33 -319 z "},"‍":{"ha":0,"x_min":-176,"x_max":179,"o":"m 33 -319 l -32 -319 l -32 882 l -128 781 l -174 826 l -44 956 l -176 1088 l -131 1133 l 1 1001 l 135 1133 l 179 1089 l 46 956 l 179 824 l 133 778 l 33 882 l 33 -319 z "},"–":{"ha":514,"x_min":28,"x_max":486,"o":"m 28 365 l 28 446 l 486 446 l 486 365 l 28 365 z "},"—":{"ha":665,"x_min":0,"x_max":665,"o":"m 0 365 l 0 446 l 665 446 l 665 365 l 0 365 z "},"‘":{"ha":197,"x_min":42,"x_max":156,"o":"m 156 518 l 42 518 l 42 599 l 118 864 l 156 864 l 156 518 z "},"’":{"ha":197,"x_min":42,"x_max":156,"o":"m 42 864 l 156 864 l 156 783 l 79 518 l 42 518 l 42 864 z "},"‚":{"ha":197,"x_min":42,"x_max":156,"o":"m 42 156 l 156 156 l 156 75 l 79 -190 l 42 -190 l 42 156 z "},"“":{"ha":381,"x_min":42,"x_max":339,"o":"m 156 518 l 42 518 l 42 599 l 118 864 l 156 864 l 156 518 m 339 518 l 225 518 l 225 599 l 301 864 l 339 864 l 339 518 z "},"”":{"ha":381,"x_min":42,"x_max":339,"o":"m 225 864 l 339 864 l 339 783 l 263 518 l 225 518 l 225 864 m 42 864 l 156 864 l 156 783 l 79 518 l 42 518 l 42 864 z "},"„":{"ha":381,"x_min":42,"x_max":339,"o":"m 225 156 l 339 156 l 339 75 l 263 -190 l 225 -190 l 225 156 m 42 156 l 156 156 l 156 75 l 79 -190 l 42 -190 l 42 156 z "},"†":{"ha":469,"x_min":7,"x_max":463,"o":"m 463 636 l 463 554 l 282 554 l 282 -153 l 188 -153 l 188 554 l 7 554 l 7 636 l 188 636 l 188 864 l 282 864 l 282 636 l 463 636 z "},"‡":{"ha":497,"x_min":21,"x_max":476,"o":"m 476 554 l 296 554 l 296 92 l 476 92 l 476 10 l 296 10 l 296 -218 l 201 -218 l 201 10 l 21 10 l 21 92 l 201 92 l 201 554 l 21 554 l 21 636 l 201 636 l 201 864 l 296 864 l 296 636 l 476 636 l 476 554 z "},"•":{"ha":550,"x_min":99,"x_max":451,"o":"m 151 321 q 125 347 151 321 q 99 446 99 372 q 151 571 99 519 q 275 622 203 622 q 399 571 347 622 q 451 446 451 519 q 399 321 451 372 q 275 269 347 269 q 151 321 203 269 z "},"…":{"ha":697,"x_min":76,"x_max":704,"o":"m 576 0 l 576 149 l 704 149 l 704 0 l 576 0 m 326 0 l 326 149 l 454 149 l 454 0 l 326 0 m 76 0 l 76 149 l 204 149 l 204 0 l 76 0 z "},"‰":{"ha":1139,"x_min":42,"x_max":1097,"o":"m 1019 111 l 1019 342 q 1013 376 1019 368 q 981 383 1006 383 l 949 383 q 917 376 924 383 q 910 342 910 368 l 910 111 q 917 77 910 85 q 949 69 924 69 l 981 69 q 1013 77 1006 69 q 1019 111 1019 85 m 1097 354 l 1097 99 q 1004 0 1097 0 l 925 0 q 832 99 832 0 l 832 354 q 925 453 832 453 l 1004 453 q 1097 354 1097 453 m 544 864 l 629 864 l 250 0 l 167 0 l 544 864 m 676 111 l 676 342 q 669 376 676 368 q 638 383 663 383 l 606 383 q 574 376 581 383 q 567 342 567 368 l 567 111 q 574 77 567 85 q 606 69 581 69 l 638 69 q 669 77 663 69 q 676 111 676 85 m 229 522 l 229 753 q 222 787 229 779 q 190 794 215 794 l 158 794 q 126 787 133 794 q 119 753 119 779 l 119 522 q 126 488 119 496 q 158 481 133 481 l 190 481 q 222 488 215 481 q 229 522 229 496 m 754 354 l 754 99 q 661 0 754 0 l 582 0 q 489 99 489 0 l 489 354 q 582 453 489 453 l 661 453 q 754 354 754 453 m 307 765 l 307 510 q 214 411 307 411 l 135 411 q 42 510 42 411 l 42 765 q 135 864 42 864 l 214 864 q 307 765 307 864 z "},"‹":{"ha":399,"x_min":60,"x_max":335,"o":"m 228 147 l 60 364 l 228 581 l 335 581 l 163 363 l 335 147 l 228 147 z "},"›":{"ha":401,"x_min":60,"x_max":335,"o":"m 335 364 l 167 147 l 60 147 l 232 363 l 60 581 l 167 581 l 335 364 z "},"⁄":{"ha":533,"x_min":11,"x_max":472,"o":"m 378 971 l 472 971 l 106 -189 l 11 -189 l 378 971 z "},"€":{"ha":511,"x_min":35,"x_max":456,"o":"m 456 608 l 360 608 l 360 739 q 352 774 360 767 q 317 782 344 782 l 240 782 q 206 774 214 782 q 197 739 197 767 l 197 553 l 329 553 l 329 472 l 197 472 l 197 393 l 329 393 l 329 311 l 197 311 l 197 124 q 206 89 197 97 q 240 81 214 81 l 317 81 q 352 89 344 81 q 360 124 360 97 l 360 254 l 456 254 l 456 108 q 346 -1 456 -1 l 211 -1 q 101 108 101 -1 l 101 311 l 35 311 l 35 393 l 101 393 l 101 472 l 35 472 l 35 553 l 101 553 l 101 754 q 211 864 101 864 l 346 864 q 456 754 456 864 l 456 608 z "},"₹":{"ha":476,"x_min":56,"x_max":407,"o":"m 407 864 l 407 782 l 319 782 q 333 726 333 764 l 333 654 l 407 654 l 407 572 l 333 572 l 333 472 q 224 363 333 363 l 154 363 l 363 0 l 260 0 l 56 363 l 56 444 l 194 444 q 230 453 222 444 q 238 488 238 461 l 238 572 l 56 572 l 56 654 l 238 654 l 238 739 q 230 774 238 767 q 194 782 222 782 l 56 782 l 56 864 l 407 864 z "},"™":{"ha":831,"x_min":7,"x_max":789,"o":"m 789 864 l 789 417 l 701 417 l 701 724 l 629 497 l 539 497 l 464 725 l 464 417 l 376 417 l 376 864 l 497 864 l 583 606 l 667 864 l 789 864 m 324 864 l 324 782 l 213 782 l 213 417 l 118 417 l 118 782 l 7 782 l 7 864 l 324 864 z "},"Ω":{"ha":514,"x_min":14,"x_max":500,"o":"m 500 82 l 500 0 l 281 0 l 281 82 l 300 82 q 335 90 328 82 q 343 125 343 97 l 343 739 q 335 774 343 767 q 300 782 328 782 l 214 782 q 178 774 186 782 q 171 739 171 767 l 171 125 q 178 90 171 97 q 214 82 186 82 l 233 82 l 233 0 l 14 0 l 14 82 l 106 82 q 76 151 76 99 l 76 754 q 186 864 76 864 l 328 864 q 438 754 438 864 l 438 151 q 408 82 438 99 l 500 82 z "},"∏":{"ha":567,"x_min":14,"x_max":490,"o":"m 97 864 l 490 864 l 490 0 l 396 0 l 396 782 l 193 782 l 193 110 q 83 0 193 0 l 14 0 l 14 89 l 54 89 q 89 97 81 89 q 97 132 97 106 l 97 864 z "},"−":{"ha":528,"x_min":35,"x_max":493,"o":"m 35 390 l 35 474 l 493 474 l 493 390 l 35 390 z "},"∕":{"ha":533,"x_min":11,"x_max":472,"o":"m 378 971 l 472 971 l 106 -189 l 11 -189 l 378 971 z "},"∙":{"ha":197,"x_min":42,"x_max":156,"o":"m 42 354 l 42 510 l 156 510 l 156 354 l 42 354 z "},"∞":{"ha":814,"x_min":69,"x_max":744,"o":"m 572 672 l 636 672 q 744 568 744 672 l 744 400 q 636 294 744 294 l 582 294 q 497 308 524 294 q 435 369 469 322 l 406 410 q 328 315 364 336 q 218 294 292 294 l 176 294 q 69 400 69 294 l 69 568 q 176 672 69 672 l 228 672 q 308 658 283 672 q 367 597 332 644 l 406 544 q 493 657 471 642 q 572 672 515 672 m 231 597 l 203 597 q 166 587 174 597 q 158 549 158 576 l 158 418 q 166 379 158 389 q 203 369 174 369 l 246 369 q 314 411 286 369 l 358 478 l 304 553 q 272 588 286 578 q 231 597 258 597 m 656 418 l 656 550 q 648 588 656 578 q 611 599 640 599 l 553 599 q 527 591 536 599 q 503 563 518 583 l 450 478 l 514 396 q 569 369 533 369 l 611 369 q 648 379 640 369 q 656 418 656 389 z "},"∫":{"ha":338,"x_min":14,"x_max":324,"o":"m 217 888 l 217 -51 q 107 -161 217 -161 l 14 -161 l 14 -72 l 78 -72 q 111 -65 104 -72 q 121 -29 118 -57 l 121 910 q 231 1019 121 1019 l 324 1019 l 324 931 l 260 931 q 225 922 233 931 q 217 888 217 914 z "},"≈":{"ha":656,"x_min":71,"x_max":585,"o":"m 440 300 q 361 318 396 300 q 308 357 326 336 q 201 414 257 414 q 168 402 176 414 q 160 367 160 390 l 160 301 l 71 301 l 71 385 q 178 490 71 490 l 218 490 q 288 472 256 490 q 339 433 319 454 q 390 394 358 413 q 452 376 422 376 q 489 388 482 376 q 496 425 496 399 l 496 489 l 585 489 l 585 406 q 476 300 585 300 l 440 300 m 440 536 q 361 554 396 536 q 308 593 326 572 q 201 650 257 650 q 168 638 176 650 q 160 603 160 626 l 160 538 l 71 538 l 71 621 q 178 726 71 726 l 218 726 q 288 708 256 726 q 339 669 319 690 q 390 631 358 649 q 452 613 422 613 q 489 624 482 613 q 496 661 496 635 l 496 725 l 585 725 l 585 642 q 476 536 585 536 l 440 536 z "},"≠":{"ha":658,"x_min":69,"x_max":589,"o":"m 589 506 l 401 506 l 338 369 l 589 369 l 589 289 l 300 289 l 236 150 l 160 150 l 224 289 l 69 289 l 69 369 l 261 369 l 325 506 l 69 506 l 69 586 l 361 586 l 422 717 l 499 717 l 438 586 l 589 586 l 589 506 z "},"≤":{"ha":603,"x_min":56,"x_max":519,"o":"m 519 229 l 519 150 l 56 150 l 56 229 l 519 229 m 519 617 l 169 494 l 519 369 l 519 279 l 56 463 l 56 532 l 519 706 l 519 617 z "},"≥":{"ha":603,"x_min":69,"x_max":533,"o":"m 69 150 l 69 229 l 533 229 l 533 150 l 69 150 m 419 494 l 69 617 l 69 706 l 533 532 l 533 463 l 69 279 l 69 369 l 419 494 z "},"◊":{"ha":619,"x_min":67,"x_max":576,"o":"m 361 864 l 576 432 l 361 0 l 282 0 l 67 432 l 282 864 l 361 864 m 322 97 l 476 432 l 322 768 l 167 432 l 322 97 z "},"◌":{"ha":586,"x_min":99,"x_max":479,"o":"m 243 210 l 335 210 l 335 108 l 243 108 l 243 210 m 243 674 l 335 674 l 335 572 l 243 572 l 243 674 m 388 572 l 388 674 q 479 572 479 674 l 388 572 m 388 519 l 479 519 l 479 418 l 388 418 l 388 519 m 388 364 l 479 364 l 479 263 l 388 263 l 388 364 m 388 210 l 479 210 q 454 138 479 168 q 388 108 429 108 l 388 210 m 190 572 l 99 572 q 124 647 99 619 q 190 674 149 674 l 190 572 m 99 519 l 190 519 l 190 418 l 99 418 l 99 519 m 99 364 l 190 364 l 190 263 l 99 263 l 99 364 m 190 210 l 190 108 q 124 136 150 108 q 99 210 99 164 l 190 210 z "},"":{"ha":556,"x_min":222,"x_max":333,"o":"m 222 -71 l 333 -71 l 333 -125 l 260 -293 l 222 -293 l 222 -71 z "},"ﬁ":{"ha":474,"x_min":7,"x_max":411,"o":"m 315 929 l 411 929 l 411 840 l 315 840 l 315 929 m 169 674 l 411 674 l 411 0 l 315 0 l 315 592 l 169 592 l 169 0 l 74 0 l 74 592 l 7 592 l 7 674 l 74 674 l 74 819 q 183 929 74 929 l 242 929 l 242 840 l 213 840 q 178 833 186 840 q 169 797 169 825 l 169 674 z "},"ﬂ":{"ha":474,"x_min":7,"x_max":411,"o":"m 315 929 l 411 929 l 411 0 l 315 0 l 315 592 l 169 592 l 169 0 l 74 0 l 74 592 l 7 592 l 7 674 l 74 674 l 74 819 q 183 929 74 929 l 242 929 l 242 840 l 213 840 q 178 833 186 840 q 169 797 169 825 l 169 674 l 315 674 l 315 929 z "}}}
